<svg xmlns="http://www.w3.org/2000/svg" xmlns:xlink="http://www.w3.org/1999/xlink" width="765" height="469" viewBox="0 0 765 469"><defs><style>.a,.b,.c,.d,.e,.f,.g,.h,.i,.j,.k{fill:none;}.b,.c,.d,.e,.f,.g,.h,.i,.j,.k{stroke:#754c24;stroke-linecap:round;stroke-dasharray:0 6.5;}.b{stroke-width:3.5px;}.c{stroke-width:3.25px;}.d{stroke-width:3px;}.e{stroke-width:2.75px;}.f{stroke-width:2.5px;}.g{stroke-width:2.25px;}.h{stroke-width:2px;}.i{stroke-width:1.75px;}.j{stroke-width:1.5px;}.k{stroke-width:1.25px;}.l{fill:#eeefed;}.m{clip-path:url(#a);}.n{fill:url(#b);}.o{fill:#fff;}.p{fill:#ccc;}.q{fill:#28110b;}.r{fill:#603813;}.s{fill:#42210b;}.t{fill:#754c24;}.u{fill:#f7931e;}.v{fill:#e6e6e6;}.w{fill:#9148bc;}.x{fill:#8c6239;}.y{fill:#c69c6d;}.z{fill:#f15a24;}.aa{fill:#a67c52;}.ab{fill:#736357;}.ac{fill:#371d0b;}.ad{fill:#0f8294;}.ae{fill:#feb62e;}.af{fill:#d9c7b4;}.ag{fill:url(#c);}.ah{fill:url(#d);}.ai{fill:#e72b78;}.aj{fill:#333;}.ak{fill:#1a1a1a;}</style><clipPath id="a"><rect class="a" width="765" height="391.92"/></clipPath><linearGradient id="b" x1="382.5" y1="12.82" x2="382.5" y2="389.97" gradientUnits="userSpaceOnUse"><stop offset="0" stop-color="#fff"/><stop offset="0.6" stop-color="#eeefed"/></linearGradient><pattern id="c" width="83" height="65" patternTransform="translate(1963 1974) scale(1.1)" patternUnits="userSpaceOnUse" viewBox="0 0 83 65"><rect class="a" width="83" height="65"/><line class="b" x1="83" y1="65" x2="83" y2="130.5"/><line class="b" y1="65" y2="130.5"/><line class="c" x1="4.6" y1="61.8" x2="4.6" y2="130.5"/><line class="d" x1="9.2" y1="65" x2="9.2" y2="130.5"/><line class="e" x1="13.8" y1="61.8" x2="13.8" y2="130.5"/><line class="f" x1="18.4" y1="65" x2="18.4" y2="130.5"/><line class="g" x1="23.1" y1="61.8" x2="23.1" y2="130.5"/><line class="h" x1="27.7" y1="65" x2="27.7" y2="130.5"/><line class="i" x1="32.3" y1="61.8" x2="32.3" y2="130.5"/><line class="j" x1="36.9" y1="65" x2="36.9" y2="130.5"/><line class="k" x1="41.5" y1="61.8" x2="41.5" y2="130.5"/><line class="b" x1="83" y1="65" x2="83" y2="130.5"/><line class="c" x1="78.4" y1="61.8" x2="78.4" y2="130.5"/><line class="d" x1="73.8" y1="65" x2="73.8" y2="130.5"/><line class="e" x1="69.2" y1="61.8" x2="69.2" y2="130.5"/><line class="f" x1="64.6" y1="65" x2="64.6" y2="130.5"/><line class="g" x1="59.9" y1="61.8" x2="59.9" y2="130.5"/><line class="h" x1="55.3" y1="65" x2="55.3" y2="130.5"/><line class="i" x1="50.7" y1="61.8" x2="50.7" y2="130.5"/><line class="j" x1="46.1" y1="65" x2="46.1" y2="130.5"/><line class="b" y1="65" y2="130.5"/><line class="b" x1="83" x2="83" y2="65.5"/><line class="b" y2="65.5"/><line class="c" x1="4.6" y1="-3.3" x2="4.6" y2="65.5"/><line class="d" x1="9.2" x2="9.2" y2="65.5"/><line class="e" x1="13.8" y1="-3.3" x2="13.8" y2="65.5"/><line class="f" x1="18.4" x2="18.4" y2="65.5"/><line class="g" x1="23.1" y1="-3.3" x2="23.1" y2="65.5"/><line class="h" x1="27.7" x2="27.7" y2="65.5"/><line class="i" x1="32.3" y1="-3.3" x2="32.3" y2="65.5"/><line class="j" x1="36.9" x2="36.9" y2="65.5"/><line class="k" x1="41.5" y1="-3.3" x2="41.5" y2="65.5"/><line class="b" x1="83" x2="83" y2="65.5"/><line class="c" x1="78.4" y1="-3.3" x2="78.4" y2="65.5"/><line class="d" x1="73.8" x2="73.8" y2="65.5"/><line class="e" x1="69.2" y1="-3.3" x2="69.2" y2="65.5"/><line class="f" x1="64.6" x2="64.6" y2="65.5"/><line class="g" x1="59.9" y1="-3.3" x2="59.9" y2="65.5"/><line class="h" x1="55.3" x2="55.3" y2="65.5"/><line class="i" x1="50.7" y1="-3.3" x2="50.7" y2="65.5"/><line class="j" x1="46.1" x2="46.1" y2="65.5"/><line class="b" y2="65.5"/><line class="b" x1="83" y1="-65" x2="83" y2="0.5"/><line class="b" y1="-65" y2="0.5"/><line class="c" x1="4.6" y1="-68.3" x2="4.6" y2="0.5"/><line class="d" x1="9.2" y1="-65" x2="9.2" y2="0.5"/><line class="e" x1="13.8" y1="-68.3" x2="13.8" y2="0.5"/><line class="f" x1="18.4" y1="-65" x2="18.4" y2="0.5"/><line class="g" x1="23.1" y1="-68.3" x2="23.1" y2="0.5"/><line class="h" x1="27.7" y1="-65" x2="27.7" y2="0.5"/><line class="i" x1="32.3" y1="-68.3" x2="32.3" y2="0.5"/><line class="j" x1="36.9" y1="-65" x2="36.9" y2="0.5"/><line class="k" x1="41.5" y1="-68.3" x2="41.5" y2="0.5"/><line class="b" x1="83" y1="-65" x2="83" y2="0.5"/><line class="c" x1="78.4" y1="-68.3" x2="78.4" y2="0.5"/><line class="d" x1="73.8" y1="-65" x2="73.8" y2="0.5"/><line class="e" x1="69.2" y1="-68.3" x2="69.2" y2="0.5"/><line class="f" x1="64.6" y1="-65" x2="64.6" y2="0.5"/><line class="g" x1="59.9" y1="-68.3" x2="59.9" y2="0.5"/><line class="h" x1="55.3" y1="-65" x2="55.3" y2="0.5"/><line class="i" x1="50.7" y1="-68.3" x2="50.7" y2="0.5"/><line class="j" x1="46.1" y1="-65" x2="46.1" y2="0.5"/><line class="b" y1="-65" y2="0.5"/></pattern><linearGradient id="d" x1="278.45" y1="318.53" x2="288.3" y2="126.25" gradientUnits="userSpaceOnUse"><stop offset="0" stop-color="#fff" stop-opacity="0"/><stop offset="0.03" stop-color="#faf9f7" stop-opacity="0.08"/><stop offset="0.1" stop-color="#eee8e1" stop-opacity="0.3"/><stop offset="0.19" stop-color="#e4dacd" stop-opacity="0.49"/><stop offset="0.28" stop-color="#dbcdbd" stop-opacity="0.65"/><stop offset="0.37" stop-color="#d4c3b0" stop-opacity="0.78"/><stop offset="0.48" stop-color="#cebca6" stop-opacity="0.88"/><stop offset="0.6" stop-color="#cab69e" stop-opacity="0.95"/><stop offset="0.74" stop-color="#c8b39a" stop-opacity="0.99"/><stop offset="1" stop-color="#c7b299"/></linearGradient></defs><rect class="l" y="4" width="765" height="465" rx="17.7"/><g class="m"><polyline class="n" points="364 388.1 375.7 388.1 375.7 378.2 364 378.2 364 364.6 375.7 364.6 375.7 343.1 365.8 343.1 365.8 354.8 352.2 354.8 352.2 343.1 342.4 343.1 342.4 364.6 354.1 364.6 354.1 378.2 328.8 378.2 328.8 366.5 318.9 366.5 318.9 378.2 293.6 378.2 293.6 364.6 305.3 364.6 305.3 354.8 293.6 354.8 293.6 341.2 318.9 341.2 318.9 352.9 328.8 352.9 328.8 319.6 318.9 319.6 318.9 331.3 293.6 331.3 293.6 317.7 305.3 317.7 305.3 307.9 293.6 307.9 293.6 294.3 318.9 294.3 318.9 306 328.8 306 328.8 294.3 354.1 294.3 354.1 307.9 342.4 307.9 342.4 329.5 352.2 329.5 352.2 317.7 365.8 317.7 365.8 329.5 375.7 329.5 375.7 307.9 364 307.9 364 294.3 375.7 294.3 375.7 272.7 365.8 272.7 365.8 284.4 340.5 284.4 340.5 270.8 352.2 270.8 352.2 261 340.5 261 340.5 247.4 365.8 247.4 365.8 259.1 375.7 259.1 375.7 237.5 364 237.5 364 223.9 375.7 223.9 375.7 202.3 365.8 202.3 365.8 214.1 352.2 214.1 352.2 202.3 342.4 202.3 342.4 223.9 354.1 223.9 354.1 237.5 317.1 237.5 317.1 223.9 328.8 223.9 328.8 202.3 318.9 202.3 318.9 214.1 305.3 214.1 305.3 202.3 295.5 202.3 295.5 223.9 307.2 223.9 307.2 237.5 295.5 237.5 295.5 259.1 305.3 259.1 305.3 247.4 330.7 247.4 330.7 261 318.9 261 318.9 270.8 330.7 270.8 330.7 284.4 305.3 284.4 305.3 272.7 295.5 272.7 295.5 284.4 281.9 284.4 281.9 272.7 272 272.7 272 284.4 246.7 284.4 246.7 270.8 258.4 270.8 258.4 261 246.7 261 246.7 247.4 272 247.4 272 259.1 281.9 259.1 281.9 237.5 270.2 237.5 270.2 223.9 281.9 223.9 281.9 202.3 272 202.3 272 214.1 258.4 214.1 258.4 202.3 248.6 202.3 248.6 223.9 260.3 223.9 260.3 237.5 223.2 237.5 223.2 223.9 235 223.9 235 202.3 225.1 202.3 225.1 214.1 211.5 214.1 211.5 202.3 201.7 202.3 201.7 223.9 213.4 223.9 213.4 237.5 201.7 237.5 201.7 259.1 211.5 259.1 211.5 247.4 236.8 247.4 236.8 261 225.1 261 225.1 270.8 236.8 270.8 236.8 284.4 211.5 284.4 211.5 272.7 201.7 272.7 201.7 294.3 213.4 294.3 213.4 307.9 201.7 307.9 201.7 329.5 211.5 329.5 211.5 317.7 225.1 317.7 225.1 329.5 235 329.5 235 307.9 223.2 307.9 223.2 294.3 248.6 294.3 248.6 306 258.4 306 258.4 294.3 283.8 294.3 283.8 307.9 272 307.9 272 317.7 283.8 317.7 283.8 331.3 258.4 331.3 258.4 319.6 248.6 319.6 248.6 352.9 258.4 352.9 258.4 341.2 283.8 341.2 283.8 354.8 272 354.8 272 364.6 283.8 364.6 283.8 378.2 258.4 378.2 258.4 366.5 248.6 366.5 248.6 378.2 223.2 378.2 223.2 364.6 235 364.6 235 343.1 225.1 343.1 225.1 354.8 211.5 354.8 211.5 343.1 201.7 343.1 201.7 364.6 213.4 364.6 213.4 378.2 188.1 378.2 188.1 366.5 178.2 366.5 178.2 378.2 152.9 378.2 152.9 364.6 164.6 364.6 164.6 354.8 152.9 354.8 152.9 341.2 178.2 341.2 178.2 352.9 188.1 352.9 188.1 331.3 176.3 331.3 176.3 317.7 188.1 317.7 188.1 296.2 178.2 296.2 178.2 307.9 164.6 307.9 164.6 296.2 154.8 296.2 154.8 317.7 166.5 317.7 166.5 331.3 129.4 331.3 129.4 317.7 141.2 317.7 141.2 296.2 131.3 296.2 131.3 307.9 117.7 307.9 117.7 296.2 107.9 296.2 107.9 317.7 119.6 317.7 119.6 331.3 107.9 331.3 107.9 352.9 117.7 352.9 117.7 341.2 143 341.2 143 354.8 131.3 354.8 131.3 364.6 143 364.6 143 378.2 117.7 378.2 117.7 366.5 107.9 366.5 107.9 378.2 82.5 378.2 82.5 364.6 94.2 364.6 94.2 343.1 84.4 343.1 84.4 354.8 70.8 354.8 70.8 343.1 60.9 343.1 60.9 364.6 72.7 364.6 72.7 378.2 47.3 378.2 47.3 366.5 37.5 366.5 37.5 378.2 12.2 378.2 12.2 364.6 23.9 364.6 23.9 354.8 12.2 354.8 12.2 341.2 37.5 341.2 37.5 352.9 47.3 352.9 47.3 319.6 37.5 319.6 37.5 331.3 12.2 331.3 12.2 317.7 23.9 317.7 23.9 307.9 12.2 307.9 12.2 294.3 37.5 294.3 37.5 306 47.3 306 47.3 294.3 72.7 294.3 72.7 307.9 60.9 307.9 60.9 329.5 70.8 329.5 70.8 317.7 84.4 317.7 84.4 329.5 94.2 329.5 94.2 307.9 82.5 307.9 82.5 294.3 94.2 294.3 94.2 284.4 82.5 284.4 82.5 270.8 94.2 270.8 94.2 249.2 84.4 249.2 84.4 261 70.8 261 70.8 249.2 60.9 249.2 60.9 270.8 72.7 270.8 72.7 284.4 47.3 284.4 47.3 272.7 37.5 272.7 37.5 284.4 12.2 284.4 12.2 270.8 23.9 270.8 23.9 261 12.2 261 12.2 247.4 37.5 247.4 37.5 259.1 47.3 259.1 47.3 225.8 37.5 225.8 37.5 237.5 12.2 237.5 12.2 223.9 23.9 223.9 23.9 214.1 12.2 214.1 12.2 200.5 37.5 200.5 37.5 212.2 47.3 212.2 47.3 200.5 72.7 200.5 72.7 214.1 60.9 214.1 60.9 235.6 70.8 235.6 70.8 223.9 84.4 223.9 84.4 235.6 94.2 235.6 94.2 214.1 82.5 214.1 82.5 200.5 107.9 200.5 107.9 212.2 117.7 212.2 117.7 200.5 143 200.5 143 214.1 131.3 214.1 131.3 223.9 143 223.9 143 237.5 117.7 237.5 117.7 225.8 107.9 225.8 107.9 247.4 119.6 247.4 119.6 261 107.9 261 107.9 282.5 117.7 282.5 117.7 270.8 131.3 270.8 131.3 282.5 141.2 282.5 141.2 261 129.4 261 129.4 247.4 166.5 247.4 166.5 261 154.8 261 154.8 282.5 164.6 282.5 164.6 270.8 178.2 270.8 178.2 282.5 188.1 282.5 188.1 261 176.3 261 176.3 247.4 188.1 247.4 188.1 225.8 178.2 225.8 178.2 237.5 152.9 237.5 152.9 223.9 164.6 223.9 164.6 214.1 152.9 214.1 152.9 200.5 178.2 200.5 178.2 212.2 188.1 212.2 188.1 178.9 178.2 178.9 178.2 190.6 152.9 190.6 152.9 177 164.6 177 164.6 167.2 152.9 167.2 152.9 153.6 178.2 153.6 178.2 165.3 188.1 165.3 188.1 143.7 176.3 143.7 176.3 130.1 188.1 130.1 188.1 108.5 178.2 108.5 178.2 120.2 164.6 120.2 164.6 108.5 154.8 108.5 154.8 130.1 166.5 130.1 166.5 143.7 129.4 143.7 129.4 130.1 141.2 130.1 141.2 108.5 131.3 108.5 131.3 120.2 117.7 120.2 117.7 108.5 107.9 108.5 107.9 130.1 119.6 130.1 119.6 143.7 107.9 143.7 107.9 165.3 117.7 165.3 117.7 153.6 143 153.6 143 167.2 131.3 167.2 131.3 177 143 177 143 190.6 117.7 190.6 117.7 178.9 107.9 178.9 107.9 190.6 82.5 190.6 82.5 177 94.2 177 94.2 155.4 84.4 155.4 84.4 167.2 70.8 167.2 70.8 155.4 60.9 155.4 60.9 177 72.7 177 72.7 190.6 47.3 190.6 47.3 178.9 37.5 178.9 37.5 190.6 12.2 190.6 12.2 177 23.9 177 23.9 167.2 12.2 167.2 12.2 153.6 37.5 153.6 37.5 165.3 47.3 165.3 47.3 132 37.5 132 37.5 143.7 12.2 143.7 12.2 130.1 23.9 130.1 23.9 120.2 12.2 120.2 12.2 106.6 37.5 106.6 37.5 118.4 47.3 118.4 47.3 106.6 72.7 106.6 72.7 120.2 60.9 120.2 60.9 141.8 70.8 141.8 70.8 130.1 84.4 130.1 84.4 141.8 94.2 141.8 94.2 120.2 82.5 120.2 82.5 106.6 94.2 106.6 94.2 96.8 82.5 96.8 82.5 83.2 94.2 83.2 94.2 61.6 84.4 61.6 84.4 73.3 70.8 73.3 70.8 61.6 60.9 61.6 60.9 83.2 72.7 83.2 72.7 96.8 47.3 96.8 47.3 85.1 37.5 85.1 37.5 96.8 12.2 96.8 12.2 83.2 23.9 83.2 23.9 73.3 12.2 73.3 12.2 59.7 37.5 59.7 37.5 71.5 47.3 71.5 47.3 38.2 37.5 38.2 37.5 49.9 12.2 49.9 12.2 36.3 23.9 36.3 23.9 26.4 12.2 26.4 12.2 12.8 37.5 12.8 37.5 24.6 47.3 24.6 47.3 12.8 72.7 12.8 72.7 26.4 60.9 26.4 60.9 48 70.8 48 70.8 36.3 84.4 36.3 84.4 48 94.2 48 94.2 26.4 82.5 26.4 82.5 12.8 107.9 12.8 107.9 24.6 117.7 24.6 117.7 12.8 143 12.8 143 26.4 131.3 26.4 131.3 36.3 143 36.3 143 49.9 117.7 49.9 117.7 38.2 107.9 38.2 107.9 59.7 119.6 59.7 119.6 73.3 107.9 73.3 107.9 94.9 117.7 94.9 117.7 83.2 131.3 83.2 131.3 94.9 141.2 94.9 141.2 73.3 129.4 73.3 129.4 59.7 166.5 59.7 166.5 73.3 154.8 73.3 154.8 94.9 164.6 94.9 164.6 83.2 178.2 83.2 178.2 94.9 188.1 94.9 188.1 73.3 176.3 73.3 176.3 59.7 188.1 59.7 188.1 38.2 178.2 38.2 178.2 49.9 152.9 49.9 152.9 36.3 164.6 36.3 164.6 26.4 152.9 26.4 152.9 12.8 178.2 12.8 178.2 24.6 188.1 24.6 188.1 12.8 213.4 12.8 213.4 26.4 201.7 26.4 201.7 48 211.5 48 211.5 36.3 225.1 36.3 225.1 48 235 48 235 26.4 223.2 26.4 223.2 12.8 248.6 12.8 248.6 24.6 258.4 24.6 258.4 12.8 283.8 12.8 283.8 26.4 272 26.4 272 36.3 283.8 36.3 283.8 49.9 258.4 49.9 258.4 38.2 248.6 38.2 248.6 71.5 258.4 71.5 258.4 59.7 283.8 59.7 283.8 73.3 272 73.3 272 83.2 283.8 83.2 283.8 96.8 258.4 96.8 258.4 85.1 248.6 85.1 248.6 96.8 223.2 96.8 223.2 83.2 235 83.2 235 61.6 225.1 61.6 225.1 73.3 211.5 73.3 211.5 61.6 201.7 61.6 201.7 83.2 213.4 83.2 213.4 96.8 201.7 96.8 201.7 118.4 211.5 118.4 211.5 106.6 236.8 106.6 236.8 120.2 225.1 120.2 225.1 130.1 236.8 130.1 236.8 143.7 211.5 143.7 211.5 132 201.7 132 201.7 153.6 213.4 153.6 213.4 167.2 201.7 167.2 201.7 188.7 211.5 188.7 211.5 177 225.1 177 225.1 188.7 235 188.7 235 167.2 223.2 167.2 223.2 153.6 260.3 153.6 260.3 167.2 248.6 167.2 248.6 188.7 258.4 188.7 258.4 177 272 177 272 188.7 281.9 188.7 281.9 167.2 270.2 167.2 270.2 153.6 281.9 153.6 281.9 132 272 132 272 143.7 246.7 143.7 246.7 130.1 258.4 130.1 258.4 120.2 246.7 120.2 246.7 106.6 272 106.6 272 118.4 281.9 118.4 281.9 106.6 295.5 106.6 295.5 118.4 305.3 118.4 305.3 106.6 330.7 106.6 330.7 120.2 318.9 120.2 318.9 130.1 330.7 130.1 330.7 143.7 305.3 143.7 305.3 132 295.5 132 295.5 153.6 307.2 153.6 307.2 167.2 295.5 167.2 295.5 188.7 305.3 188.7 305.3 177 318.9 177 318.9 188.7 328.8 188.7 328.8 167.2 317.1 167.2 317.1 153.6 354.1 153.6 354.1 167.2 342.4 167.2 342.4 188.7 352.2 188.7 352.2 177 365.8 177 365.8 188.7 375.7 188.7 375.7 167.2 364 167.2 364 153.6 375.7 153.6 375.7 132 365.8 132 365.8 143.7 340.5 143.7 340.5 130.1 352.2 130.1 352.2 120.2 340.5 120.2 340.5 106.6 365.8 106.6 365.8 118.4 375.7 118.4 375.7 96.8 364 96.8 364 83.2 375.7 83.2 375.7 61.6 365.8 61.6 365.8 73.3 352.2 73.3 352.2 61.6 342.4 61.6 342.4 83.2 354.1 83.2 354.1 96.8 328.8 96.8 328.8 85.1 318.9 85.1 318.9 96.8 293.6 96.8 293.6 83.2 305.3 83.2 305.3 73.3 293.6 73.3 293.6 59.7 318.9 59.7 318.9 71.5 328.8 71.5 328.8 38.2 318.9 38.2 318.9 49.9 293.6 49.9 293.6 36.3 305.3 36.3 305.3 26.4 293.6 26.4 293.6 12.8 318.9 12.8 318.9 24.6 328.8 24.6 328.8 12.8 354.1 12.8 354.1 26.4 342.4 26.4 342.4 48 352.2 48 352.2 36.3 365.8 36.3 365.8 48 375.7 48 375.7 26.4 364 26.4 364 12.8 389.3 12.8 389.3 24.6 399.2 24.6 399.2 12.8 424.5 12.8 424.5 26.4 412.8 26.4 412.8 36.3 424.5 36.3 424.5 49.9 399.2 49.9 399.2 38.2 389.3 38.2 389.3 59.7 401 59.7 401 73.3 389.3 73.3 389.3 94.9 399.2 94.9 399.2 83.2 412.8 83.2 412.8 94.9 422.6 94.9 422.6 73.3 410.9 73.3 410.9 59.7 447.9 59.7 447.9 73.3 436.2 73.3 436.2 94.9 446.1 94.9 446.1 83.2 459.7 83.2 459.7 94.9 469.5 94.9 469.5 73.3 457.8 73.3 457.8 59.7 469.5 59.7 469.5 38.2 459.7 38.2 459.7 49.9 434.3 49.9 434.3 36.3 446.1 36.3 446.1 26.4 434.3 26.4 434.3 12.8 459.7 12.8 459.7 24.6 469.5 24.6 469.5 12.8 494.8 12.8 494.8 26.4 483.1 26.4 483.1 48 493 48 493 36.3 506.6 36.3 506.6 48 516.4 48 516.4 26.4 504.7 26.4 504.7 12.8 530 12.8 530 24.6 539.9 24.6 539.9 12.8 565.2 12.8 565.2 26.4 553.5 26.4 553.5 36.3 565.2 36.3 565.2 49.9 539.9 49.9 539.9 38.2 530 38.2 530 71.5 539.9 71.5 539.9 59.7 565.2 59.7 565.2 73.3 553.5 73.3 553.5 83.2 565.2 83.2 565.2 96.8 539.9 96.8 539.9 85.1 530 85.1 530 96.8 504.7 96.8 504.7 83.2 516.4 83.2 516.4 61.6 506.6 61.6 506.6 73.3 493 73.3 493 61.6 483.1 61.6 483.1 83.2 494.8 83.2 494.8 96.8 483.1 96.8 483.1 106.6 494.8 106.6 494.8 120.2 483.1 120.2 483.1 141.8 493 141.8 493 130.1 506.6 130.1 506.6 141.8 516.4 141.8 516.4 120.2 504.7 120.2 504.7 106.6 530 106.6 530 118.4 539.9 118.4 539.9 106.6 565.2 106.6 565.2 120.2 553.5 120.2 553.5 130.1 565.2 130.1 565.2 143.7 539.9 143.7 539.9 132 530 132 530 165.3 539.9 165.3 539.9 153.6 565.2 153.6 565.2 167.2 553.5 167.2 553.5 177 565.2 177 565.2 190.6 539.9 190.6 539.9 178.9 530 178.9 530 190.6 504.7 190.6 504.7 177 516.4 177 516.4 155.4 506.6 155.4 506.6 167.2 493 167.2 493 155.4 483.1 155.4 483.1 177 494.8 177 494.8 190.6 469.5 190.6 469.5 178.9 459.7 178.9 459.7 190.6 434.3 190.6 434.3 177 446.1 177 446.1 167.2 434.3 167.2 434.3 153.6 459.7 153.6 459.7 165.3 469.5 165.3 469.5 143.7 457.8 143.7 457.8 130.1 469.5 130.1 469.5 108.5 459.7 108.5 459.7 120.2 446.1 120.2 446.1 108.5 436.2 108.5 436.2 130.1 447.9 130.1 447.9 143.7 410.9 143.7 410.9 130.1 422.6 130.1 422.6 108.5 412.8 108.5 412.8 120.2 399.2 120.2 399.2 108.5 389.3 108.5 389.3 130.1 401 130.1 401 143.7 389.3 143.7 389.3 165.3 399.2 165.3 399.2 153.6 424.5 153.6 424.5 167.2 412.8 167.2 412.8 177 424.5 177 424.5 190.6 399.2 190.6 399.2 178.9 389.3 178.9 389.3 200.5 401 200.5 401 214.1 389.3 214.1 389.3 235.6 399.2 235.6 399.2 223.9 412.8 223.9 412.8 235.6 422.6 235.6 422.6 214.1 410.9 214.1 410.9 200.5 436.2 200.5 436.2 212.2 446.1 212.2 446.1 200.5 471.4 200.5 471.4 214.1 459.7 214.1 459.7 223.9 471.4 223.9 471.4 237.5 446.1 237.5 446.1 225.8 436.2 225.8 436.2 259.1 446.1 259.1 446.1 247.4 471.4 247.4 471.4 261 459.7 261 459.7 270.8 471.4 270.8 471.4 284.4 446.1 284.4 446.1 272.7 436.2 272.7 436.2 284.4 410.9 284.4 410.9 270.8 422.6 270.8 422.6 249.2 412.8 249.2 412.8 261 399.2 261 399.2 249.2 389.3 249.2 389.3 270.8 401 270.8 401 284.4 389.3 284.4 389.3 306 399.2 306 399.2 294.3 424.5 294.3 424.5 307.9 412.8 307.9 412.8 317.7 424.5 317.7 424.5 331.3 399.2 331.3 399.2 319.6 389.3 319.6 389.3 341.2 401 341.2 401 354.8 389.3 354.8 389.3 376.4 399.2 376.4 399.2 364.6 412.8 364.6 412.8 376.4 422.6 376.4 422.6 354.8 410.9 354.8 410.9 341.2 447.9 341.2 447.9 354.8 436.2 354.8 436.2 376.4 446.1 376.4 446.1 364.6 459.7 364.6 459.7 376.4 469.5 376.4 469.5 354.8 457.8 354.8 457.8 341.2 469.5 341.2 469.5 319.6 459.7 319.6 459.7 331.3 434.3 331.3 434.3 317.7 446.1 317.7 446.1 307.9 434.3 307.9 434.3 294.3 459.7 294.3 459.7 306 469.5 306 469.5 294.3 483.1 294.3 483.1 306 493 306 493 294.3 518.3 294.3 518.3 307.9 506.6 307.9 506.6 317.7 518.3 317.7 518.3 331.3 493 331.3 493 319.6 483.1 319.6 483.1 341.2 494.8 341.2 494.8 354.8 483.1 354.8 483.1 376.4 493 376.4 493 364.6 506.6 364.6 506.6 376.4 516.4 376.4 516.4 354.8 504.7 354.8 504.7 341.2 541.8 341.2 541.8 354.8 530 354.8 530 376.4 539.9 376.4 539.9 364.6 553.5 364.6 553.5 376.4 563.3 376.4 563.3 354.8 551.6 354.8 551.6 341.2 563.3 341.2 563.3 319.6 553.5 319.6 553.5 331.3 528.1 331.3 528.1 317.7 539.9 317.7 539.9 307.9 528.1 307.9 528.1 294.3 553.5 294.3 553.5 306 563.3 306 563.3 284.4 551.6 284.4 551.6 270.8 563.3 270.8 563.3 249.2 553.5 249.2 553.5 261 539.9 261 539.9 249.2 530 249.2 530 270.8 541.8 270.8 541.8 284.4 516.4 284.4 516.4 272.7 506.6 272.7 506.6 284.4 481.2 284.4 481.2 270.8 493 270.8 493 261 481.2 261 481.2 247.4 506.6 247.4 506.6 259.1 516.4 259.1 516.4 225.8 506.6 225.8 506.6 237.5 481.2 237.5 481.2 223.9 493 223.9 493 214.1 481.2 214.1 481.2 200.5 506.6 200.5 506.6 212.2 516.4 212.2 516.4 200.5 541.8 200.5 541.8 214.1 530 214.1 530 235.6 539.9 235.6 539.9 223.9 553.5 223.9 553.5 235.6 563.3 235.6 563.3 214.1 551.6 214.1 551.6 200.5 588.7 200.5 588.7 214.1 576.9 214.1 576.9 235.6 586.8 235.6 586.8 223.9 600.4 223.9 600.4 235.6 610.2 235.6 610.2 214.1 598.5 214.1 598.5 200.5 623.8 200.5 623.8 212.2 633.7 212.2 633.7 200.5 659 200.5 659 214.1 647.3 214.1 647.3 223.9 659 223.9 659 237.5 633.7 237.5 633.7 225.8 623.8 225.8 623.8 259.1 633.7 259.1 633.7 247.4 659 247.4 659 261 647.3 261 647.3 270.8 659 270.8 659 284.4 633.7 284.4 633.7 272.7 623.8 272.7 623.8 284.4 598.5 284.4 598.5 270.8 610.2 270.8 610.2 249.2 600.4 249.2 600.4 261 586.8 261 586.8 249.2 576.9 249.2 576.9 270.8 588.7 270.8 588.7 284.4 576.9 284.4 576.9 306 586.8 306 586.8 294.3 612.1 294.3 612.1 307.9 600.4 307.9 600.4 317.7 612.1 317.7 612.1 331.3 586.8 331.3 586.8 319.6 576.9 319.6 576.9 341.2 588.7 341.2 588.7 354.8 576.9 354.8 576.9 376.4 586.8 376.4 586.8 364.6 600.4 364.6 600.4 376.4 610.2 376.4 610.2 354.8 598.5 354.8 598.5 341.2 635.6 341.2 635.6 354.8 623.8 354.8 623.8 376.4 633.7 376.4 633.7 364.6 647.3 364.6 647.3 376.4 657.1 376.4 657.1 354.8 645.4 354.8 645.4 341.2 657.1 341.2 657.1 319.6 647.3 319.6 647.3 331.3 622 331.3 622 317.7 633.7 317.7 633.7 307.9 622 307.9 622 294.3 647.3 294.3 647.3 306 657.1 306 657.1 294.3 670.8 294.3 670.8 306 680.6 306 680.6 294.3 705.9 294.3 705.9 307.9 694.2 307.9 694.2 317.7 705.9 317.7 705.9 331.3 680.6 331.3 680.6 319.6 670.8 319.6 670.8 341.2 682.5 341.2 682.5 354.8 670.8 354.8 670.8 376.4 680.6 376.4 680.6 364.6 694.2 364.6 694.2 376.4 704.1 376.4 704.1 354.8 692.3 354.8 692.3 341.2 729.4 341.2 729.4 354.8 717.7 354.8 717.7 376.4 727.5 376.4 727.5 364.6 741.1 364.6 741.1 376.4 751 376.4 751 354.8 739.2 354.8 739.2 341.2 751 341.2 751 319.6 741.1 319.6 741.1 331.3 715.8 331.3 715.8 317.7 727.5 317.7 727.5 307.9 715.8 307.9 715.8 294.3 741.1 294.3 741.1 306 751 306 751 284.4 739.2 284.4 739.2 270.8 751 270.8 751 249.2 741.1 249.2 741.1 261 727.5 261 727.5 249.2 717.7 249.2 717.7 270.8 729.4 270.8 729.4 284.4 704.1 284.4 704.1 272.7 694.2 272.7 694.2 284.4 668.9 284.4 668.9 270.8 680.6 270.8 680.6 261 668.9 261 668.9 247.4 694.2 247.4 694.2 259.1 704.1 259.1 704.1 225.8 694.2 225.8 694.2 237.5 668.9 237.5 668.9 223.9 680.6 223.9 680.6 214.1 668.9 214.1 668.9 200.5 694.2 200.5 694.2 212.2 704.1 212.2 704.1 200.5 729.4 200.5 729.4 214.1 717.7 214.1 717.7 235.6 727.5 235.6 727.5 223.9 741.1 223.9 741.1 235.6 751 235.6 751 214.1 739.2 214.1 739.2 200.5 751 200.5 751 178.9 741.1 178.9 741.1 190.6 715.8 190.6 715.8 177 727.5 177 727.5 167.2 715.8 167.2 715.8 153.6 741.1 153.6 741.1 165.3 751 165.3 751 143.7 739.2 143.7 739.2 130.1 751 130.1 751 108.5 741.1 108.5 741.1 120.2 727.5 120.2 727.5 108.5 717.7 108.5 717.7 130.1 729.4 130.1 729.4 143.7 692.3 143.7 692.3 130.1 704.1 130.1 704.1 108.5 694.2 108.5 694.2 120.2 680.6 120.2 680.6 108.5 670.8 108.5 670.8 130.1 682.5 130.1 682.5 143.7 670.8 143.7 670.8 165.3 680.6 165.3 680.6 153.6 705.9 153.6 705.9 167.2 694.2 167.2 694.2 177 705.9 177 705.9 190.6 680.6 190.6 680.6 178.9 670.8 178.9 670.8 190.6 645.4 190.6 645.4 177 657.1 177 657.1 155.4 647.3 155.4 647.3 167.2 633.7 167.2 633.7 155.4 623.8 155.4 623.8 177 635.6 177 635.6 190.6 610.2 190.6 610.2 178.9 600.4 178.9 600.4 190.6 575.1 190.6 575.1 177 586.8 177 586.8 167.2 575.1 167.2 575.1 153.6 600.4 153.6 600.4 165.3 610.2 165.3 610.2 132 600.4 132 600.4 143.7 575.1 143.7 575.1 130.1 586.8 130.1 586.8 120.2 575.1 120.2 575.1 106.6 600.4 106.6 600.4 118.4 610.2 118.4 610.2 106.6 635.6 106.6 635.6 120.2 623.8 120.2 623.8 141.8 633.7 141.8 633.7 130.1 647.3 130.1 647.3 141.8 657.1 141.8 657.1 120.2 645.4 120.2 645.4 106.6 657.1 106.6 657.1 96.8 645.4 96.8 645.4 83.2 657.1 83.2 657.1 61.6 647.3 61.6 647.3 73.3 633.7 73.3 633.7 61.6 623.8 61.6 623.8 83.2 635.6 83.2 635.6 96.8 610.2 96.8 610.2 85.1 600.4 85.1 600.4 96.8 575.1 96.8 575.1 83.2 586.8 83.2 586.8 73.3 575.1 73.3 575.1 59.7 600.4 59.7 600.4 71.5 610.2 71.5 610.2 38.2 600.4 38.2 600.4 49.9 575.1 49.9 575.1 36.3 586.8 36.3 586.8 26.4 575.1 26.4 575.1 12.8 600.4 12.8 600.4 24.6 610.2 24.6 610.2 12.8 635.6 12.8 635.6 26.4 623.8 26.4 623.8 48 633.7 48 633.7 36.3 647.3 36.3 647.3 48 657.1 48 657.1 26.4 645.4 26.4 645.4 12.8 670.8 12.8 670.8 24.6 680.6 24.6 680.6 12.8 705.9 12.8 705.9 26.4 694.2 26.4 694.2 36.3 705.9 36.3 705.9 49.9 680.6 49.9 680.6 38.2 670.8 38.2 670.8 59.7 682.5 59.7 682.5 73.3 670.8 73.3 670.8 94.9 680.6 94.9 680.6 83.2 694.2 83.2 694.2 94.9 704.1 94.9 704.1 73.3 692.3 73.3 692.3 59.7 729.4 59.7 729.4 73.3 717.7 73.3 717.7 94.9 727.5 94.9 727.5 83.2 741.1 83.2 741.1 94.9 751 94.9 751 73.3 739.2 73.3 739.2 59.7 751 59.7 751 38.2 741.1 38.2 741.1 49.9 715.8 49.9 715.8 36.3 727.5 36.3 727.5 26.4 715.8 26.4 715.8 12.8 741.1 12.8 741.1 24.6 751 24.6 751 13.8 752.8 13.8 752.8 26.4 739.2 26.4 739.2 14.7 717.7 14.7 717.7 24.6 729.4 24.6 729.4 38.2 717.7 38.2 717.7 48 739.2 48 739.2 36.3 752.8 36.3 752.8 61.6 741.1 61.6 741.1 71.5 752.8 71.5 752.8 96.8 739.2 96.8 739.2 85.1 729.4 85.1 729.4 96.8 715.8 96.8 715.8 71.5 727.5 71.5 727.5 61.6 694.2 61.6 694.2 71.5 705.9 71.5 705.9 96.8 692.3 96.8 692.3 85.1 682.5 85.1 682.5 96.8 668.9 96.8 668.9 71.5 680.6 71.5 680.6 61.6 668.9 61.6 668.9 36.3 682.5 36.3 682.5 48 704.1 48 704.1 38.2 692.3 38.2 692.3 24.6 704.1 24.6 704.1 14.7 682.5 14.7 682.5 26.4 668.9 26.4 668.9 14.7 647.3 14.7 647.3 24.6 659 24.6 659 49.9 645.4 49.9 645.4 38.2 635.6 38.2 635.6 49.9 622 49.9 622 24.6 633.7 24.6 633.7 14.7 612.1 14.7 612.1 26.4 598.5 26.4 598.5 14.7 576.9 14.7 576.9 24.6 588.7 24.6 588.7 38.2 576.9 38.2 576.9 48 598.5 48 598.5 36.3 612.1 36.3 612.1 73.3 598.5 73.3 598.5 61.6 576.9 61.6 576.9 71.5 588.7 71.5 588.7 85.1 576.9 85.1 576.9 94.9 598.5 94.9 598.5 83.2 612.1 83.2 612.1 94.9 633.7 94.9 633.7 85.1 622 85.1 622 59.7 635.6 59.7 635.6 71.5 645.4 71.5 645.4 59.7 659 59.7 659 85.1 647.3 85.1 647.3 94.9 659 94.9 659 108.5 647.3 108.5 647.3 118.4 659 118.4 659 143.7 645.4 143.7 645.4 132 635.6 132 635.6 143.7 622 143.7 622 118.4 633.7 118.4 633.7 108.5 612.1 108.5 612.1 120.2 598.5 120.2 598.5 108.5 576.9 108.5 576.9 118.4 588.7 118.4 588.7 132 576.9 132 576.9 141.8 598.5 141.8 598.5 130.1 612.1 130.1 612.1 167.2 598.5 167.2 598.5 155.4 576.9 155.4 576.9 165.3 588.7 165.3 588.7 178.9 576.9 178.9 576.9 188.7 598.5 188.7 598.5 177 612.1 177 612.1 188.7 633.7 188.7 633.7 178.9 622 178.9 622 153.6 635.6 153.6 635.6 165.3 645.4 165.3 645.4 153.6 659 153.6 659 178.9 647.3 178.9 647.3 188.7 668.9 188.7 668.9 177 682.5 177 682.5 188.7 704.1 188.7 704.1 178.9 692.3 178.9 692.3 165.3 704.1 165.3 704.1 155.4 682.5 155.4 682.5 167.2 668.9 167.2 668.9 141.8 680.6 141.8 680.6 132 668.9 132 668.9 106.6 682.5 106.6 682.5 118.4 692.3 118.4 692.3 106.6 705.9 106.6 705.9 132 694.2 132 694.2 141.8 727.5 141.8 727.5 132 715.8 132 715.8 106.6 729.4 106.6 729.4 118.4 739.2 118.4 739.2 106.6 752.8 106.6 752.8 132 741.1 132 741.1 141.8 752.8 141.8 752.8 167.2 739.2 167.2 739.2 155.4 717.7 155.4 717.7 165.3 729.4 165.3 729.4 178.9 717.7 178.9 717.7 188.7 739.2 188.7 739.2 177 752.8 177 752.8 202.3 741.1 202.3 741.1 212.2 752.8 212.2 752.8 237.5 739.2 237.5 739.2 225.8 729.4 225.8 729.4 237.5 715.8 237.5 715.8 212.2 727.5 212.2 727.5 202.3 705.9 202.3 705.9 214.1 692.3 214.1 692.3 202.3 670.8 202.3 670.8 212.2 682.5 212.2 682.5 225.8 670.8 225.8 670.8 235.6 692.3 235.6 692.3 223.9 705.9 223.9 705.9 261 692.3 261 692.3 249.2 670.8 249.2 670.8 259.1 682.5 259.1 682.5 272.7 670.8 272.7 670.8 282.5 692.3 282.5 692.3 270.8 705.9 270.8 705.9 282.5 727.5 282.5 727.5 272.7 715.8 272.7 715.8 247.4 729.4 247.4 729.4 259.1 739.2 259.1 739.2 247.4 752.8 247.4 752.8 272.7 741.1 272.7 741.1 282.5 752.8 282.5 752.8 307.9 739.2 307.9 739.2 296.2 717.7 296.2 717.7 306 729.4 306 729.4 319.6 717.7 319.6 717.7 329.5 739.2 329.5 739.2 317.7 752.8 317.7 752.8 343.1 741.1 343.1 741.1 352.9 752.8 352.9 752.8 378.2 739.2 378.2 739.2 366.5 729.4 366.5 729.4 378.2 715.8 378.2 715.8 352.9 727.5 352.9 727.5 343.1 694.2 343.1 694.2 352.9 705.9 352.9 705.9 378.2 692.3 378.2 692.3 366.5 682.5 366.5 682.5 378.2 668.9 378.2 668.9 352.9 680.6 352.9 680.6 343.1 668.9 343.1 668.9 317.7 682.5 317.7 682.5 329.5 704.1 329.5 704.1 319.6 692.3 319.6 692.3 306 704.1 306 704.1 296.2 682.5 296.2 682.5 307.9 668.9 307.9 668.9 296.2 659 296.2 659 307.9 645.4 307.9 645.4 296.2 623.8 296.2 623.8 306 635.6 306 635.6 319.6 623.8 319.6 623.8 329.5 645.4 329.5 645.4 317.7 659 317.7 659 343.1 647.3 343.1 647.3 352.9 659 352.9 659 378.2 645.4 378.2 645.4 366.5 635.6 366.5 635.6 378.2 622 378.2 622 352.9 633.7 352.9 633.7 343.1 600.4 343.1 600.4 352.9 612.1 352.9 612.1 378.2 598.5 378.2 598.5 366.5 588.7 366.5 588.7 378.2 575.1 378.2 575.1 352.9 586.8 352.9 586.8 343.1 575.1 343.1 575.1 317.7 588.7 317.7 588.7 329.5 610.2 329.5 610.2 319.6 598.5 319.6 598.5 306 610.2 306 610.2 296.2 588.7 296.2 588.7 307.9 575.1 307.9 575.1 282.5 586.8 282.5 586.8 272.7 575.1 272.7 575.1 247.4 588.7 247.4 588.7 259.1 598.5 259.1 598.5 247.4 612.1 247.4 612.1 272.7 600.4 272.7 600.4 282.5 622 282.5 622 270.8 635.6 270.8 635.6 282.5 657.1 282.5 657.1 272.7 645.4 272.7 645.4 259.1 657.1 259.1 657.1 249.2 635.6 249.2 635.6 261 622 261 622 223.9 635.6 223.9 635.6 235.6 657.1 235.6 657.1 225.8 645.4 225.8 645.4 212.2 657.1 212.2 657.1 202.3 635.6 202.3 635.6 214.1 622 214.1 622 202.3 600.4 202.3 600.4 212.2 612.1 212.2 612.1 237.5 598.5 237.5 598.5 225.8 588.7 225.8 588.7 237.5 575.1 237.5 575.1 212.2 586.8 212.2 586.8 202.3 553.5 202.3 553.5 212.2 565.2 212.2 565.2 237.5 551.6 237.5 551.6 225.8 541.8 225.8 541.8 237.5 528.1 237.5 528.1 212.2 539.9 212.2 539.9 202.3 518.3 202.3 518.3 214.1 504.7 214.1 504.7 202.3 483.1 202.3 483.1 212.2 494.8 212.2 494.8 225.8 483.1 225.8 483.1 235.6 504.7 235.6 504.7 223.9 518.3 223.9 518.3 261 504.7 261 504.7 249.2 483.1 249.2 483.1 259.1 494.8 259.1 494.8 272.7 483.1 272.7 483.1 282.5 504.7 282.5 504.7 270.8 518.3 270.8 518.3 282.5 539.9 282.5 539.9 272.7 528.1 272.7 528.1 247.4 541.8 247.4 541.8 259.1 551.6 259.1 551.6 247.4 565.2 247.4 565.2 272.7 553.5 272.7 553.5 282.5 565.2 282.5 565.2 307.9 551.6 307.9 551.6 296.2 530 296.2 530 306 541.8 306 541.8 319.6 530 319.6 530 329.5 551.6 329.5 551.6 317.7 565.2 317.7 565.2 343.1 553.5 343.1 553.5 352.9 565.2 352.9 565.2 378.2 551.6 378.2 551.6 366.5 541.8 366.5 541.8 378.2 528.1 378.2 528.1 352.9 539.9 352.9 539.9 343.1 506.6 343.1 506.6 352.9 518.3 352.9 518.3 378.2 504.7 378.2 504.7 366.5 494.8 366.5 494.8 378.2 481.2 378.2 481.2 352.9 493 352.9 493 343.1 481.2 343.1 481.2 317.7 494.8 317.7 494.8 329.5 516.4 329.5 516.4 319.6 504.7 319.6 504.7 306 516.4 306 516.4 296.2 494.8 296.2 494.8 307.9 481.2 307.9 481.2 296.2 471.4 296.2 471.4 307.9 457.8 307.9 457.8 296.2 436.2 296.2 436.2 306 447.9 306 447.9 319.6 436.2 319.6 436.2 329.5 457.8 329.5 457.8 317.7 471.4 317.7 471.4 343.1 459.7 343.1 459.7 352.9 471.4 352.9 471.4 378.2 457.8 378.2 457.8 366.5 447.9 366.5 447.9 378.2 434.3 378.2 434.3 352.9 446.1 352.9 446.1 343.1 412.8 343.1 412.8 352.9 424.5 352.9 424.5 378.2 410.9 378.2 410.9 366.5 401 366.5 401 378.2 387.4 378.2 387.4 352.9 399.2 352.9 399.2 343.1 387.4 343.1 387.4 317.7 401 317.7 401 329.5 422.6 329.5 422.6 319.6 410.9 319.6 410.9 306 422.6 306 422.6 296.2 401 296.2 401 307.9 387.4 307.9 387.4 282.5 399.2 282.5 399.2 272.7 387.4 272.7 387.4 247.4 401 247.4 401 259.1 410.9 259.1 410.9 247.4 424.5 247.4 424.5 272.7 412.8 272.7 412.8 282.5 434.3 282.5 434.3 270.8 447.9 270.8 447.9 282.5 469.5 282.5 469.5 272.7 457.8 272.7 457.8 259.1 469.5 259.1 469.5 249.2 447.9 249.2 447.9 261 434.3 261 434.3 223.9 447.9 223.9 447.9 235.6 469.5 235.6 469.5 225.8 457.8 225.8 457.8 212.2 469.5 212.2 469.5 202.3 447.9 202.3 447.9 214.1 434.3 214.1 434.3 202.3 412.8 202.3 412.8 212.2 424.5 212.2 424.5 237.5 410.9 237.5 410.9 225.8 401 225.8 401 237.5 387.4 237.5 387.4 212.2 399.2 212.2 399.2 202.3 387.4 202.3 387.4 177 401 177 401 188.7 422.6 188.7 422.6 178.9 410.9 178.9 410.9 165.3 422.6 165.3 422.6 155.4 401 155.4 401 167.2 387.4 167.2 387.4 141.8 399.2 141.8 399.2 132 387.4 132 387.4 106.6 401 106.6 401 118.4 410.9 118.4 410.9 106.6 424.5 106.6 424.5 132 412.8 132 412.8 141.8 446.1 141.8 446.1 132 434.3 132 434.3 106.6 447.9 106.6 447.9 118.4 457.8 118.4 457.8 106.6 471.4 106.6 471.4 132 459.7 132 459.7 141.8 471.4 141.8 471.4 167.2 457.8 167.2 457.8 155.4 436.2 155.4 436.2 165.3 447.9 165.3 447.9 178.9 436.2 178.9 436.2 188.7 457.8 188.7 457.8 177 471.4 177 471.4 188.7 493 188.7 493 178.9 481.2 178.9 481.2 153.6 494.8 153.6 494.8 165.3 504.7 165.3 504.7 153.6 518.3 153.6 518.3 178.9 506.6 178.9 506.6 188.7 528.1 188.7 528.1 177 541.8 177 541.8 188.7 563.3 188.7 563.3 178.9 551.6 178.9 551.6 165.3 563.3 165.3 563.3 155.4 541.8 155.4 541.8 167.2 528.1 167.2 528.1 130.1 541.8 130.1 541.8 141.8 563.3 141.8 563.3 132 551.6 132 551.6 118.4 563.3 118.4 563.3 108.5 541.8 108.5 541.8 120.2 528.1 120.2 528.1 108.5 506.6 108.5 506.6 118.4 518.3 118.4 518.3 143.7 504.7 143.7 504.7 132 494.8 132 494.8 143.7 481.2 143.7 481.2 118.4 493 118.4 493 108.5 481.2 108.5 481.2 94.9 493 94.9 493 85.1 481.2 85.1 481.2 59.7 494.8 59.7 494.8 71.5 504.7 71.5 504.7 59.7 518.3 59.7 518.3 85.1 506.6 85.1 506.6 94.9 528.1 94.9 528.1 83.2 541.8 83.2 541.8 94.9 563.3 94.9 563.3 85.1 551.6 85.1 551.6 71.5 563.3 71.5 563.3 61.6 541.8 61.6 541.8 73.3 528.1 73.3 528.1 36.3 541.8 36.3 541.8 48 563.3 48 563.3 38.2 551.6 38.2 551.6 24.6 563.3 24.6 563.3 14.7 541.8 14.7 541.8 26.4 528.1 26.4 528.1 14.7 506.6 14.7 506.6 24.6 518.3 24.6 518.3 49.9 504.7 49.9 504.7 38.2 494.8 38.2 494.8 49.9 481.2 49.9 481.2 24.6 493 24.6 493 14.7 471.4 14.7 471.4 26.4 457.8 26.4 457.8 14.7 436.2 14.7 436.2 24.6 447.9 24.6 447.9 38.2 436.2 38.2 436.2 48 457.8 48 457.8 36.3 471.4 36.3 471.4 61.6 459.7 61.6 459.7 71.5 471.4 71.5 471.4 96.8 457.8 96.8 457.8 85.1 447.9 85.1 447.9 96.8 434.3 96.8 434.3 71.5 446.1 71.5 446.1 61.6 412.8 61.6 412.8 71.5 424.5 71.5 424.5 96.8 410.9 96.8 410.9 85.1 401 85.1 401 96.8 387.4 96.8 387.4 71.5 399.2 71.5 399.2 61.6 387.4 61.6 387.4 36.3 401 36.3 401 48 422.6 48 422.6 38.2 410.9 38.2 410.9 24.6 422.6 24.6 422.6 14.7 401 14.7 401 26.4 387.4 26.4 387.4 14.7 365.8 14.7 365.8 24.6 377.6 24.6 377.6 49.9 364 49.9 364 38.2 354.1 38.2 354.1 49.9 340.5 49.9 340.5 24.6 352.2 24.6 352.2 14.7 330.7 14.7 330.7 26.4 317.1 26.4 317.1 14.7 295.5 14.7 295.5 24.6 307.2 24.6 307.2 38.2 295.5 38.2 295.5 48 317.1 48 317.1 36.3 330.7 36.3 330.7 73.3 317.1 73.3 317.1 61.6 295.5 61.6 295.5 71.5 307.2 71.5 307.2 85.1 295.5 85.1 295.5 94.9 317.1 94.9 317.1 83.2 330.7 83.2 330.7 94.9 352.2 94.9 352.2 85.1 340.5 85.1 340.5 59.7 354.1 59.7 354.1 71.5 364 71.5 364 59.7 377.6 59.7 377.6 85.1 365.8 85.1 365.8 94.9 377.6 94.9 377.6 120.2 364 120.2 364 108.5 342.4 108.5 342.4 118.4 354.1 118.4 354.1 132 342.4 132 342.4 141.8 364 141.8 364 130.1 377.6 130.1 377.6 155.4 365.8 155.4 365.8 165.3 377.6 165.3 377.6 190.6 364 190.6 364 178.9 354.1 178.9 354.1 190.6 340.5 190.6 340.5 165.3 352.2 165.3 352.2 155.4 318.9 155.4 318.9 165.3 330.7 165.3 330.7 190.6 317.1 190.6 317.1 178.9 307.2 178.9 307.2 190.6 293.6 190.6 293.6 165.3 305.3 165.3 305.3 155.4 293.6 155.4 293.6 130.1 307.2 130.1 307.2 141.8 328.8 141.8 328.8 132 317.1 132 317.1 118.4 328.8 118.4 328.8 108.5 307.2 108.5 307.2 120.2 293.6 120.2 293.6 108.5 283.8 108.5 283.8 120.2 270.2 120.2 270.2 108.5 248.6 108.5 248.6 118.4 260.3 118.4 260.3 132 248.6 132 248.6 141.8 270.2 141.8 270.2 130.1 283.8 130.1 283.8 155.4 272 155.4 272 165.3 283.8 165.3 283.8 190.6 270.2 190.6 270.2 178.9 260.3 178.9 260.3 190.6 246.7 190.6 246.7 165.3 258.4 165.3 258.4 155.4 225.1 155.4 225.1 165.3 236.8 165.3 236.8 190.6 223.2 190.6 223.2 178.9 213.4 178.9 213.4 190.6 199.8 190.6 199.8 165.3 211.5 165.3 211.5 155.4 199.8 155.4 199.8 130.1 213.4 130.1 213.4 141.8 235 141.8 235 132 223.2 132 223.2 118.4 235 118.4 235 108.5 213.4 108.5 213.4 120.2 199.8 120.2 199.8 94.9 211.5 94.9 211.5 85.1 199.8 85.1 199.8 59.7 213.4 59.7 213.4 71.5 223.2 71.5 223.2 59.7 236.8 59.7 236.8 85.1 225.1 85.1 225.1 94.9 246.7 94.9 246.7 83.2 260.3 83.2 260.3 94.9 281.9 94.9 281.9 85.1 270.2 85.1 270.2 71.5 281.9 71.5 281.9 61.6 260.3 61.6 260.3 73.3 246.7 73.3 246.7 36.3 260.3 36.3 260.3 48 281.9 48 281.9 38.2 270.2 38.2 270.2 24.6 281.9 24.6 281.9 14.7 260.3 14.7 260.3 26.4 246.7 26.4 246.7 14.7 225.1 14.7 225.1 24.6 236.8 24.6 236.8 49.9 223.2 49.9 223.2 38.2 213.4 38.2 213.4 49.9 199.8 49.9 199.8 24.6 211.5 24.6 211.5 14.7 189.9 14.7 189.9 26.4 176.3 26.4 176.3 14.7 154.8 14.7 154.8 24.6 166.5 24.6 166.5 38.2 154.8 38.2 154.8 48 176.3 48 176.3 36.3 189.9 36.3 189.9 61.6 178.2 61.6 178.2 71.5 189.9 71.5 189.9 96.8 176.3 96.8 176.3 85.1 166.5 85.1 166.5 96.8 152.9 96.8 152.9 71.5 164.6 71.5 164.6 61.6 131.3 61.6 131.3 71.5 143 71.5 143 96.8 129.4 96.8 129.4 85.1 119.6 85.1 119.6 96.8 106 96.8 106 71.5 117.7 71.5 117.7 61.6 106 61.6 106 36.3 119.6 36.3 119.6 48 141.2 48 141.2 38.2 129.4 38.2 129.4 24.6 141.2 24.6 141.2 14.7 119.6 14.7 119.6 26.4 106 26.4 106 14.7 84.4 14.7 84.4 24.6 96.1 24.6 96.1 49.9 82.5 49.9 82.5 38.2 72.7 38.2 72.7 49.9 59.1 49.9 59.1 24.6 70.8 24.6 70.8 14.7 49.2 14.7 49.2 26.4 35.6 26.4 35.6 14.7 14 14.7 14 24.6 25.8 24.6 25.8 38.2 14 38.2 14 48 35.6 48 35.6 36.3 49.2 36.3 49.2 73.3 35.6 73.3 35.6 61.6 14 61.6 14 71.5 25.8 71.5 25.8 85.1 14 85.1 14 94.9 35.6 94.9 35.6 83.2 49.2 83.2 49.2 94.9 70.8 94.9 70.8 85.1 59.1 85.1 59.1 59.7 72.7 59.7 72.7 71.5 82.5 71.5 82.5 59.7 96.1 59.7 96.1 85.1 84.4 85.1 84.4 94.9 96.1 94.9 96.1 108.5 84.4 108.5 84.4 118.4 96.1 118.4 96.1 143.7 82.5 143.7 82.5 132 72.7 132 72.7 143.7 59.1 143.7 59.1 118.4 70.8 118.4 70.8 108.5 49.2 108.5 49.2 120.2 35.6 120.2 35.6 108.5 14 108.5 14 118.4 25.8 118.4 25.8 132 14 132 14 141.8 35.6 141.8 35.6 130.1 49.2 130.1 49.2 167.2 35.6 167.2 35.6 155.4 14 155.4 14 165.3 25.8 165.3 25.8 178.9 14 178.9 14 188.7 35.6 188.7 35.6 177 49.2 177 49.2 188.7 70.8 188.7 70.8 178.9 59.1 178.9 59.1 153.6 72.7 153.6 72.7 165.3 82.5 165.3 82.5 153.6 96.1 153.6 96.1 178.9 84.4 178.9 84.4 188.7 106 188.7 106 177 119.6 177 119.6 188.7 141.2 188.7 141.2 178.9 129.4 178.9 129.4 165.3 141.2 165.3 141.2 155.4 119.6 155.4 119.6 167.2 106 167.2 106 141.8 117.7 141.8 117.7 132 106 132 106 106.6 119.6 106.6 119.6 118.4 129.4 118.4 129.4 106.6 143 106.6 143 132 131.3 132 131.3 141.8 164.6 141.8 164.6 132 152.9 132 152.9 106.6 166.5 106.6 166.5 118.4 176.3 118.4 176.3 106.6 189.9 106.6 189.9 132 178.2 132 178.2 141.8 189.9 141.8 189.9 167.2 176.3 167.2 176.3 155.4 154.8 155.4 154.8 165.3 166.5 165.3 166.5 178.9 154.8 178.9 154.8 188.7 176.3 188.7 176.3 177 189.9 177 189.9 214.1 176.3 214.1 176.3 202.3 154.8 202.3 154.8 212.2 166.5 212.2 166.5 225.8 154.8 225.8 154.8 235.6 176.3 235.6 176.3 223.9 189.9 223.9 189.9 249.2 178.2 249.2 178.2 259.1 189.9 259.1 189.9 284.4 176.3 284.4 176.3 272.7 166.5 272.7 166.5 284.4 152.9 284.4 152.9 259.1 164.6 259.1 164.6 249.2 131.3 249.2 131.3 259.1 143 259.1 143 284.4 129.4 284.4 129.4 272.7 119.6 272.7 119.6 284.4 106 284.4 106 259.1 117.7 259.1 117.7 249.2 106 249.2 106 223.9 119.6 223.9 119.6 235.6 141.2 235.6 141.2 225.8 129.4 225.8 129.4 212.2 141.2 212.2 141.2 202.3 119.6 202.3 119.6 214.1 106 214.1 106 202.3 84.4 202.3 84.4 212.2 96.1 212.2 96.1 237.5 82.5 237.5 82.5 225.8 72.7 225.8 72.7 237.5 59.1 237.5 59.1 212.2 70.8 212.2 70.8 202.3 49.2 202.3 49.2 214.1 35.6 214.1 35.6 202.3 14 202.3 14 212.2 25.8 212.2 25.8 225.8 14 225.8 14 235.6 35.6 235.6 35.6 223.9 49.2 223.9 49.2 261 35.6 261 35.6 249.2 14 249.2 14 259.1 25.8 259.1 25.8 272.7 14 272.7 14 282.6 35.6 282.6 35.6 270.8 49.2 270.8 49.2 282.6 70.8 282.5 70.8 272.7 59.1 272.7 59.1 247.4 72.7 247.4 72.7 259.1 82.5 259.1 82.5 247.4 96.1 247.4 96.1 272.7 84.4 272.7 84.4 282.5 96.1 282.5 96.1 296.2 84.4 296.2 84.4 306 96.1 306 96.1 331.3 82.5 331.3 82.5 319.6 72.7 319.6 72.7 331.3 59.1 331.3 59.1 306 70.8 306 70.8 296.2 49.2 296.2 49.2 307.9 35.6 307.9 35.6 296.2 14 296.2 14 306 25.8 306 25.8 319.6 14 319.6 14 329.5 35.6 329.5 35.6 317.7 49.2 317.7 49.2 354.8 35.6 354.8 35.6 343.1 14 343.1 14 352.9 25.8 352.9 25.8 366.5 14 366.5 14 376.4 35.6 376.4 35.6 364.6 49.2 364.6 49.2 376.4 70.8 376.4 70.8 366.5 59.1 366.5 59.1 341.2 72.7 341.2 72.7 352.9 82.5 352.9 82.5 341.2 96.1 341.2 96.1 366.5 84.4 366.5 84.4 376.4 106 376.4 106 364.6 119.6 364.6 119.6 376.4 141.2 376.4 141.2 366.5 129.4 366.5 129.4 352.9 141.2 352.9 141.2 343.1 119.6 343.1 119.6 354.8 106 354.8 106 329.5 117.7 329.5 117.7 319.6 106 319.6 106 294.3 119.6 294.3 119.6 306 129.4 306 129.4 294.3 143 294.3 143 319.6 131.3 319.6 131.3 329.5 164.6 329.5 164.6 319.6 152.9 319.6 152.9 294.3 166.5 294.3 166.5 306 176.3 306 176.3 294.3 189.9 294.3 189.9 319.6 178.2 319.6 178.2 329.5 189.9 329.5 189.9 354.8 176.3 354.8 176.3 343.1 154.8 343.1 154.8 352.9 166.5 352.9 166.5 366.5 154.8 366.5 154.8 376.4 176.3 376.4 176.3 364.6 189.9 364.6 189.9 376.4 211.5 376.4 211.5 366.5 199.8 366.5 199.8 341.2 213.4 341.2 213.4 352.9 223.2 352.9 223.2 341.2 236.8 341.2 236.8 366.5 225.1 366.5 225.1 376.4 246.7 376.4 246.7 364.6 260.3 364.6 260.3 376.4 281.9 376.4 281.9 366.5 270.2 366.5 270.2 352.9 281.9 352.9 281.9 343.1 260.3 343.1 260.3 354.8 246.7 354.8 246.7 317.7 260.3 317.7 260.3 329.5 281.9 329.5 281.9 319.6 270.2 319.6 270.2 306 281.9 306 281.9 296.2 260.3 296.2 260.3 307.9 246.7 307.9 246.7 296.2 225.1 296.2 225.1 306 236.8 306 236.8 331.3 223.2 331.3 223.2 319.6 213.4 319.6 213.4 331.3 199.8 331.3 199.8 306 211.5 306 211.5 296.2 199.8 296.2 199.8 270.8 213.4 270.8 213.4 282.5 235 282.5 235 272.7 223.2 272.7 223.2 259.1 235 259.1 235 249.2 213.4 249.2 213.4 261 199.8 261 199.8 235.6 211.5 235.6 211.5 225.8 199.8 225.8 199.8 200.5 213.4 200.5 213.4 212.2 223.2 212.2 223.2 200.5 236.8 200.5 236.8 225.8 225.1 225.8 225.1 235.6 258.4 235.6 258.4 225.8 246.7 225.8 246.7 200.5 260.3 200.5 260.3 212.2 270.2 212.2 270.2 200.5 283.8 200.5 283.8 225.8 272 225.8 272 235.6 283.8 235.6 283.8 261 270.2 261 270.2 249.2 248.6 249.2 248.6 259.1 260.3 259.1 260.3 272.7 248.6 272.7 248.6 282.5 270.2 282.5 270.2 270.8 283.8 270.8 283.8 282.5 293.6 282.5 293.6 270.8 307.2 270.8 307.2 282.5 328.8 282.5 328.8 272.7 317.1 272.7 317.1 259.1 328.8 259.1 328.8 249.2 307.2 249.2 307.2 261 293.6 261 293.6 235.6 305.3 235.6 305.3 225.8 293.6 225.8 293.6 200.5 307.2 200.5 307.2 212.2 317.1 212.2 317.1 200.5 330.7 200.5 330.7 225.8 318.9 225.8 318.9 235.6 352.2 235.6 352.2 225.8 340.5 225.8 340.5 200.5 354.1 200.5 354.1 212.2 364 212.2 364 200.5 377.6 200.5 377.6 225.8 365.8 225.8 365.8 235.6 377.6 235.6 377.6 261 364 261 364 249.2 342.4 249.2 342.4 259.1 354.1 259.1 354.1 272.7 342.4 272.7 342.4 282.5 364 282.5 364 270.8 377.6 270.8 377.6 296.2 365.8 296.2 365.8 306 377.6 306 377.6 331.3 364 331.3 364 319.6 354.1 319.6 354.1 331.3 340.5 331.3 340.5 306 352.2 306 352.2 296.2 330.7 296.2 330.7 307.9 317.1 307.9 317.1 296.2 295.5 296.2 295.5 306 307.2 306 307.2 319.6 295.5 319.6 295.5 329.5 317.1 329.5 317.1 317.7 330.7 317.7 330.7 354.8 317.1 354.8 317.1 343.1 295.5 343.1 295.5 352.9 307.2 352.9 307.2 366.5 295.5 366.5 295.5 376.4 317.1 376.4 317.1 364.6 330.7 364.6 330.7 376.4 352.2 376.4 352.2 366.5 340.5 366.5 340.5 341.2 354.1 341.2 354.1 352.9 364 352.9 364 341.2 377.6 341.2 377.6 366.5 365.8 366.5 365.8 376.4 377.6 376.4 377.6 390 365.8 390"/></g><path class="o" d="M111.1,338h0"/><path class="o" d="M115.8,320.7c7.5-4.1,22.6-13.7,27.2-36.3,3.7-17.7-1.1-49.3-2.9-65.5-2.8-25.4,4.7-23,3.8-33-.5-6.1-5.3-14.6-21.6-11.4-7.3,1.5-12.2,11-12.9,19-3.4,37.1-27,47.7-27,47.7-4.2,10.3-6.6,16.9-9.7,25.5h0c-1.8,5.1-3.5,9.8-4.9,14.1l-1.2,3.5-2,6.4c-3,9.2-4.5,14.6-4.5,14.6h.1v.2h0a50,50,0,0,0,8,6.9S86.1,336.7,115.8,320.7Z"/><path class="o" d="M461.4,312.7,413,436.1s-9.6-10.5,1.3-33.9c0,0-13.4,4-8.9-10.5,0,0-13.2,6.3-9.2-8.3,0,0-12.6,1.7-7.1-10,0,0-12.1,2.9-6.2-10.7L432,289.3Z"/><path class="p" d="M462.8,293.3l-37,2.4S396.2,343.5,385,359c-1.8,2.5-3.7,5.4-4.2,8.6-.6,4.8,6.6,11.8,14.2-.3,0,0,3.3,4.4,9.8-.5l-8.6,16.6,11.7-17.5c.7,2.1,2.6,5.1,7.7-.2l-10.2,26,13.8-26.2c.8,1.7,2.2,3.4,4.5,2.4l-9.4,34.3L446.8,328h0C455.2,310.3,462.8,293.3,462.8,293.3Z"/><path class="q" d="M476,202.4s45.9,37.8-25.9,91.4l-6.6,35.3s-7.8-7.9-4.7-26.8l-10.7,35.2s-8.2-14-3.1-29.4l-14,33.8a50.4,50.4,0,0,1,5.3-41.9C429.6,278.9,476,202.4,476,202.4Z"/><path class="r" d="M463.4,316.8a48.9,48.9,0,0,0,65.1-44.3c1.9-50.1,3.7-123.5-1.5-136.9-7.9-20.7-59.6-14.1-83.5,45s-36,103-36,103S431,305.3,463.4,316.8Z"/><path class="o" d="M536.8,99.2s-8.1,25.3-6.8,62.2c.6,16.5-36.2,20.1-49.7,1.8-12.2-16.4-30.7,4.9-30.7,4.9S464.3,92.9,502.8,83C533.3,75.2,536.8,99.2,536.8,99.2Z"/><path class="q" d="M472.3,221.7s19.2,15.7-18.2,70.3c-6.9,10.2-7,17.9-7,17.9-8.4-2.6-32.7-18.6-32.7-18.6Z"/><circle class="q" cx="510.2" cy="95" r="2.9"/><path class="s" d="M449,168.8s67.8,48.6-27.8,130.2l-6,50s-11.7-10.2-9.1-37l-11.7,50.2s-12.7-18.9-7-40.8L371,370s-13.1-28.4,3.5-59.1S449,168.8,449,168.8Z"/><path class="t" d="M502.5,175.1s-7.5,11,1.7,25.5-2.3,17.3,5.7,28.6,19.7,2.7,19.7,2.7,4.9-60.6-1.3-78.4C528.3,153.5,515.7,176.7,502.5,175.1Z"/><polygon class="u" points="527.3 353.1 504.7 349.7 490.4 352.5 488.7 349.4 501.6 345.1 483 306.9 490.3 306.9 508.1 344.6 531.6 347.3 527.3 353.1"/><path class="v" d="M530.9,131.4s-1.6,27.1-.9,30c0,0,1.9,12.7-19.8,14s8.9-9.2,11.7-26.4C524.1,134.7,526.4,132.1,530.9,131.4Z"/><path class="q" d="M387.4,321.4s10.8-42.3,27-60.4c0,0-30.2,58.4-20,101.2C394.4,362.2,382.2,343.5,387.4,321.4Z"/><path class="q" d="M415.2,349s-12.1-8.9-9.1-37,15.7-47.2,15.7-47.2S405.7,316.9,415.2,349Z"/><path class="q" d="M371,370s-12.4-29,1.9-56l17.9-33.9S361.3,338.4,371,370Z"/><path class="w" d="M545.1,112.8a75.7,75.7,0,0,1,18.4.9c5.2,1,9.4,3.1,12.4,6.4s4.8,8,5.2,14.4a37.8,37.8,0,0,1-.6,9.7,29,29,0,0,1-4,9.5,92.4,92.4,0,0,1-9.2,12l-22.8,25.4a39.2,39.2,0,0,1,6.6-1.5,52.1,52.1,0,0,1,7-.6l28.5-1.5,1.2,22.6-73,4-.7-13.6a15.5,15.5,0,0,1,.5-5.8,17.2,17.2,0,0,1,2.5-5.1l21-23.9a122.2,122.2,0,0,0,12-15.7c2.9-4.5,4.2-8.1,4-10.8s-.5-2.5-1.3-3a6.7,6.7,0,0,0-3.6-1.1,30.6,30.6,0,0,0-6.1,0l-9.5.6-9.5.7-11.7,1.1L510.3,118c4.8-1.2,9.1-2.1,13-2.8s7.6-1.2,11.2-1.6Z"/><path class="u" d="M533.2,90.6A18,18,0,0,1,544,101.2c3.7,9.1-2.4,14.7-2.4,14.7h0s1.1-3.6-5.2-3.8c-3.5-.1-12.7.5-12.7.5s1.5-4.4-2.2-6.2c-2.2-1.1-6.6-.9-6.6-.9v-3.3S531.8,100.4,533.2,90.6Z"/><path class="q" d="M541.6,114.7s.4-5-5.5-5.1c-4.4-.1-5.7,2.6-5.7,2.6C533.1,112.3,540.3,111.1,541.6,114.7Z"/><path class="u" d="M617.8,306.2l14.5,23.1h10.1a2.1,2.1,0,0,0-2.2-2.5h-6.1l-13.4-21.2Z"/><path class="x" d="M591.1,281.7h18.8s12.6-28.8,36.6-25.5c7.2,1,9.5,6.7,7.6,12.3,7.9,5.9,7.4,12.1,7.3,16.3a29.7,29.7,0,0,1-31.7,29.3S602,314.3,591.1,281.7Z"/><path class="y" d="M660.8,290.4a29.7,29.7,0,0,1-31.1,23.7s-27.7.2-38.6-32.4h18.8s13.2,8.4,26.1.7C644.5,277.3,655.5,284,660.8,290.4Z"/><path class="r" d="M621,291.4l-8.2,7.9s-8.9,2.6-14.6-10.5l24.3-2.1Z"/><path class="z" d="M645.7,269.1c.4-8,4.7-3.3,9-4.7a10,10,0,0,1-.6,4.1c7.9,5.9,7.4,12.1,7.3,16.3a30,30,0,0,1-8.9,20.9c.1-7.2-1.9-15.1-10-18.6C626,279.9,645.4,275.3,645.7,269.1Z"/><path class="x" d="M607.3,281.7H570.2s2.2,6.6,10.6,6.4c6.1-.1,38.8,2,38.8,2s16.1-2.7,16.3-10.7-19.4-8.9-23.5-2.3C610.2,280.5,609.9,281.7,607.3,281.7Z"/><path class="aa" d="M632,298.7c3.9-1.3,11.9-4.8,10.1-13.1-1-4.8-14.6-17.9-45.1,20.1C597,305.7,625.1,301,632,298.7Z"/><path class="u" d="M651.6,269.4c.5-1.6,3.1.3,4.4.7,5.8,5.4,5.5,10.9,5.4,14.7v.6S646.7,284.3,651.6,269.4Z"/><path class="t" d="M612,289.6c1.8-1.5,3.5-2.9,5.2-4.1a46.7,46.7,0,0,0,10.8,8.2,17,17,0,0,0,10.5,1.6l-2,1.4C626,299.1,616.6,293.3,612,289.6Z"/><path class="ab" d="M597.2,305.6H597c.1-.1.1-.2.2-.2Z"/><circle class="u" cx="646.6" cy="266.6" r="3.3"/><circle class="ac" cx="646.6" cy="266.6" r="2.6"/><path class="t" d="M577.3,281.7a12,12,0,0,0,6,6.5h-2.5c-8.4.2-10.6-6.4-10.6-6.4Z"/><path class="ad" d="M685.2,270c7.2.8,12.8,2.1,16.8,3.8s6.9,4.1,8.5,7.3,2,7.2,1.4,12.3a45.3,45.3,0,0,1-2.4,10.5,14.6,14.6,0,0,1-5,6.8c-2.2,1.7-5.2,2.5-9,2.7v.5c6,1.6,9.9,4.3,11.7,8s2.5,8.8,1.8,15.4-2.2,10.8-4.7,14.3-6,5.9-10.7,7.1-10.9,1.3-18.5.4c-5.1-.6-10.3-1.4-15.5-2.5s-10.3-2.3-15.2-3.6l2.7-16.5,9.3,1.6,7.4,1.1,7.1.9a33.4,33.4,0,0,0,8.7.3,6.1,6.1,0,0,0,4.7-2.5c1.1-1.4,1.7-3.6,2.1-6.5a17,17,0,0,0-.2-6.1,5.7,5.7,0,0,0-2.9-3.6,17.1,17.1,0,0,0-7-1.8L659.8,318l1.8-14.6,16.4,1.9a17.9,17.9,0,0,0,5.7,0,5.6,5.6,0,0,0,3.3-1.5,6.9,6.9,0,0,0,1.6-2.8,39.1,39.1,0,0,0,.7-3.9,10.6,10.6,0,0,0-.4-5.3,5.4,5.4,0,0,0-3.1-2.8,28.5,28.5,0,0,0-6.8-1.4l-12.9-1.5-11-1.3,1.2-15.9a142.4,142.4,0,0,1,14.6-.1C675.7,269,680.5,269.4,685.2,270Z"/><path class="ac" d="M654.7,266.1a5.4,5.4,0,0,1,6.1,3.4h-2.4s-2.7,2.7-6.4-.7A2.9,2.9,0,0,0,654.7,266.1Z"/><path class="r" d="M333.4,186.4c-1.1-31.7,5.1-52.4,5.1-52.4s-7.1-19.3-28.5-15c-9.6,1.9-15,14.6-17,25.1-1.5,7.5-7.1,16.7-11.5,23-2.2,3-3.9,5.3-5.3,7.6-5,8.3-12.5,16.5-17.2,28.2-20.6,50.9-30.9,88.6-30.9,88.6s27,33.3,78.6,18c0,0,28.4-77.9,26.7-122.8Z"/><circle class="ae" cx="321" cy="134.8" r="4.2"/><path class="af" d="M309.8,148.1c-7.3,5.5-11.5,16.6-13.5,24.9-3.6,14.4-5.2,23.6-15.1,29.4s-10,52.9-10,52.9,32.1,29.1,61.5,11.4c.9-27.4,1.5-58.8.7-80v-.3a189.4,189.4,0,0,1,3.3-42.9C327.1,141.9,314.6,144.6,309.8,148.1Z"/><polygon class="u" points="316.1 351.3 296.7 348.4 284.4 350.8 282.9 348.2 294 344.4 278 311.6 284.3 311.6 299.6 344 319.8 346.3 316.1 351.3"/><circle class="q" cx="321" cy="134.8" r="3.1"/><path class="aa" d="M332.9,260.6c-5.3-1.9-12.3-7.3-19.4-20.7-14.6-27.8-51.6,15.7-51.6,15.7l-17.3-14.9c-11,30.7-16.5,50.8-16.5,50.8s12.6,13.4,34.2,24.2l.9.4h.1c1.9,1,4,1.9,6.1,2.8,8.7,4.7,14.8,11,19.5,15s6.3.6,6.3.6c-.6-5.1.8-8.6,2.9-11a63.6,63.6,0,0,0,8.5-5h0C318.9,310,333.9,292.9,332.9,260.6Z"/><path class="ag" d="M333.4,186.4v-.3a190,190,0,0,1,3.3-42.9c-9.6-1.6-22.1,1.1-26.9,4.7-7.3,5.4-11.5,16.5-13.5,24.8-3.6,14.4-5.2,23.6-15.1,29.4-7.1,4.2-9.2,29.4-9.7,43.5a129.6,129.6,0,0,0-9.6,9.7l-17.3-14.9c-11,30.7-16.5,50.9-16.5,50.9s12.6,13.3,34.2,24.1l.9.5h.1c1.9,1,4,1.9,6.1,2.8,8.7,4.7,14.8,11,19.5,15s6.3.6,6.3.6c-.6-5.1.8-8.6,2.9-11a63.6,63.6,0,0,0,8.5-5h0c12.3-8.6,27.3-25.7,26.3-57.9h0C333.7,234.5,334.2,206,333.4,186.4Z"/><path class="ah" d="M333.4,186.4v-.3a190,190,0,0,1,3.3-42.9c-9.6-1.6-22.1,1.1-26.9,4.7-7.3,5.4-11.5,16.5-13.5,24.8-3.6,14.4-5.2,23.6-15.1,29.4-7.1,4.2-9.2,29.4-9.7,43.5a129.6,129.6,0,0,0-9.6,9.7l-17.3-14.9c-11,30.7-16.5,50.9-16.5,50.9s12.6,13.3,34.2,24.1l.9.5h.1c1.9,1,4,1.9,6.1,2.8,8.7,4.7,14.8,11,19.5,15s6.3.6,6.3.6c-.6-5.1.8-8.6,2.9-11a63.6,63.6,0,0,0,8.5-5h0c12.3-8.6,27.3-25.7,26.3-57.9h0C333.7,234.5,334.2,206,333.4,186.4Z"/><path class="q" d="M293.5,227.8s20,12.1-44.8,97.7c-10.3,13.6-24.8,63-24.8,63s-5.2,2.3-5.6-5.6c0,0-7,.8-4.9-7.8,0,0-6.6.2-2.4-9.3s35.2-88.9,35.2-88.9Z"/><path class="s" d="M285.4,161.1s55.7,35.3-38.8,142.7l-25.8,47.5s-6.2-17.2,2.1-32.7l-19.4,40.9s1.5-25.8,4.4-45.3C223.8,205.5,285.4,161.1,285.4,161.1Z"/><path class="ai" d="M371,145.9l-4.2,86.2-23.4-1.2,2.8-57.2c.1-1.7.3-3.4.4-5.1a30.6,30.6,0,0,1,1-5.1l-20.3,3.6-2-14.9,22.4-7.4Z"/><path class="ae" d="M323,143.8v-2.2s14.3-1.2,15.5-7.6c0,0,4.4.5,7.3,6.2s-.2,10.4-.2,10.4h0S346.3,143.9,323,143.8Z"/><path class="q" d="M345.6,150.6s4-6.6-22.6-7.8v1c23.3.1,22.6,6.8,22.6,6.8Z"/><path class="q" d="M203.5,359.5s15.3-94.9,41.1-118.8l-24.5,84.8S208.2,349.4,203.5,359.5Z"/><path class="q" d="M246.6,303.8s17.2-54.4,29-80.9C275.6,222.9,276.9,239.4,246.6,303.8Z"/><circle class="ae" cx="130.7" cy="186.5" r="3.2"/><polygon class="u" points="121.5 353 106.7 350.8 97.4 352.6 96.2 350.6 104.7 347.8 92.5 322.9 97.3 322.9 108.9 347.4 124.2 349.2 121.5 353"/><circle class="q" cx="130.7" cy="186.5" r="2.4"/><path class="aj" d="M90.4,235.5s34.2,22-22.9,81.3L56,339.4s-4.7-12.6.5-21.3L44.9,342.7s-3.8-15.9-1.9-27.1C54.8,247.3,90.4,235.5,90.4,235.5Z"/><path class="ak" d="M52.4,326.1S63.6,272,79.1,258.9L62.8,307Z"/><path class="ak" d="M65.8,318.2S77,287.3,84.5,272.4C84,277.4,84.1,288.8,65.8,318.2Z"/><path class="ae" d="M159.8,194.7c8.7-.8,15.7-.1,21.1,2.2s9.6,6.5,12.5,12.8,4.9,15,6,26.2.8,20.2-.8,26.9-4.8,11.8-9.7,15-11.6,5.4-20.3,6.3-15.7.1-21.1-2.2-9.5-6.5-12.4-12.8-4.8-15.1-5.9-26.3-.9-20.1.7-26.8,4.7-11.8,9.6-15.1S151.1,195.6,159.8,194.7Zm1.6,17.7a14.8,14.8,0,0,0-5.7,1.6,7.6,7.6,0,0,0-3.2,4.3,23.1,23.1,0,0,0-1,8.3c0,3.6.3,8.2.8,14s1.2,10.3,1.9,13.8a27.6,27.6,0,0,0,2.6,8,7.4,7.4,0,0,0,4,3.5,13.7,13.7,0,0,0,5.9.5,15.3,15.3,0,0,0,5.9-1.6,7.7,7.7,0,0,0,3.3-4.3c.8-1.9,1.1-4.7,1.1-8.3a111.8,111.8,0,0,0-.8-14,134.4,134.4,0,0,0-1.9-13.9,23.9,23.9,0,0,0-2.7-7.9,7.4,7.4,0,0,0-4.2-3.5A14,14,0,0,0,161.4,212.4Z"/><path class="z" d="M157.5,198.5s-7.9-5.6-25.3-5.2v-1.6s6.8-5.8,11.7-5.8C155.3,185.9,157.5,198.5,157.5,198.5Z"/><ellipse class="q" cx="142.5" cy="188.7" rx="2.4" ry="0.8"/></svg>