<svg xmlns="http://www.w3.org/2000/svg" xmlns:xlink="http://www.w3.org/1999/xlink" width="800" height="700" viewBox="0 0 800 700"><defs><style>.a{fill:#eeefed;}.b{fill:url(#a);}.c{fill:#333;}.d{fill:#666;}.e{fill:#1a1a1a;}.f{fill:#2146ad;}.g{fill:#212498;}.aa,.ad,.ag,.ai,.aj,.h,.i,.j,.n,.o,.y,.z{fill:none;stroke-miterlimit:10;}.h,.i,.j{stroke:#07174f;stroke-width:0.5px;}.i{stroke-dasharray:2.04 2.04;}.j{stroke-dasharray:2;}.k{fill:#b58dd7;}.l{fill:#9148bc;}.m{fill:#4d4d4d;}.n{stroke:#e72c62;}.ag,.n{stroke-width:3px;}.o{stroke:#f9ae00;}.aa,.ag,.ai,.o,.z{stroke-linecap:round;}.p{fill:#c40e50;}.q{fill:#a67c52;}.r{fill:#8c6239;}.s{fill:#fff;}.t{fill:#f9ae00;}.u{fill:#e72c62;}.v{fill:#244789;}.w{fill:#07174f;}.x{fill:#6ba3b6;}.aj,.y{stroke:#0f8294;}.aa,.z{stroke:#2146ad;}.z{stroke-width:5px;}.aa{stroke-width:7px;}.ab{fill:#9d0943;}.ac{fill:#e09220;}.ad{stroke:#1a1a1a;stroke-width:9px;}.ae{fill:#0f8294;}.af{fill:#0f6579;}.ag{stroke:#333;}.ah{fill:#ccc;}.ai{stroke:#8c6239;}.aj{stroke-width:10px;}</style><linearGradient id="a" x1="400" y1="27.2" x2="400" y2="409.89" gradientUnits="userSpaceOnUse"><stop offset="0" stop-color="#fff"/><stop offset="0.6" stop-color="#eeefed"/></linearGradient></defs><rect class="a" x="17.5" y="17.5" width="765" height="665" rx="21.2"/><polyline class="b" points="381.2 408 393.1 408 393.1 398 381.2 398 381.2 384.2 393.1 384.2 393.1 362.3 383.1 362.3 383.1 374.2 369.3 374.2 369.3 362.3 359.3 362.3 359.3 384.2 371.2 384.2 371.2 398 345.5 398 345.5 386.1 335.5 386.1 335.5 398 309.8 398 309.8 384.2 321.7 384.2 321.7 374.2 309.8 374.2 309.8 360.4 335.5 360.4 335.5 372.3 345.5 372.3 345.5 338.5 335.5 338.5 335.5 350.4 309.8 350.4 309.8 336.6 321.7 336.6 321.7 326.6 309.8 326.6 309.8 312.8 335.5 312.8 335.5 324.7 345.5 324.7 345.5 312.8 371.2 312.8 371.2 326.6 359.3 326.6 359.3 348.5 369.3 348.5 369.3 336.6 383.1 336.6 383.1 348.5 393.1 348.5 393.1 326.6 381.2 326.6 381.2 312.8 393.1 312.8 393.1 290.9 383.1 290.9 383.1 302.8 357.4 302.8 357.4 289 369.3 289 369.3 279 357.4 279 357.4 265.2 383.1 265.2 383.1 277.1 393.1 277.1 393.1 255.2 381.2 255.2 381.2 241.4 393.1 241.4 393.1 219.5 383.1 219.5 383.1 231.4 369.3 231.4 369.3 219.5 359.3 219.5 359.3 241.4 371.2 241.4 371.2 255.2 333.6 255.2 333.6 241.4 345.5 241.4 345.5 219.5 335.5 219.5 335.5 231.4 321.7 231.4 321.7 219.5 311.7 219.5 311.7 241.4 323.6 241.4 323.6 255.2 311.7 255.2 311.7 277.1 321.7 277.1 321.7 265.2 347.4 265.2 347.4 279 335.5 279 335.5 289 347.4 289 347.4 302.8 321.7 302.8 321.7 290.9 311.7 290.9 311.7 302.8 297.9 302.8 297.9 290.9 287.9 290.9 287.9 302.8 262.2 302.8 262.2 289 274.1 289 274.1 279 262.2 279 262.2 265.2 287.9 265.2 287.9 277.1 297.9 277.1 297.9 255.2 286 255.2 286 241.4 297.9 241.4 297.9 219.5 287.9 219.5 287.9 231.4 274.1 231.4 274.1 219.5 264.1 219.5 264.1 241.4 276 241.4 276 255.2 238.4 255.2 238.4 241.4 250.3 241.4 250.3 219.5 240.3 219.5 240.3 231.4 226.5 231.4 226.5 219.5 216.5 219.5 216.5 241.4 228.4 241.4 228.4 255.2 216.5 255.2 216.5 277.1 226.5 277.1 226.5 265.2 252.2 265.2 252.2 279 240.3 279 240.3 289 252.2 289 252.2 302.8 226.5 302.8 226.5 290.9 216.5 290.9 216.5 312.8 228.4 312.8 228.4 326.6 216.5 326.6 216.5 348.5 226.5 348.5 226.5 336.6 240.3 336.6 240.3 348.5 250.3 348.5 250.3 326.6 238.4 326.6 238.4 312.8 264.1 312.8 264.1 324.7 274.1 324.7 274.1 312.8 299.8 312.8 299.8 326.6 287.9 326.6 287.9 336.6 299.8 336.6 299.8 350.4 274.1 350.4 274.1 338.5 264.1 338.5 264.1 372.3 274.1 372.3 274.1 360.4 299.8 360.4 299.8 374.2 287.9 374.2 287.9 384.2 299.8 384.2 299.8 398 274.1 398 274.1 386.1 264.1 386.1 264.1 398 238.4 398 238.4 384.2 250.3 384.2 250.3 362.3 240.3 362.3 240.3 374.2 226.5 374.2 226.5 362.3 216.5 362.3 216.5 384.2 228.4 384.2 228.4 398 202.7 398 202.7 386.1 192.7 386.1 192.7 398 167 398 167 384.2 178.9 384.2 178.9 374.2 167 374.2 167 360.4 192.7 360.4 192.7 372.3 202.7 372.3 202.7 350.4 190.8 350.4 190.8 336.6 202.7 336.6 202.7 314.7 192.7 314.7 192.7 326.6 178.9 326.6 178.9 314.7 168.9 314.7 168.9 336.6 180.8 336.6 180.8 350.4 143.2 350.4 143.2 336.6 155.1 336.6 155.1 314.7 145.1 314.7 145.1 326.6 131.3 326.6 131.3 314.7 121.3 314.7 121.3 336.6 133.2 336.6 133.2 350.4 121.3 350.4 121.3 372.3 131.3 372.3 131.3 360.4 157 360.4 157 374.2 145.1 374.2 145.1 384.2 157 384.2 157 398 131.3 398 131.3 386.1 121.3 386.1 121.3 398 95.6 398 95.6 384.2 107.5 384.2 107.5 362.3 97.5 362.3 97.5 374.2 83.7 374.2 83.7 362.3 73.7 362.3 73.7 384.2 85.6 384.2 85.6 398 59.9 398 59.9 386.1 49.9 386.1 49.9 398 24.2 398 24.2 384.2 36.1 384.2 36.1 374.2 24.2 374.2 24.2 360.4 49.9 360.4 49.9 372.3 59.9 372.3 59.9 338.5 49.9 338.5 49.9 350.4 24.2 350.4 24.2 336.6 36.1 336.6 36.1 326.6 24.2 326.6 24.2 312.8 49.9 312.8 49.9 324.7 59.9 324.7 59.9 312.8 85.6 312.8 85.6 326.6 73.7 326.6 73.7 348.5 83.7 348.5 83.7 336.6 97.5 336.6 97.5 348.5 107.5 348.5 107.5 326.6 95.6 326.6 95.6 312.8 107.5 312.8 107.5 302.8 95.6 302.8 95.6 289 107.5 289 107.5 267.1 97.5 267.1 97.5 279 83.7 279 83.7 267.1 73.7 267.1 73.7 289 85.6 289 85.6 302.8 59.9 302.8 59.9 290.9 49.9 290.9 49.9 302.8 24.2 302.8 24.2 289 36.1 289 36.1 279 24.2 279 24.2 265.2 49.9 265.2 49.9 277.1 59.9 277.1 59.9 243.3 49.9 243.3 49.9 255.2 24.2 255.2 24.2 241.4 36.1 241.4 36.1 231.4 24.2 231.4 24.2 217.6 49.9 217.6 49.9 229.5 59.9 229.5 59.9 217.6 85.6 217.6 85.6 231.4 73.7 231.4 73.7 253.3 83.7 253.3 83.7 241.4 97.5 241.4 97.5 253.3 107.5 253.3 107.5 231.4 95.6 231.4 95.6 217.6 121.3 217.6 121.3 229.5 131.3 229.5 131.3 217.6 157 217.6 157 231.4 145.1 231.4 145.1 241.4 157 241.4 157 255.2 131.3 255.2 131.3 243.3 121.3 243.3 121.3 265.2 133.2 265.2 133.2 279 121.3 279 121.3 300.9 131.3 300.9 131.3 289 145.1 289 145.1 300.9 155.1 300.9 155.1 279 143.2 279 143.2 265.2 180.8 265.2 180.8 279 168.9 279 168.9 300.9 178.9 300.9 178.9 289 192.7 289 192.7 300.9 202.7 300.9 202.7 279 190.8 279 190.8 265.2 202.7 265.2 202.7 243.3 192.7 243.3 192.7 255.2 167 255.2 167 241.4 178.9 241.4 178.9 231.4 167 231.4 167 217.6 192.7 217.6 192.7 229.5 202.7 229.5 202.7 195.7 192.7 195.7 192.7 207.6 167 207.6 167 193.8 178.9 193.8 178.9 183.8 167 183.8 167 170 192.7 170 192.7 181.9 202.7 181.9 202.7 160 190.8 160 190.8 146.2 202.7 146.2 202.7 124.3 192.7 124.3 192.7 136.2 178.9 136.2 178.9 124.3 168.9 124.3 168.9 146.2 180.8 146.2 180.8 160 143.2 160 143.2 146.2 155.1 146.2 155.1 124.3 145.1 124.3 145.1 136.2 131.3 136.2 131.3 124.3 121.3 124.3 121.3 146.2 133.2 146.2 133.2 160 121.3 160 121.3 181.9 131.3 181.9 131.3 170 157 170 157 183.8 145.1 183.8 145.1 193.8 157 193.8 157 207.6 131.3 207.6 131.3 195.7 121.3 195.7 121.3 207.6 95.6 207.6 95.6 193.8 107.5 193.8 107.5 171.9 97.5 171.9 97.5 183.8 83.7 183.8 83.7 171.9 73.7 171.9 73.7 193.8 85.6 193.8 85.6 207.6 59.9 207.6 59.9 195.7 49.9 195.7 49.9 207.6 24.2 207.6 24.2 193.8 36.1 193.8 36.1 183.8 24.2 183.8 24.2 170 49.9 170 49.9 181.9 59.9 181.9 59.9 148.1 49.9 148.1 49.9 160 24.2 160 24.2 146.2 36.1 146.2 36.1 136.2 24.2 136.2 24.2 122.4 49.9 122.4 49.9 134.3 59.9 134.3 59.9 122.4 85.6 122.4 85.6 136.2 73.7 136.2 73.7 158.1 83.7 158.1 83.7 146.2 97.5 146.2 97.5 158.1 107.5 158.1 107.5 136.2 95.6 136.2 95.6 122.4 107.5 122.4 107.5 112.4 95.6 112.4 95.6 98.6 107.5 98.6 107.5 76.7 97.5 76.7 97.5 88.6 83.7 88.6 83.7 76.7 73.7 76.7 73.7 98.6 85.6 98.6 85.6 112.4 59.9 112.4 59.9 100.5 49.9 100.5 49.9 112.4 24.2 112.4 24.2 98.6 36.1 98.6 36.1 88.6 24.2 88.6 24.2 74.8 49.9 74.8 49.9 86.7 59.9 86.7 59.9 52.9 49.9 52.9 49.9 64.8 24.2 64.8 24.2 51 36.1 51 36.1 41 24.2 41 24.2 27.2 49.9 27.2 49.9 39.1 59.9 39.1 59.9 27.2 85.6 27.2 85.6 41 73.7 41 73.7 62.9 83.7 62.9 83.7 51 97.5 51 97.5 62.9 107.5 62.9 107.5 41 95.6 41 95.6 27.2 121.3 27.2 121.3 39.1 131.3 39.1 131.3 27.2 157 27.2 157 41 145.1 41 145.1 51 157 51 157 64.8 131.3 64.8 131.3 52.9 121.3 52.9 121.3 74.8 133.2 74.8 133.2 88.6 121.3 88.6 121.3 110.5 131.3 110.5 131.3 98.6 145.1 98.6 145.1 110.5 155.1 110.5 155.1 88.6 143.2 88.6 143.2 74.8 180.8 74.8 180.8 88.6 168.9 88.6 168.9 110.5 178.9 110.5 178.9 98.6 192.7 98.6 192.7 110.5 202.7 110.5 202.7 88.6 190.8 88.6 190.8 74.8 202.7 74.8 202.7 52.9 192.7 52.9 192.7 64.8 167 64.8 167 51 178.9 51 178.9 41 167 41 167 27.2 192.7 27.2 192.7 39.1 202.7 39.1 202.7 27.2 228.4 27.2 228.4 41 216.5 41 216.5 62.9 226.5 62.9 226.5 51 240.3 51 240.3 62.9 250.3 62.9 250.3 41 238.4 41 238.4 27.2 264.1 27.2 264.1 39.1 274.1 39.1 274.1 27.2 299.8 27.2 299.8 41 287.9 41 287.9 51 299.8 51 299.8 64.8 274.1 64.8 274.1 52.9 264.1 52.9 264.1 86.7 274.1 86.7 274.1 74.8 299.8 74.8 299.8 88.6 287.9 88.6 287.9 98.6 299.8 98.6 299.8 112.4 274.1 112.4 274.1 100.5 264.1 100.5 264.1 112.4 238.4 112.4 238.4 98.6 250.3 98.6 250.3 76.7 240.3 76.7 240.3 88.6 226.5 88.6 226.5 76.7 216.5 76.7 216.5 98.6 228.4 98.6 228.4 112.4 216.5 112.4 216.5 134.3 226.5 134.3 226.5 122.4 252.2 122.4 252.2 136.2 240.3 136.2 240.3 146.2 252.2 146.2 252.2 160 226.5 160 226.5 148.1 216.5 148.1 216.5 170 228.4 170 228.4 183.8 216.5 183.8 216.5 205.7 226.5 205.7 226.5 193.8 240.3 193.8 240.3 205.7 250.3 205.7 250.3 183.8 238.4 183.8 238.4 170 276 170 276 183.8 264.1 183.8 264.1 205.7 274.1 205.7 274.1 193.8 287.9 193.8 287.9 205.7 297.9 205.7 297.9 183.8 286 183.8 286 170 297.9 170 297.9 148.1 287.9 148.1 287.9 160 262.2 160 262.2 146.2 274.1 146.2 274.1 136.2 262.2 136.2 262.2 122.4 287.9 122.4 287.9 134.3 297.9 134.3 297.9 122.4 311.7 122.4 311.7 134.3 321.7 134.3 321.7 122.4 347.4 122.4 347.4 136.2 335.5 136.2 335.5 146.2 347.4 146.2 347.4 160 321.7 160 321.7 148.1 311.7 148.1 311.7 170 323.6 170 323.6 183.8 311.7 183.8 311.7 205.7 321.7 205.7 321.7 193.8 335.5 193.8 335.5 205.7 345.5 205.7 345.5 183.8 333.6 183.8 333.6 170 371.2 170 371.2 183.8 359.3 183.8 359.3 205.7 369.3 205.7 369.3 193.8 383.1 193.8 383.1 205.7 393.1 205.7 393.1 183.8 381.2 183.8 381.2 170 393.1 170 393.1 148.1 383.1 148.1 383.1 160 357.4 160 357.4 146.2 369.3 146.2 369.3 136.2 357.4 136.2 357.4 122.4 383.1 122.4 383.1 134.3 393.1 134.3 393.1 112.4 381.2 112.4 381.2 98.6 393.1 98.6 393.1 76.7 383.1 76.7 383.1 88.6 369.3 88.6 369.3 76.7 359.3 76.7 359.3 98.6 371.2 98.6 371.2 112.4 345.5 112.4 345.5 100.5 335.5 100.5 335.5 112.4 309.8 112.4 309.8 98.6 321.7 98.6 321.7 88.6 309.8 88.6 309.8 74.8 335.5 74.8 335.5 86.7 345.5 86.7 345.5 52.9 335.5 52.9 335.5 64.8 309.8 64.8 309.8 51 321.7 51 321.7 41 309.8 41 309.8 27.2 335.5 27.2 335.5 39.1 345.5 39.1 345.5 27.2 371.2 27.2 371.2 41 359.3 41 359.3 62.9 369.3 62.9 369.3 51 383.1 51 383.1 62.9 393.1 62.9 393.1 41 381.2 41 381.2 27.2 406.9 27.2 406.9 39.1 416.9 39.1 416.9 27.2 442.6 27.2 442.6 41 430.7 41 430.7 51 442.6 51 442.6 64.8 416.9 64.8 416.9 52.9 406.9 52.9 406.9 74.8 418.8 74.8 418.8 88.6 406.9 88.6 406.9 110.5 416.9 110.5 416.9 98.6 430.7 98.6 430.7 110.5 440.7 110.5 440.7 88.6 428.8 88.6 428.8 74.8 466.4 74.8 466.4 88.6 454.5 88.6 454.5 110.5 464.5 110.5 464.5 98.6 478.3 98.6 478.3 110.5 488.3 110.5 488.3 88.6 476.4 88.6 476.4 74.8 488.3 74.8 488.3 52.9 478.3 52.9 478.3 64.8 452.6 64.8 452.6 51 464.5 51 464.5 41 452.6 41 452.6 27.2 478.3 27.2 478.3 39.1 488.3 39.1 488.3 27.2 514 27.2 514 41 502.1 41 502.1 62.9 512.1 62.9 512.1 51 525.9 51 525.9 62.9 535.9 62.9 535.9 41 524 41 524 27.2 549.7 27.2 549.7 39.1 559.7 39.1 559.7 27.2 585.4 27.2 585.4 41 573.5 41 573.5 51 585.4 51 585.4 64.8 559.7 64.8 559.7 52.9 549.7 52.9 549.7 86.7 559.7 86.7 559.7 74.8 585.4 74.8 585.4 88.6 573.5 88.6 573.5 98.6 585.4 98.6 585.4 112.4 559.7 112.4 559.7 100.5 549.7 100.5 549.7 112.4 524 112.4 524 98.6 535.9 98.6 535.9 76.7 525.9 76.7 525.9 88.6 512.1 88.6 512.1 76.7 502.1 76.7 502.1 98.6 514 98.6 514 112.4 502.1 112.4 502.1 122.4 514 122.4 514 136.2 502.1 136.2 502.1 158.1 512.1 158.1 512.1 146.2 525.9 146.2 525.9 158.1 535.9 158.1 535.9 136.2 524 136.2 524 122.4 549.7 122.4 549.7 134.3 559.7 134.3 559.7 122.4 585.4 122.4 585.4 136.2 573.5 136.2 573.5 146.2 585.4 146.2 585.4 160 559.7 160 559.7 148.1 549.7 148.1 549.7 181.9 559.7 181.9 559.7 170 585.4 170 585.4 183.8 573.5 183.8 573.5 193.8 585.4 193.8 585.4 207.6 559.7 207.6 559.7 195.7 549.7 195.7 549.7 207.6 524 207.6 524 193.8 535.9 193.8 535.9 171.9 525.9 171.9 525.9 183.8 512.1 183.8 512.1 171.9 502.1 171.9 502.1 193.8 514 193.8 514 207.6 488.3 207.6 488.3 195.7 478.3 195.7 478.3 207.6 452.6 207.6 452.6 193.8 464.5 193.8 464.5 183.8 452.6 183.8 452.6 170 478.3 170 478.3 181.9 488.3 181.9 488.3 160 476.4 160 476.4 146.2 488.3 146.2 488.3 124.3 478.3 124.3 478.3 136.2 464.5 136.2 464.5 124.3 454.5 124.3 454.5 146.2 466.4 146.2 466.4 160 428.8 160 428.8 146.2 440.7 146.2 440.7 124.3 430.7 124.3 430.7 136.2 416.9 136.2 416.9 124.3 406.9 124.3 406.9 146.2 418.8 146.2 418.8 160 406.9 160 406.9 181.9 416.9 181.9 416.9 170 442.6 170 442.6 183.8 430.7 183.8 430.7 193.8 442.6 193.8 442.6 207.6 416.9 207.6 416.9 195.7 406.9 195.7 406.9 217.6 418.8 217.6 418.8 231.4 406.9 231.4 406.9 253.3 416.9 253.3 416.9 241.4 430.7 241.4 430.7 253.3 440.7 253.3 440.7 231.4 428.8 231.4 428.8 217.6 454.5 217.6 454.5 229.5 464.5 229.5 464.5 217.6 490.2 217.6 490.2 231.4 478.3 231.4 478.3 241.4 490.2 241.4 490.2 255.2 464.5 255.2 464.5 243.3 454.5 243.3 454.5 277.1 464.5 277.1 464.5 265.2 490.2 265.2 490.2 279 478.3 279 478.3 289 490.2 289 490.2 302.8 464.5 302.8 464.5 290.9 454.5 290.9 454.5 302.8 428.8 302.8 428.8 289 440.7 289 440.7 267.1 430.7 267.1 430.7 279 416.9 279 416.9 267.1 406.9 267.1 406.9 289 418.8 289 418.8 302.8 406.9 302.8 406.9 324.7 416.9 324.7 416.9 312.8 442.6 312.8 442.6 326.6 430.7 326.6 430.7 336.6 442.6 336.6 442.6 350.4 416.9 350.4 416.9 338.5 406.9 338.5 406.9 360.4 418.8 360.4 418.8 374.2 406.9 374.2 406.9 396.1 416.9 396.1 416.9 384.2 430.7 384.2 430.7 396.1 440.7 396.1 440.7 374.2 428.8 374.2 428.8 360.4 466.4 360.4 466.4 374.2 454.5 374.2 454.5 396.1 464.5 396.1 464.5 384.2 478.3 384.2 478.3 396.1 488.3 396.1 488.3 374.2 476.4 374.2 476.4 360.4 488.3 360.4 488.3 338.5 478.3 338.5 478.3 350.4 452.6 350.4 452.6 336.6 464.5 336.6 464.5 326.6 452.6 326.6 452.6 312.8 478.3 312.8 478.3 324.7 488.3 324.7 488.3 312.8 502.1 312.8 502.1 324.7 512.1 324.7 512.1 312.8 537.8 312.8 537.8 326.6 525.9 326.6 525.9 336.6 537.8 336.6 537.8 350.4 512.1 350.4 512.1 338.5 502.1 338.5 502.1 360.4 514 360.4 514 374.2 502.1 374.2 502.1 396.1 512.1 396.1 512.1 384.2 525.9 384.2 525.9 396.1 535.9 396.1 535.9 374.2 524 374.2 524 360.4 561.6 360.4 561.6 374.2 549.7 374.2 549.7 396.1 559.7 396.1 559.7 384.2 573.5 384.2 573.5 396.1 583.5 396.1 583.5 374.2 571.6 374.2 571.6 360.4 583.5 360.4 583.5 338.5 573.5 338.5 573.5 350.4 547.8 350.4 547.8 336.6 559.7 336.6 559.7 326.6 547.8 326.6 547.8 312.8 573.5 312.8 573.5 324.7 583.5 324.7 583.5 302.8 571.6 302.8 571.6 289 583.5 289 583.5 267.1 573.5 267.1 573.5 279 559.7 279 559.7 267.1 549.7 267.1 549.7 289 561.6 289 561.6 302.8 535.9 302.8 535.9 290.9 525.9 290.9 525.9 302.8 500.2 302.8 500.2 289 512.1 289 512.1 279 500.2 279 500.2 265.2 525.9 265.2 525.9 277.1 535.9 277.1 535.9 243.3 525.9 243.3 525.9 255.2 500.2 255.2 500.2 241.4 512.1 241.4 512.1 231.4 500.2 231.4 500.2 217.6 525.9 217.6 525.9 229.5 535.9 229.5 535.9 217.6 561.6 217.6 561.6 231.4 549.7 231.4 549.7 253.3 559.7 253.3 559.7 241.4 573.5 241.4 573.5 253.3 583.5 253.3 583.5 231.4 571.6 231.4 571.6 217.6 609.2 217.6 609.2 231.4 597.3 231.4 597.3 253.3 607.3 253.3 607.3 241.4 621.1 241.4 621.1 253.3 631.1 253.3 631.1 231.4 619.2 231.4 619.2 217.6 644.9 217.6 644.9 229.5 654.9 229.5 654.9 217.6 680.6 217.6 680.6 231.4 668.7 231.4 668.7 241.4 680.6 241.4 680.6 255.2 654.9 255.2 654.9 243.3 644.9 243.3 644.9 277.1 654.9 277.1 654.9 265.2 680.6 265.2 680.6 279 668.7 279 668.7 289 680.6 289 680.6 302.8 654.9 302.8 654.9 290.9 644.9 290.9 644.9 302.8 619.2 302.8 619.2 289 631.1 289 631.1 267.1 621.1 267.1 621.1 279 607.3 279 607.3 267.1 597.3 267.1 597.3 289 609.2 289 609.2 302.8 597.3 302.8 597.3 324.7 607.3 324.7 607.3 312.8 633 312.8 633 326.6 621.1 326.6 621.1 336.6 633 336.6 633 350.4 607.3 350.4 607.3 338.5 597.3 338.5 597.3 360.4 609.2 360.4 609.2 374.2 597.3 374.2 597.3 396.1 607.3 396.1 607.3 384.2 621.1 384.2 621.1 396.1 631.1 396.1 631.1 374.2 619.2 374.2 619.2 360.4 656.8 360.4 656.8 374.2 644.9 374.2 644.9 396.1 654.9 396.1 654.9 384.2 668.7 384.2 668.7 396.1 678.7 396.1 678.7 374.2 666.8 374.2 666.8 360.4 678.7 360.4 678.7 338.5 668.7 338.5 668.7 350.4 643 350.4 643 336.6 654.9 336.6 654.9 326.6 643 326.6 643 312.8 668.7 312.8 668.7 324.7 678.7 324.7 678.7 312.8 692.5 312.8 692.5 324.7 702.5 324.7 702.5 312.8 728.2 312.8 728.2 326.6 716.3 326.6 716.3 336.6 728.2 336.6 728.2 350.4 702.5 350.4 702.5 338.5 692.5 338.5 692.5 360.4 704.4 360.4 704.4 374.2 692.5 374.2 692.5 396.1 702.5 396.1 702.5 384.2 716.3 384.2 716.3 396.1 726.3 396.1 726.3 374.2 714.4 374.2 714.4 360.4 752 360.4 752 374.2 740.1 374.2 740.1 396.1 750.1 396.1 750.1 384.2 763.9 384.2 763.9 396.1 773.9 396.1 773.9 374.2 762 374.2 762 360.4 773.9 360.4 773.9 338.5 763.9 338.5 763.9 350.4 738.2 350.4 738.2 336.6 750.1 336.6 750.1 326.6 738.2 326.6 738.2 312.8 763.9 312.8 763.9 324.7 773.9 324.7 773.9 302.8 762 302.8 762 289 773.9 289 773.9 267.1 763.9 267.1 763.9 279 750.1 279 750.1 267.1 740.1 267.1 740.1 289 752 289 752 302.8 726.3 302.8 726.3 290.9 716.3 290.9 716.3 302.8 690.6 302.8 690.6 289 702.5 289 702.5 279 690.6 279 690.6 265.2 716.3 265.2 716.3 277.1 726.3 277.1 726.3 243.3 716.3 243.3 716.3 255.2 690.6 255.2 690.6 241.4 702.5 241.4 702.5 231.4 690.6 231.4 690.6 217.6 716.3 217.6 716.3 229.5 726.3 229.5 726.3 217.6 752 217.6 752 231.4 740.1 231.4 740.1 253.3 750.1 253.3 750.1 241.4 763.9 241.4 763.9 253.3 773.9 253.3 773.9 231.4 762 231.4 762 217.6 773.9 217.6 773.9 195.7 763.9 195.7 763.9 207.6 738.2 207.6 738.2 193.8 750.1 193.8 750.1 183.8 738.2 183.8 738.2 170 763.9 170 763.9 181.9 773.9 181.9 773.9 160 762 160 762 146.2 773.9 146.2 773.9 124.3 763.9 124.3 763.9 136.2 750.1 136.2 750.1 124.3 740.1 124.3 740.1 146.2 752 146.2 752 160 714.4 160 714.4 146.2 726.3 146.2 726.3 124.3 716.3 124.3 716.3 136.2 702.5 136.2 702.5 124.3 692.5 124.3 692.5 146.2 704.4 146.2 704.4 160 692.5 160 692.5 181.9 702.5 181.9 702.5 170 728.2 170 728.2 183.8 716.3 183.8 716.3 193.8 728.2 193.8 728.2 207.6 702.5 207.6 702.5 195.7 692.5 195.7 692.5 207.6 666.8 207.6 666.8 193.8 678.7 193.8 678.7 171.9 668.7 171.9 668.7 183.8 654.9 183.8 654.9 171.9 644.9 171.9 644.9 193.8 656.8 193.8 656.8 207.6 631.1 207.6 631.1 195.7 621.1 195.7 621.1 207.6 595.4 207.6 595.4 193.8 607.3 193.8 607.3 183.8 595.4 183.8 595.4 170 621.1 170 621.1 181.9 631.1 181.9 631.1 148.1 621.1 148.1 621.1 160 595.4 160 595.4 146.2 607.3 146.2 607.3 136.2 595.4 136.2 595.4 122.4 621.1 122.4 621.1 134.3 631.1 134.3 631.1 122.4 656.8 122.4 656.8 136.2 644.9 136.2 644.9 158.1 654.9 158.1 654.9 146.2 668.7 146.2 668.7 158.1 678.7 158.1 678.7 136.2 666.8 136.2 666.8 122.4 678.7 122.4 678.7 112.4 666.8 112.4 666.8 98.6 678.7 98.6 678.7 76.7 668.7 76.7 668.7 88.6 654.9 88.6 654.9 76.7 644.9 76.7 644.9 98.6 656.8 98.6 656.8 112.4 631.1 112.4 631.1 100.5 621.1 100.5 621.1 112.4 595.4 112.4 595.4 98.6 607.3 98.6 607.3 88.6 595.4 88.6 595.4 74.8 621.1 74.8 621.1 86.7 631.1 86.7 631.1 52.9 621.1 52.9 621.1 64.8 595.4 64.8 595.4 51 607.3 51 607.3 41 595.4 41 595.4 27.2 621.1 27.2 621.1 39.1 631.1 39.1 631.1 27.2 656.8 27.2 656.8 41 644.9 41 644.9 62.9 654.9 62.9 654.9 51 668.7 51 668.7 62.9 678.7 62.9 678.7 41 666.8 41 666.8 27.2 692.5 27.2 692.5 39.1 702.5 39.1 702.5 27.2 728.2 27.2 728.2 41 716.3 41 716.3 51 728.2 51 728.2 64.8 702.5 64.8 702.5 52.9 692.5 52.9 692.5 74.8 704.4 74.8 704.4 88.6 692.5 88.6 692.5 110.5 702.5 110.5 702.5 98.6 716.3 98.6 716.3 110.5 726.3 110.5 726.3 88.6 714.4 88.6 714.4 74.8 752 74.8 752 88.6 740.1 88.6 740.1 110.5 750.1 110.5 750.1 98.6 763.9 98.6 763.9 110.5 773.9 110.5 773.9 88.6 762 88.6 762 74.8 773.9 74.8 773.9 52.9 763.9 52.9 763.9 64.8 738.2 64.8 738.2 51 750.1 51 750.1 41 738.2 41 738.2 27.2 763.9 27.2 763.9 39.1 773.9 39.1 773.9 28.1 775.8 28.1 775.8 41 762 41 762 29.1 740.1 29.1 740.1 39.1 752 39.1 752 52.9 740.1 52.9 740.1 62.9 762 62.9 762 51 775.8 51 775.8 76.7 763.9 76.7 763.9 86.7 775.8 86.7 775.8 112.4 762 112.4 762 100.5 752 100.5 752 112.4 738.2 112.4 738.2 86.7 750.1 86.7 750.1 76.7 716.3 76.7 716.3 86.7 728.2 86.7 728.2 112.4 714.4 112.4 714.4 100.5 704.4 100.5 704.4 112.4 690.6 112.4 690.6 86.7 702.5 86.7 702.5 76.7 690.6 76.7 690.6 51 704.4 51 704.4 62.9 726.3 62.9 726.3 52.9 714.4 52.9 714.4 39.1 726.3 39.1 726.3 29.1 704.4 29.1 704.4 41 690.6 41 690.6 29.1 668.7 29.1 668.7 39.1 680.6 39.1 680.6 64.8 666.8 64.8 666.8 52.9 656.8 52.9 656.8 64.8 643 64.8 643 39.1 654.9 39.1 654.9 29.1 633 29.1 633 41 619.2 41 619.2 29.1 597.3 29.1 597.3 39.1 609.2 39.1 609.2 52.9 597.3 52.9 597.3 62.9 619.2 62.9 619.2 51 633 51 633 88.6 619.2 88.6 619.2 76.7 597.3 76.7 597.3 86.7 609.2 86.7 609.2 100.5 597.3 100.5 597.3 110.5 619.2 110.5 619.2 98.6 633 98.6 633 110.5 654.9 110.5 654.9 100.5 643 100.5 643 74.8 656.8 74.8 656.8 86.7 666.8 86.7 666.8 74.8 680.6 74.8 680.6 100.5 668.7 100.5 668.7 110.5 680.6 110.5 680.6 124.3 668.7 124.3 668.7 134.3 680.6 134.3 680.6 160 666.8 160 666.8 148.1 656.8 148.1 656.8 160 643 160 643 134.3 654.9 134.3 654.9 124.3 633 124.3 633 136.2 619.2 136.2 619.2 124.3 597.3 124.3 597.3 134.3 609.2 134.3 609.2 148.1 597.3 148.1 597.3 158.1 619.2 158.1 619.2 146.2 633 146.2 633 183.8 619.2 183.8 619.2 171.9 597.3 171.9 597.3 181.9 609.2 181.9 609.2 195.7 597.3 195.7 597.3 205.7 619.2 205.7 619.2 193.8 633 193.8 633 205.7 654.9 205.7 654.9 195.7 643 195.7 643 170 656.8 170 656.8 181.9 666.8 181.9 666.8 170 680.6 170 680.6 195.7 668.7 195.7 668.7 205.7 690.6 205.7 690.6 193.8 704.4 193.8 704.4 205.7 726.3 205.7 726.3 195.7 714.4 195.7 714.4 181.9 726.3 181.9 726.3 171.9 704.4 171.9 704.4 183.8 690.6 183.8 690.6 158.1 702.5 158.1 702.5 148.1 690.6 148.1 690.6 122.4 704.4 122.4 704.4 134.3 714.4 134.3 714.4 122.4 728.2 122.4 728.2 148.1 716.3 148.1 716.3 158.1 750.1 158.1 750.1 148.1 738.2 148.1 738.2 122.4 752 122.4 752 134.3 762 134.3 762 122.4 775.8 122.4 775.8 148.1 763.9 148.1 763.9 158.1 775.8 158.1 775.8 183.8 762 183.8 762 171.9 740.1 171.9 740.1 181.9 752 181.9 752 195.7 740.1 195.7 740.1 205.7 762 205.7 762 193.8 775.8 193.8 775.8 219.5 763.9 219.5 763.9 229.5 775.8 229.5 775.8 255.2 762 255.2 762 243.3 752 243.3 752 255.2 738.2 255.2 738.2 229.5 750.1 229.5 750.1 219.5 728.2 219.5 728.2 231.4 714.4 231.4 714.4 219.5 692.5 219.5 692.5 229.5 704.4 229.5 704.4 243.3 692.5 243.3 692.5 253.3 714.4 253.3 714.4 241.4 728.2 241.4 728.2 279 714.4 279 714.4 267.1 692.5 267.1 692.5 277.1 704.4 277.1 704.4 290.9 692.5 290.9 692.5 300.9 714.4 300.9 714.4 289 728.2 289 728.2 300.9 750.1 300.9 750.1 290.9 738.2 290.9 738.2 265.2 752 265.2 752 277.1 762 277.1 762 265.2 775.8 265.2 775.8 290.9 763.9 290.9 763.9 300.9 775.8 300.9 775.8 326.6 762 326.6 762 314.7 740.1 314.7 740.1 324.7 752 324.7 752 338.5 740.1 338.5 740.1 348.5 762 348.5 762 336.6 775.8 336.6 775.8 362.3 763.9 362.3 763.9 372.3 775.8 372.3 775.8 398 762 398 762 386.1 752 386.1 752 398 738.2 398 738.2 372.3 750.1 372.3 750.1 362.3 716.3 362.3 716.3 372.3 728.2 372.3 728.2 398 714.4 398 714.4 386.1 704.4 386.1 704.4 398 690.6 398 690.6 372.3 702.5 372.3 702.5 362.3 690.6 362.3 690.6 336.6 704.4 336.6 704.4 348.5 726.3 348.5 726.3 338.5 714.4 338.5 714.4 324.7 726.3 324.7 726.3 314.7 704.4 314.7 704.4 326.6 690.6 326.6 690.6 314.7 680.6 314.7 680.6 326.6 666.8 326.6 666.8 314.7 644.9 314.7 644.9 324.7 656.8 324.7 656.8 338.5 644.9 338.5 644.9 348.5 666.8 348.5 666.8 336.6 680.6 336.6 680.6 362.3 668.7 362.3 668.7 372.3 680.6 372.3 680.6 398 666.8 398 666.8 386.1 656.8 386.1 656.8 398 643 398 643 372.3 654.9 372.3 654.9 362.3 621.1 362.3 621.1 372.3 633 372.3 633 398 619.2 398 619.2 386.1 609.2 386.1 609.2 398 595.4 398 595.4 372.3 607.3 372.3 607.3 362.3 595.4 362.3 595.4 336.6 609.2 336.6 609.2 348.5 631.1 348.5 631.1 338.5 619.2 338.5 619.2 324.7 631.1 324.7 631.1 314.7 609.2 314.7 609.2 326.6 595.4 326.6 595.4 300.9 607.3 300.9 607.3 290.9 595.4 290.9 595.4 265.2 609.2 265.2 609.2 277.1 619.2 277.1 619.2 265.2 633 265.2 633 290.9 621.1 290.9 621.1 300.9 643 300.9 643 289 656.8 289 656.8 300.9 678.7 300.9 678.7 290.9 666.8 290.9 666.8 277.1 678.7 277.1 678.7 267.1 656.8 267.1 656.8 279 643 279 643 241.4 656.8 241.4 656.8 253.3 678.7 253.3 678.7 243.3 666.8 243.3 666.8 229.5 678.7 229.5 678.7 219.5 656.8 219.5 656.8 231.4 643 231.4 643 219.5 621.1 219.5 621.1 229.5 633 229.5 633 255.2 619.2 255.2 619.2 243.3 609.2 243.3 609.2 255.2 595.4 255.2 595.4 229.5 607.3 229.5 607.3 219.5 573.5 219.5 573.5 229.5 585.4 229.5 585.4 255.2 571.6 255.2 571.6 243.3 561.6 243.3 561.6 255.2 547.8 255.2 547.8 229.5 559.7 229.5 559.7 219.5 537.8 219.5 537.8 231.4 524 231.4 524 219.5 502.1 219.5 502.1 229.5 514 229.5 514 243.3 502.1 243.3 502.1 253.3 524 253.3 524 241.4 537.8 241.4 537.8 279 524 279 524 267.1 502.1 267.1 502.1 277.1 514 277.1 514 290.9 502.1 290.9 502.1 300.9 524 300.9 524 289 537.8 289 537.8 300.9 559.7 300.9 559.7 290.9 547.8 290.9 547.8 265.2 561.6 265.2 561.6 277.1 571.6 277.1 571.6 265.2 585.4 265.2 585.4 290.9 573.5 290.9 573.5 300.9 585.4 300.9 585.4 326.6 571.6 326.6 571.6 314.7 549.7 314.7 549.7 324.7 561.6 324.7 561.6 338.5 549.7 338.5 549.7 348.5 571.6 348.5 571.6 336.6 585.4 336.6 585.4 362.3 573.5 362.3 573.5 372.3 585.4 372.3 585.4 398 571.6 398 571.6 386.1 561.6 386.1 561.6 398 547.8 398 547.8 372.3 559.7 372.3 559.7 362.3 525.9 362.3 525.9 372.3 537.8 372.3 537.8 398 524 398 524 386.1 514 386.1 514 398 500.2 398 500.2 372.3 512.1 372.3 512.1 362.3 500.2 362.3 500.2 336.6 514 336.6 514 348.5 535.9 348.5 535.9 338.5 524 338.5 524 324.7 535.9 324.7 535.9 314.7 514 314.7 514 326.6 500.2 326.6 500.2 314.7 490.2 314.7 490.2 326.6 476.4 326.6 476.4 314.7 454.5 314.7 454.5 324.7 466.4 324.7 466.4 338.5 454.5 338.5 454.5 348.5 476.4 348.5 476.4 336.6 490.2 336.6 490.2 362.3 478.3 362.3 478.3 372.3 490.2 372.3 490.2 398 476.4 398 476.4 386.1 466.4 386.1 466.4 398 452.6 398 452.6 372.3 464.5 372.3 464.5 362.3 430.7 362.3 430.7 372.3 442.6 372.3 442.6 398 428.8 398 428.8 386.1 418.8 386.1 418.8 398 405 398 405 372.3 416.9 372.3 416.9 362.3 405 362.3 405 336.6 418.8 336.6 418.8 348.5 440.7 348.5 440.7 338.5 428.8 338.5 428.8 324.7 440.7 324.7 440.7 314.7 418.8 314.7 418.8 326.6 405 326.6 405 300.9 416.9 300.9 416.9 290.9 405 290.9 405 265.2 418.8 265.2 418.8 277.1 428.8 277.1 428.8 265.2 442.6 265.2 442.6 290.9 430.7 290.9 430.7 300.9 452.6 300.9 452.6 289 466.4 289 466.4 300.9 488.3 300.9 488.3 290.9 476.4 290.9 476.4 277.1 488.3 277.1 488.3 267.1 466.4 267.1 466.4 279 452.6 279 452.6 241.4 466.4 241.4 466.4 253.3 488.3 253.3 488.3 243.3 476.4 243.3 476.4 229.5 488.3 229.5 488.3 219.5 466.4 219.5 466.4 231.4 452.6 231.4 452.6 219.5 430.7 219.5 430.7 229.5 442.6 229.5 442.6 255.2 428.8 255.2 428.8 243.3 418.8 243.3 418.8 255.2 405 255.2 405 229.5 416.9 229.5 416.9 219.5 405 219.5 405 193.8 418.8 193.8 418.8 205.7 440.7 205.7 440.7 195.7 428.8 195.7 428.8 181.9 440.7 181.9 440.7 171.9 418.8 171.9 418.8 183.8 405 183.8 405 158.1 416.9 158.1 416.9 148.1 405 148.1 405 122.4 418.8 122.4 418.8 134.3 428.8 134.3 428.8 122.4 442.6 122.4 442.6 148.1 430.7 148.1 430.7 158.1 464.5 158.1 464.5 148.1 452.6 148.1 452.6 122.4 466.4 122.4 466.4 134.3 476.4 134.3 476.4 122.4 490.2 122.4 490.2 148.1 478.3 148.1 478.3 158.1 490.2 158.1 490.2 183.8 476.4 183.8 476.4 171.9 454.5 171.9 454.5 181.9 466.4 181.9 466.4 195.7 454.5 195.7 454.5 205.7 476.4 205.7 476.4 193.8 490.2 193.8 490.2 205.7 512.1 205.7 512.1 195.7 500.2 195.7 500.2 170 514 170 514 181.9 524 181.9 524 170 537.8 170 537.8 195.7 525.9 195.7 525.9 205.7 547.8 205.7 547.8 193.8 561.6 193.8 561.6 205.7 583.5 205.7 583.5 195.7 571.6 195.7 571.6 181.9 583.5 181.9 583.5 171.9 561.6 171.9 561.6 183.8 547.8 183.8 547.8 146.2 561.6 146.2 561.6 158.1 583.5 158.1 583.5 148.1 571.6 148.1 571.6 134.3 583.5 134.3 583.5 124.3 561.6 124.3 561.6 136.2 547.8 136.2 547.8 124.3 525.9 124.3 525.9 134.3 537.8 134.3 537.8 160 524 160 524 148.1 514 148.1 514 160 500.2 160 500.2 134.3 512.1 134.3 512.1 124.3 500.2 124.3 500.2 110.5 512.1 110.5 512.1 100.5 500.2 100.5 500.2 74.8 514 74.8 514 86.7 524 86.7 524 74.8 537.8 74.8 537.8 100.5 525.9 100.5 525.9 110.5 547.8 110.5 547.8 98.6 561.6 98.6 561.6 110.5 583.5 110.5 583.5 100.5 571.6 100.5 571.6 86.7 583.5 86.7 583.5 76.7 561.6 76.7 561.6 88.6 547.8 88.6 547.8 51 561.6 51 561.6 62.9 583.5 62.9 583.5 52.9 571.6 52.9 571.6 39.1 583.5 39.1 583.5 29.1 561.6 29.1 561.6 41 547.8 41 547.8 29.1 525.9 29.1 525.9 39.1 537.8 39.1 537.8 64.8 524 64.8 524 52.9 514 52.9 514 64.8 500.2 64.8 500.2 39.1 512.1 39.1 512.1 29.1 490.2 29.1 490.2 41 476.4 41 476.4 29.1 454.5 29.1 454.5 39.1 466.4 39.1 466.4 52.9 454.5 52.9 454.5 62.9 476.4 62.9 476.4 51 490.2 51 490.2 76.7 478.3 76.7 478.3 86.7 490.2 86.7 490.2 112.4 476.4 112.4 476.4 100.5 466.4 100.5 466.4 112.4 452.6 112.4 452.6 86.7 464.5 86.7 464.5 76.7 430.7 76.7 430.7 86.7 442.6 86.7 442.6 112.4 428.8 112.4 428.8 100.5 418.8 100.5 418.8 112.4 405 112.4 405 86.7 416.9 86.7 416.9 76.7 405 76.7 405 51 418.8 51 418.8 62.9 440.7 62.9 440.7 52.9 428.8 52.9 428.8 39.1 440.7 39.1 440.7 29.1 418.8 29.1 418.8 41 405 41 405 29.1 383.1 29.1 383.1 39.1 395 39.1 395 64.8 381.2 64.8 381.2 52.9 371.2 52.9 371.2 64.8 357.4 64.8 357.4 39.1 369.3 39.1 369.3 29.1 347.4 29.1 347.4 41 333.6 41 333.6 29.1 311.7 29.1 311.7 39.1 323.6 39.1 323.6 52.9 311.7 52.9 311.7 62.9 333.6 62.9 333.6 51 347.4 51 347.4 88.6 333.6 88.6 333.6 76.7 311.7 76.7 311.7 86.7 323.6 86.7 323.6 100.5 311.7 100.5 311.7 110.5 333.6 110.5 333.6 98.6 347.4 98.6 347.4 110.5 369.3 110.5 369.3 100.5 357.4 100.5 357.4 74.8 371.2 74.8 371.2 86.7 381.2 86.7 381.2 74.8 395 74.8 395 100.5 383.1 100.5 383.1 110.5 395 110.5 395 136.2 381.2 136.2 381.2 124.3 359.3 124.3 359.3 134.3 371.2 134.3 371.2 148.1 359.3 148.1 359.3 158.1 381.2 158.1 381.2 146.2 395 146.2 395 171.9 383.1 171.9 383.1 181.9 395 181.9 395 207.6 381.2 207.6 381.2 195.7 371.2 195.7 371.2 207.6 357.4 207.6 357.4 181.9 369.3 181.9 369.3 171.9 335.5 171.9 335.5 181.9 347.4 181.9 347.4 207.6 333.6 207.6 333.6 195.7 323.6 195.7 323.6 207.6 309.8 207.6 309.8 181.9 321.7 181.9 321.7 171.9 309.8 171.9 309.8 146.2 323.6 146.2 323.6 158.1 345.5 158.1 345.5 148.1 333.6 148.1 333.6 134.3 345.5 134.3 345.5 124.3 323.6 124.3 323.6 136.2 309.8 136.2 309.8 124.3 299.8 124.3 299.8 136.2 286 136.2 286 124.3 264.1 124.3 264.1 134.3 276 134.3 276 148.1 264.1 148.1 264.1 158.1 286 158.1 286 146.2 299.8 146.2 299.8 171.9 287.9 171.9 287.9 181.9 299.8 181.9 299.8 207.6 286 207.6 286 195.7 276 195.7 276 207.6 262.2 207.6 262.2 181.9 274.1 181.9 274.1 171.9 240.3 171.9 240.3 181.9 252.2 181.9 252.2 207.6 238.4 207.6 238.4 195.7 228.4 195.7 228.4 207.6 214.6 207.6 214.6 181.9 226.5 181.9 226.5 171.9 214.6 171.9 214.6 146.2 228.4 146.2 228.4 158.1 250.3 158.1 250.3 148.1 238.4 148.1 238.4 134.3 250.3 134.3 250.3 124.3 228.4 124.3 228.4 136.2 214.6 136.2 214.6 110.5 226.5 110.5 226.5 100.5 214.6 100.5 214.6 74.8 228.4 74.8 228.4 86.7 238.4 86.7 238.4 74.8 252.2 74.8 252.2 100.5 240.3 100.5 240.3 110.5 262.2 110.5 262.2 98.6 276 98.6 276 110.5 297.9 110.5 297.9 100.5 286 100.5 286 86.7 297.9 86.7 297.9 76.7 276 76.7 276 88.6 262.2 88.6 262.2 51 276 51 276 62.9 297.9 62.9 297.9 52.9 286 52.9 286 39.1 297.9 39.1 297.9 29.1 276 29.1 276 41 262.2 41 262.2 29.1 240.3 29.1 240.3 39.1 252.2 39.1 252.2 64.8 238.4 64.8 238.4 52.9 228.4 52.9 228.4 64.8 214.6 64.8 214.6 39.1 226.5 39.1 226.5 29.1 204.6 29.1 204.6 41 190.8 41 190.8 29.1 168.9 29.1 168.9 39.1 180.8 39.1 180.8 52.9 168.9 52.9 168.9 62.9 190.8 62.9 190.8 51 204.6 51 204.6 76.7 192.7 76.7 192.7 86.7 204.6 86.7 204.6 112.4 190.8 112.4 190.8 100.5 180.8 100.5 180.8 112.4 167 112.4 167 86.7 178.9 86.7 178.9 76.7 145.1 76.7 145.1 86.7 157 86.7 157 112.4 143.2 112.4 143.2 100.5 133.2 100.5 133.2 112.4 119.4 112.4 119.4 86.7 131.3 86.7 131.3 76.7 119.4 76.7 119.4 51 133.2 51 133.2 62.9 155.1 62.9 155.1 52.9 143.2 52.9 143.2 39.1 155.1 39.1 155.1 29.1 133.2 29.1 133.2 41 119.4 41 119.4 29.1 97.5 29.1 97.5 39.1 109.4 39.1 109.4 64.8 95.6 64.8 95.6 52.9 85.6 52.9 85.6 64.8 71.8 64.8 71.8 39.1 83.7 39.1 83.7 29.1 61.8 29.1 61.8 41 48 41 48 29.1 26.1 29.1 26.1 39.1 38 39.1 38 52.9 26.1 52.9 26.1 62.9 48 62.9 48 51 61.8 51 61.8 88.6 48 88.6 48 76.7 26.1 76.7 26.1 86.7 38 86.7 38 100.5 26.1 100.5 26.1 110.5 48 110.5 48 98.6 61.8 98.6 61.8 110.5 83.7 110.5 83.7 100.5 71.8 100.5 71.8 74.8 85.6 74.8 85.6 86.7 95.6 86.7 95.6 74.8 109.4 74.8 109.4 100.5 97.5 100.5 97.5 110.5 109.4 110.5 109.4 124.3 97.5 124.3 97.5 134.3 109.4 134.3 109.4 160 95.6 160 95.6 148.1 85.6 148.1 85.6 160 71.8 160 71.8 134.3 83.7 134.3 83.7 124.3 61.8 124.3 61.8 136.2 48 136.2 48 124.3 26.1 124.3 26.1 134.3 38 134.3 38 148.1 26.1 148.1 26.1 158.1 48 158.1 48 146.2 61.8 146.2 61.8 183.8 48 183.8 48 171.9 26.1 171.9 26.1 181.9 38 181.9 38 195.7 26.1 195.7 26.1 205.7 48 205.7 48 193.8 61.8 193.8 61.8 205.7 83.7 205.7 83.7 195.7 71.8 195.7 71.8 170 85.6 170 85.6 181.9 95.6 181.9 95.6 170 109.4 170 109.4 195.7 97.5 195.7 97.5 205.7 119.4 205.7 119.4 193.8 133.2 193.8 133.2 205.7 155.1 205.7 155.1 195.7 143.2 195.7 143.2 181.9 155.1 181.9 155.1 171.9 133.2 171.9 133.2 183.8 119.4 183.8 119.4 158.1 131.3 158.1 131.3 148.1 119.4 148.1 119.4 122.4 133.2 122.4 133.2 134.3 143.2 134.3 143.2 122.4 157 122.4 157 148.1 145.1 148.1 145.1 158.1 178.9 158.1 178.9 148.1 167 148.1 167 122.4 180.8 122.4 180.8 134.3 190.8 134.3 190.8 122.4 204.6 122.4 204.6 148.1 192.7 148.1 192.7 158.1 204.6 158.1 204.6 183.8 190.8 183.8 190.8 171.9 168.9 171.9 168.9 181.9 180.8 181.9 180.8 195.7 168.9 195.7 168.9 205.7 190.8 205.7 190.8 193.8 204.6 193.8 204.6 231.4 190.8 231.4 190.8 219.5 168.9 219.5 168.9 229.5 180.8 229.5 180.8 243.3 168.9 243.3 168.9 253.3 190.8 253.3 190.8 241.4 204.6 241.4 204.6 267.1 192.7 267.1 192.7 277.1 204.6 277.1 204.6 302.8 190.8 302.8 190.8 290.9 180.8 290.9 180.8 302.8 167 302.8 167 277.1 178.9 277.1 178.9 267.1 145.1 267.1 145.1 277.1 157 277.1 157 302.8 143.2 302.8 143.2 290.9 133.2 290.9 133.2 302.8 119.4 302.8 119.4 277.1 131.3 277.1 131.3 267.1 119.4 267.1 119.4 241.4 133.2 241.4 133.2 253.3 155.1 253.3 155.1 243.3 143.2 243.3 143.2 229.5 155.1 229.5 155.1 219.5 133.2 219.5 133.2 231.4 119.4 231.4 119.4 219.5 97.5 219.5 97.5 229.5 109.4 229.5 109.4 255.2 95.6 255.2 95.6 243.3 85.6 243.3 85.6 255.2 71.8 255.2 71.8 229.5 83.7 229.5 83.7 219.5 61.8 219.5 61.8 231.4 48 231.4 48 219.5 26.1 219.5 26.1 229.5 38 229.5 38 243.3 26.1 243.3 26.1 253.3 48 253.3 48 241.4 61.8 241.4 61.8 279 48 279 48 267.1 26.1 267.1 26.1 277.1 38 277.1 38 290.9 26.1 290.9 26.1 300.9 48 300.9 48 289 61.8 289 61.8 300.9 83.7 300.9 83.7 290.9 71.8 290.9 71.8 265.2 85.6 265.2 85.6 277.1 95.6 277.1 95.6 265.2 109.4 265.2 109.4 290.9 97.5 290.9 97.5 300.9 109.4 300.9 109.4 314.7 97.5 314.7 97.5 324.7 109.4 324.7 109.4 350.4 95.6 350.4 95.6 338.5 85.6 338.5 85.6 350.4 71.8 350.4 71.8 324.7 83.7 324.7 83.7 314.7 61.8 314.7 61.8 326.6 48 326.6 48 314.7 26.1 314.7 26.1 324.7 38 324.7 38 338.5 26.1 338.5 26.1 348.5 48 348.5 48 336.6 61.8 336.6 61.8 374.2 48 374.2 48 362.3 26.1 362.3 26.1 372.3 38 372.3 38 386.1 26.1 386.1 26.1 396.1 48 396.1 48 384.2 61.8 384.2 61.8 396.1 83.7 396.1 83.7 386.1 71.8 386.1 71.8 360.4 85.6 360.4 85.6 372.3 95.6 372.3 95.6 360.4 109.4 360.4 109.4 386.1 97.5 386.1 97.5 396.1 119.4 396.1 119.4 384.2 133.2 384.2 133.2 396.1 155.1 396.1 155.1 386.1 143.2 386.1 143.2 372.3 155.1 372.3 155.1 362.3 133.2 362.3 133.2 374.2 119.4 374.2 119.4 348.5 131.3 348.5 131.3 338.5 119.4 338.5 119.4 312.8 133.2 312.8 133.2 324.7 143.2 324.7 143.2 312.8 157 312.8 157 338.5 145.1 338.5 145.1 348.5 178.9 348.5 178.9 338.5 167 338.5 167 312.8 180.8 312.8 180.8 324.7 190.8 324.7 190.8 312.8 204.6 312.8 204.6 338.5 192.7 338.5 192.7 348.5 204.6 348.5 204.6 374.2 190.8 374.2 190.8 362.3 168.9 362.3 168.9 372.3 180.8 372.3 180.8 386.1 168.9 386.1 168.9 396.1 190.8 396.1 190.8 384.2 204.6 384.2 204.6 396.1 226.5 396.1 226.5 386.1 214.6 386.1 214.6 360.4 228.4 360.4 228.4 372.3 238.4 372.3 238.4 360.4 252.2 360.4 252.2 386.1 240.3 386.1 240.3 396.1 262.2 396.1 262.2 384.2 276 384.2 276 396.1 297.9 396.1 297.9 386.1 286 386.1 286 372.3 297.9 372.3 297.9 362.3 276 362.3 276 374.2 262.2 374.2 262.2 336.6 276 336.6 276 348.5 297.9 348.5 297.9 338.5 286 338.5 286 324.7 297.9 324.7 297.9 314.7 276 314.7 276 326.6 262.2 326.6 262.2 314.7 240.3 314.7 240.3 324.7 252.2 324.7 252.2 350.4 238.4 350.4 238.4 338.5 228.4 338.5 228.4 350.4 214.6 350.4 214.6 324.7 226.5 324.7 226.5 314.7 214.6 314.7 214.6 289 228.4 289 228.4 300.9 250.3 300.9 250.3 290.9 238.4 290.9 238.4 277.1 250.3 277.1 250.3 267.1 228.4 267.1 228.4 279 214.6 279 214.6 253.3 226.5 253.3 226.5 243.3 214.6 243.3 214.6 217.6 228.4 217.6 228.4 229.5 238.4 229.5 238.4 217.6 252.2 217.6 252.2 243.3 240.3 243.3 240.3 253.3 274.1 253.3 274.1 243.3 262.2 243.3 262.2 217.6 276 217.6 276 229.5 286 229.5 286 217.6 299.8 217.6 299.8 243.3 287.9 243.3 287.9 253.3 299.8 253.3 299.8 279 286 279 286 267.1 264.1 267.1 264.1 277.1 276 277.1 276 290.9 264.1 290.9 264.1 300.9 286 300.9 286 289 299.8 289 299.8 300.9 309.8 300.9 309.8 289 323.6 289 323.6 300.9 345.5 300.9 345.5 290.9 333.6 290.9 333.6 277.1 345.5 277.1 345.5 267.1 323.6 267.1 323.6 279 309.8 279 309.8 253.3 321.7 253.3 321.7 243.3 309.8 243.3 309.8 217.6 323.6 217.6 323.6 229.5 333.6 229.5 333.6 217.6 347.4 217.6 347.4 243.3 335.5 243.3 335.5 253.3 369.3 253.3 369.3 243.3 357.4 243.3 357.4 217.6 371.2 217.6 371.2 229.5 381.2 229.5 381.2 217.6 395 217.6 395 243.3 383.1 243.3 383.1 253.3 395 253.3 395 279 381.2 279 381.2 267.1 359.3 267.1 359.3 277.1 371.2 277.1 371.2 290.9 359.3 290.9 359.3 300.9 381.2 300.9 381.2 289 395 289 395 314.7 383.1 314.7 383.1 324.7 395 324.7 395 350.4 381.2 350.4 381.2 338.5 371.2 338.5 371.2 350.4 357.4 350.4 357.4 324.7 369.3 324.7 369.3 314.7 347.4 314.7 347.4 326.6 333.6 326.6 333.6 314.7 311.7 314.7 311.7 324.7 323.6 324.7 323.6 338.5 311.7 338.5 311.7 348.5 333.6 348.5 333.6 336.6 347.4 336.6 347.4 374.2 333.6 374.2 333.6 362.3 311.7 362.3 311.7 372.3 323.6 372.3 323.6 386.1 311.7 386.1 311.7 396.1 333.6 396.1 333.6 384.2 347.4 384.2 347.4 396.1 369.3 396.1 369.3 386.1 357.4 386.1 357.4 360.4 371.2 360.4 371.2 372.3 381.2 372.3 381.2 360.4 395 360.4 395 386.1 383.1 386.1 383.1 396.1 395 396.1 395 409.9 383.1 409.9"/><rect class="c" x="301.4" y="157.3" width="65.9" height="15.25" rx="6.9"/><rect class="c" x="332.2" y="143.5" width="4.3" height="19.51"/><path class="d" d="M197.4,276.6s13.3-7.5,0-100.3L216,167s-1.1,104.4,26.2,96.3Z"/><polygon class="d" points="174.3 206.6 175.6 313.3 187.4 296.9 181.2 194.2 174.3 206.6"/><path class="d" d="M471.3,276.6s-13.3-7.5,0-100.3L452.7,167s1,104.4-26.3,96.3Z"/><polygon class="d" points="494.3 206.6 493.1 313.3 481.2 296.9 487.5 194.2 494.3 206.6"/><path class="d" d="M518.8,350.2s-32.6-76.3-64.9-83.3-115.4-6.4-120-6.2-88.8-.7-120.1,6.2-64.9,83.3-64.9,83.3l185-6.1Z"/><path class="e" d="M447.9,243c-.8-6.3-7.5-11-15.5-11H236.2c-8,0-14.7,4.7-15.5,11L208,339.6H460.6Z"/><rect class="e" x="203.5" y="300.3" width="270.1" height="44.48"/><path class="c" d="M486.6,363.6H374L386.7,267c.9-6.2,7.6-11,15.6-11h56.1c8,0,14.7,4.8,15.5,11Z"/><path class="f" d="M319.9,288.7a22.6,22.6,0,0,1,0,15.5c-3.2,8.3-22.4,8.2-24.7,12.3s-1.2,28.4-1.2,28.4H253.2s-2.5-31.4,1.6-42.5c2.6-7.1,17.3-13.6,26.1-16.5Z"/><path class="g" d="M279.6,286.1l-4.5,1.9,18.9,1.9,12.7,2.8s11.8,3.5,11.6,13.9c0,0,5-3.1,2.9-17.8Z"/><path class="g" d="M294,291.9s-23.2,7.7-26,14.3c-4.7,11-2,38.7-2,38.7h5.5s-1.3-33.2,5.1-39.1S294,291.9,294,291.9Z"/><path class="h" d="M284.7,344.9v-1"/><path class="i" d="M284.5,341.9c-.4-7.8-1.3-28.2,2.6-31.4s12.1-4.9,21-11.7"/><path class="h" d="M308.9,298.2l.8-.6"/><path class="j" d="M308.3,288.8s1.4,10.6,10,9.6"/><path class="k" d="M305.5,233.9s35.4,4.7,46.3,27c3.9,8.1,4.5,17-24.9-1.3C307.3,247.4,305.1,240.8,305.5,233.9Z"/><path class="k" d="M321.2,288.8l-41.6-2.7s-2.4-36.6,7.5-48c6.7-7.6,19.1-5.8,26.8-1.5C327.3,244,321.2,288.8,321.2,288.8Z"/><path class="k" d="M293.9,233.7s-34.7,4.7-45.5,27c-4,8.1-4.6,17,24.8-1.3C292.9,247.2,294.4,240.6,293.9,233.7Z"/><path class="l" d="M282.9,246.7s-12.7-5.2-18.3-2.7c-.7.4,7.9,6.9,6.9,7.3-7.2,3.1-13.4,6.1-16.2,10.9-4.2,7.2,21.3-2.4,21.3-2.4l3.6.3s-2.2,16.1-.6,22.2l7.1-13.5s24.8,22.2,27,18.8C317.2,282.1,282.9,246.7,282.9,246.7Z"/><path class="l" d="M317.6,249.5s21.4,3.3,30.4,11.9c6.9,6.6-16.2,1.8-16.2,1.8l-8.5-1.8-.7,2.6s0,10.1-.9,18.3l-2.7-17a74.7,74.7,0,0,0-7-7.9c-4.3-4.2,1.6-2.9,2.4-6A2.6,2.6,0,0,1,317.6,249.5Z"/><path class="k" d="M353,265s4.9,9.8-12.2,5.7-24.4-12.3-24.4-12.3l3.2-6.7C331.2,254.3,344.8,257.9,353,265Z"/><polygon class="m" points="201.1 169.2 340.5 300.7 325.2 300.7 194.1 174.7 201.1 169.2"/><path class="n" d="M247.7,285.9s34.9,2.2,37.7-25.9c1.1-11.1,7.4-15.8,13.9-16"/><line class="o" x1="298" y1="243.6" x2="301.1" y2="243"/><path class="p" d="M292.2,242.3h6a2.3,2.3,0,0,1,2.3,2.3v.4a2.3,2.3,0,0,1-2.3,2.3h-6a0,0,0,0,1,0,0v-5a0,0,0,0,1,0,0Z" transform="translate(631.9 432.3) rotate(169.6)"/><path class="n" d="M301.2,244.1c5.5.5,10.7,4.2,12.2,9.6,3,10.7-9.8,30.3,0,28.1,5-1.1-2-13.5-12.2-3.8-8.3,7.8-2.8,49.4,20.4,43,37.4-10.5,63.3,6.5,63.3,6.5"/><path class="p" d="M300.6,242.6h6a2.3,2.3,0,0,1,2.3,2.3v.4a2.3,2.3,0,0,1-2.3,2.3h-6a0,0,0,0,1,0,0v-5A0,0,0,0,1,300.6,242.6Z" transform="translate(64.6 -63.6) rotate(13.3)"/><path class="k" d="M247,266.1s-3.1,8.1,13.9,3.2,22.3-11.9,22.3-11.9l-3.6-6.5C268.1,254.2,254.8,258.6,247,266.1Z"/><path class="q" d="M289.6,248.6s-7-2.1-10,2.3l3.6,6.5a9.8,9.8,0,0,0,3.8.1c1.6-.3,1.3-1.1,1.3-1.1s4.3-3,2.2-5C290.5,251.4,292,249.3,289.6,248.6Z"/><path class="q" d="M308.7,249s8.2-1.9,10.9,2.7l-3.2,6.7s-1.5,1.1-5.2-.1c-2.1-.7-.9-2.2-.9-2.2s-3.9-2.8-1.9-4.5C308.4,251.6,307.2,249.6,308.7,249Z"/><circle cx="317.6" cy="211" r="4.2"/><circle cx="319" cy="205.5" r="4.2"/><circle cx="287.1" cy="214.5" r="4.2"/><circle cx="283.8" cy="209.7" r="4.2"/><circle cx="298.8" cy="184.1" r="7.9"/><circle cx="307.7" cy="183.2" r="4.2"/><circle cx="289.4" cy="189.4" r="8.2"/><circle cx="281.9" cy="196" r="6.1"/><circle cx="282.6" cy="203.9" r="5.4"/><circle cx="321.8" cy="200.2" r="4.2"/><circle cx="319" cy="192.4" r="6.1"/><circle cx="314.8" cy="185.4" r="4.2"/><path d="M323.1,186.1a5.6,5.6,0,0,1,3.1,7.5S330,186.6,323.1,186.1Z"/><path class="q" d="M307.2,227.9s-3.3,5.9-.2,8.4a15.1,15.1,0,0,1-14.4,0,41.4,41.4,0,0,0-5.6-22.9Z"/><path class="r" d="M307.1,236.3s-3.3-1.4.4-9l-13-4.6S294.4,235.6,307.1,236.3Z"/><path class="q" d="M319.8,208.1s-1.8,20.8-14.2,21.4c-9.2.5-14.4-.6-19.4-14.8,0,0-3.5-2.7-3.7-4.8s0-5.8,5.3-5.8c0,0-.7-14.1,15.7-12.7C321.5,192.9,319.8,208.1,319.8,208.1Z"/><path class="r" d="M307.9,214.6s-7.1-1.3-5.3,1.9S309.6,216.6,307.9,214.6Z"/><ellipse class="e" cx="296.4" cy="212.4" rx="1.2" ry="0.7" transform="matrix(0.1, -1, 1, 0.1, 55.69, 486.35)"/><ellipse class="e" cx="312.8" cy="212.2" rx="1.2" ry="0.7" transform="translate(70.8 502.5) rotate(-84.3)"/><path class="s" d="M306.7,221.3h-4.8a1.3,1.3,0,0,0-.8,2.4,5.3,5.3,0,0,0,6.4,0A1.3,1.3,0,0,0,306.7,221.3Z"/><path class="e" d="M315.5,207.5c-1.8,1.1-3.8,1.3-5.4,2.5.6-1.9,3.6-2.6,5.4-2.5Z"/><path class="e" d="M293.2,207.4c1.8-.4,4.9-.1,5.7,1.8-1.8-1.1-3.8-1-5.7-1.8Z"/><path d="M287.1,210.3s.5-1.7,6.5-11.5c16.2,8.6,16.2-2.2,26.9,8.1,0,0,7.3-20.6-13.4-26.4-2.9-.8-3.4.9-4.1.6-7.4-3.9-16.8,3.5-19.7,10.8-1.6,4-5,19.7,2.9,22.8,0,0-3.7-2.6-3-5.6C283.6,207.9,287.1,210.3,287.1,210.3Z"/><path d="M280.9,184s2.8-4.6,7.6-4.7C288.5,179.3,282.7,177.2,280.9,184Z"/><path d="M276.6,201.3a8.9,8.9,0,0,0-.6,4.7A3,3,0,0,1,276.6,201.3Z"/><path class="t" d="M294.5,240.3s-4.6-4.8-6-8"/><path class="t" d="M290.9,238.1s-8.1-2.6-8.3-4.6"/><path class="t" d="M291.5,241.3s-5.3-.2-6.1-1"/><path class="t" d="M305.3,239.1s5.5-3.2,6.6-5.6"/><path class="t" d="M307.5,240.3s6.7-3.4,8.9-6.6"/><path class="t" d="M310.1,241.3s1.7-1.4,4.7.8"/><path class="u" d="M408.1,284.2h56A24.9,24.9,0,0,1,489,309.2v35.4a0,0,0,0,1,0,0H383.2a0,0,0,0,1,0,0V309.2A24.9,24.9,0,0,1,408.1,284.2Z"/><path class="p" d="M464.1,284.2h-8.4a25.1,25.1,0,0,1,24.9,25v35.4H489V309.2A25.1,25.1,0,0,0,464.1,284.2Z"/><polygon class="f" points="426.9 279.5 447.3 279.5 428.4 248.3 408 248.3 426.9 279.5"/><rect class="u" x="367.5" y="218" width="100.2" height="32.06" rx="4.6"/><path class="f" d="M465.3,288H406.9v-3.8h0a5.7,5.7,0,0,1,5.7-5.6h47a5.7,5.7,0,0,1,5.7,5.6h0Z"/><polygon class="v" points="437.7 278.6 446.8 278.6 427.9 247.4 418.8 247.4 437.7 278.6"/><path class="p" d="M467.7,226.3v19.4a4.7,4.7,0,0,1-4.7,4.6H372.1a4.7,4.7,0,0,1-4.6-4.6v-5.1"/><rect class="f" x="373.3" y="221.3" width="88.4" height="25.58" rx="3.9"/><rect class="w" x="374.6" y="222.6" width="86" height="22.95" rx="3.6"/><circle class="x" cx="440.2" cy="233.9" r="3.3"/><rect class="x" x="389.6" y="236.2" width="42.7" height="5.34"/><circle class="x" cx="382" cy="233.9" r="3.3"/><line class="y" x1="393.3" y1="236.2" x2="393.3" y2="241.5"/><line class="y" x1="397.2" y1="236.2" x2="397.2" y2="241.5"/><line class="y" x1="401.2" y1="236.2" x2="401.2" y2="241.5"/><line class="y" x1="405.1" y1="236.2" x2="405.1" y2="241.5"/><line class="y" x1="409.1" y1="236.2" x2="409.1" y2="241.5"/><line class="y" x1="413.1" y1="236.2" x2="413.1" y2="241.5"/><line class="y" x1="417.1" y1="236.2" x2="417.1" y2="241.5"/><line class="y" x1="421" y1="236.2" x2="421" y2="241.5"/><line class="y" x1="424.9" y1="236.2" x2="424.9" y2="241.5"/><line class="y" x1="428.9" y1="236.2" x2="428.9" y2="241.5"/><path class="w" d="M341.3,331a16.1,16.1,0,0,1-12-5.7c-6.8-7.6-7.3-20-1.4-33.2,9.3-20.8,27.1-25.1,27.8-25.3a4.3,4.3,0,1,1,2,8.4c-.6.1-14.4,3.6-21.9,20.4-4.5,10-4.6,19-.1,24,2.1,2.3,4.9,3.3,7.2,2.6,4.7-1.5,5.5-4.5,6.7-10.7s2.1-10.6,6.8-15.2,14-7.3,22.1-4a33.8,33.8,0,0,1,9.9,6.6,4.3,4.3,0,0,1-6.2,6c-1.1-1.1-11.2-10.7-19.8-2.4-2.8,2.7-3.5,6.6-4.4,10.7-1.2,6.3-2.7,14.1-12.5,17.2A15.2,15.2,0,0,1,341.3,331Z"/><path class="f" d="M356.4,274l-2.7-5.6c0-.1-.1-.3,0-.4a.2.2,0,0,1,.2-.2.2.2,0,0,1,.3,0q.2,0,.3.3l2.6,5.5a.8.8,0,0,1,.1.4c0,.1-.1.2-.2.3h-.3Z"/><path class="f" d="M352.6,275.5l-2.7-5.6c0-.1-.1-.3,0-.4a.2.2,0,0,1,.2-.2.2.2,0,0,1,.3,0q.2,0,.3.3l2.6,5.5a.8.8,0,0,1,.1.4c-.1.1-.1.2-.3.3h-.3C352.7,275.7,352.6,275.6,352.6,275.5Z"/><path class="f" d="M349.2,277.4l-3.2-5.3a.6.6,0,0,1-.1-.4.2.2,0,0,1,.2-.2h.3c.1.1.2.1.3.3l3.2,5.2c.1.2.2.3.1.4l-.2.3h-.3Z"/><path class="f" d="M346.1,279.5l-3.7-4.8-.2-.4c0-.1.1-.2.2-.3h.3l.3.3,3.8,4.8a.8.8,0,0,1,.1.4.4.4,0,0,1-.1.3h-.3C346.3,279.8,346.2,279.7,346.1,279.5Z"/><path class="f" d="M343.2,282.1l-4.2-4.5-.2-.3a.4.4,0,0,1,.1-.3l.4-.2.3.2,4.2,4.5c.2.1.2.2.2.4a.4.4,0,0,1-.1.3h-.3Z"/><path class="f" d="M340.7,284.8l-4.7-4c-.1-.1-.2-.2-.2-.3a.4.4,0,0,1,.1-.3l.3-.2.3.2,4.7,4a.5.5,0,0,1,.2.4.4.4,0,0,1-.1.3H341C340.9,285,340.8,285,340.7,284.8Z"/><path class="f" d="M338.3,287.9l-5-3.6c-.1-.1-.2-.2-.2-.3a.2.2,0,0,1,0-.3l.3-.2h.4l5,3.6c.1.1.2.2.2.3s0,.2,0,.3l-.3.2Z"/><path class="f" d="M336.3,291.1,331,288q-.3-.2-.3-.3c-.1-.1,0-.2,0-.3l.3-.2h.4l5.3,3.1.3.3a.4.4,0,0,1-.1.3.2.2,0,0,1-.2.2Z"/><path class="f" d="M334.5,294.5l-5.5-2.6-.3-.3a.2.2,0,0,1,0-.3.2.2,0,0,1,.2-.2c.1-.1.3,0,.4,0l5.6,2.6c.2.1.2.2.3.3v.4l-.3.2Z"/><path class="f" d="M333.1,298l-5.8-2.1-.3-.3a.2.2,0,0,1,0-.3.2.2,0,0,1,.2-.2.3.3,0,0,1,.4,0l5.8,2.2.3.2v.3c0,.2-.1.2-.2.3Z"/><path class="f" d="M331.9,301.7,326,300c-.2,0-.3-.1-.3-.2a.4.4,0,0,1-.1-.3c0-.1.1-.2.2-.3h.4l6,1.7.3.2c0,.1.1.2,0,.3s-.1.2-.2.3Z"/><path class="f" d="M331.1,305.4l-6-1a.5.5,0,0,1-.4-.2.4.4,0,0,1-.1-.3l.2-.3h.4l6.1,1c.1,0,.3.1.3.2a.4.4,0,0,1,.1.3l-.2.3Z"/><path class="f" d="M330.8,309.2l-6.1-.2h-.4a.5.5,0,0,1,0-.6h.4l6.1.2h.4a.5.5,0,0,1,0,.6Z"/><path class="f" d="M331.1,313l-6.1.9h-.4c-.1-.1-.2-.2-.2-.3a.4.4,0,0,1,.1-.3l.4-.2,6.1-.8h.4a.4.4,0,0,1,.1.3c.1.1,0,.2-.1.3Z"/><path class="f" d="M332.1,316.7l-5.8,2.1h-.4l-.2-.2v-.3l.3-.3,5.8-2.1h.4a.2.2,0,0,1,.2.2.2.2,0,0,1,0,.3C332.4,316.5,332.2,316.6,332.1,316.7Z"/><path class="f" d="M334,319.9l-5,3.7h-.4l-.3-.2c0-.1-.1-.2,0-.3l.2-.3,5-3.6a.5.5,0,0,1,.4-.2c.1.1.2.1.2.2a.4.4,0,0,1,.1.3Z"/><path class="f" d="M336.8,322.4l-3.6,5.1-.3.3h-.3l-.2-.3.2-.4,3.5-5c.1-.2.2-.2.3-.3h.3c.1.1.2.2.2.3Z"/><path class="f" d="M340.2,323.8l-1.1,6c-.1.2-.1.3-.2.4h-.3c-.2,0-.3-.1-.3-.2s-.1-.2-.1-.4l1.2-6a.5.5,0,0,1,.2-.4h.3l.3.2Z"/><path class="f" d="M343.9,323.4l1.6,6a.6.6,0,0,1-.1.4l-.2.2h-.3c-.1,0-.2-.2-.2-.3l-1.6-6a.3.3,0,0,1,0-.4l.2-.2h.4Z"/><path class="f" d="M347,321.6l4,4.7a.8.8,0,0,1,.1.4.4.4,0,0,1-.1.3h-.4l-.3-.2-3.9-4.8c-.1-.1-.2-.3-.1-.4a.4.4,0,0,1,.1-.3h.3C346.8,321.4,346.9,321.4,347,321.6Z"/><path class="f" d="M349.3,318.6l5.5,2.8.3.3a.4.4,0,0,1-.1.3c0,.2-.1.2-.2.3h-.4l-5.5-2.9-.3-.2a.6.6,0,0,1,.1-.4l.2-.2Z"/><path class="f" d="M350.5,315l5.9,1.5.4.2v.4l-.2.2h-.4l-6-1.5-.3-.2a.2.2,0,0,1,0-.3c0-.2.1-.2.2-.3S350.3,314.9,350.5,315Z"/><path class="f" d="M351.2,311.3l6.1,1.2.3.2a.4.4,0,0,1,.1.3c0,.1-.1.2-.2.3h-.4l-6-1.2a.5.5,0,0,1-.4-.2.4.4,0,0,1-.1-.3l.2-.3A.3.3,0,0,1,351.2,311.3Z"/><path class="f" d="M352.1,307.4l6,1.5.3.2a.4.4,0,0,1,.1.3l-.2.3h-.4l-6-1.5-.4-.2v-.4a.2.2,0,0,1,.2-.2Z"/><path class="f" d="M353.5,303.3l5.6,2.4.4.2v.4l-.3.2h-.4l-5.7-2.4-.3-.2v-.4c.1-.1.1-.2.3-.2Z"/><path class="f" d="M355.7,299.5l5,3.6.2.3c.1.1,0,.2,0,.3l-.3.2-.4-.2-5-3.6-.2-.3v-.3l.3-.2Z"/><path class="f" d="M358.9,296.2l3.9,4.7a.4.4,0,0,1,.2.4.4.4,0,0,1-.1.3h-.4l-.3-.2-4-4.7a.8.8,0,0,1-.1-.4.4.4,0,0,1,.1-.3h.3Z"/><path class="f" d="M362.6,293.8l2.8,5.5c.1.1.1.2.1.4a.2.2,0,0,1-.2.2.2.2,0,0,1-.3,0q-.2,0-.3-.3l-2.8-5.4a.8.8,0,0,1-.1-.4l.2-.3h.4C362.5,293.5,362.6,293.6,362.6,293.8Z"/><path class="f" d="M367,292.4l1.3,6c0,.2,0,.3-.1.4a.2.2,0,0,1-.2.2h-.4l-.2-.3-1.2-6.1v-.4l.3-.2h.3A.5.5,0,0,1,367,292.4Z"/><path class="f" d="M371.6,292.2l-.4,6.1c0,.2-.1.3-.1.4h-.3c-.2,0-.3-.1-.3-.2s-.1-.2-.1-.3l.4-6.2c0-.2,0-.3.1-.4h.3l.3.2C371.6,291.9,371.6,292,371.6,292.2Z"/><path class="f" d="M376,293.1l-1.8,5.9c0,.1-.1.2-.2.3h-.3l-.3-.2v-.4l1.8-5.9c0-.1.1-.2.2-.3a.2.2,0,0,1,.3,0c.2,0,.2.1.3.2Z"/><path class="f" d="M380,294.8l-2.8,5.5-.2.3h-.4c-.1,0-.1-.1-.2-.2a.6.6,0,0,1,.1-.4l2.8-5.5c0-.2.1-.3.2-.3h.4l.2.3A.8.8,0,0,1,380,294.8Z"/><path class="f" d="M383.6,297l-3.5,5-.3.3h-.3c-.1,0-.2-.1-.2-.3a.4.4,0,0,1,.1-.3l3.5-5.1.3-.3h.3c.1.1.2.2.2.3A.8.8,0,0,1,383.6,297Z"/><path class="f" d="M387.1,300.3l-5,3.5h-.4l-.3-.2c0-.1-.1-.2,0-.3l.2-.3,5.1-3.5c.1-.1.2-.2.4-.1s.2,0,.2.1.1.2.1.4S387.3,300.2,387.1,300.3Z"/><path class="z" d="M368,272.9c-4,1.3-8.1-.4-9.1-3.8s1.3-7,5.2-8.3"/><path class="aa" d="M388.6,295.9s2.4,7.7-4.5,11.3"/><path class="w" d="M486.4,304.9a4.4,4.4,0,0,1-4.2-3,4.3,4.3,0,0,1,2.8-5.4c.5-.2,26.1-8.6,30.6-24.9,2.1-7.8-1.1-16.6-9.6-26.1-6.2-7-12.3-10.4-17.7-13.4-13-7.2-20.9-13.1-18.8-43.7a4.3,4.3,0,0,1,4.6-4,4.3,4.3,0,0,1,4,4.6c-1.8,26.6,4,29.8,14.4,35.6,5.7,3.1,12.7,7,19.9,15.2,10.6,11.8,14.4,23.3,11.5,34.1-5.8,20.9-35,30.4-36.2,30.8Z"/><path class="f" d="M476.5,190.3h-6.1l-.4-.2c-.1,0-.1-.1-.1-.3a.4.4,0,0,1,.1-.3h.4l6.2.2h.3l.2.3-.2.3Z"/><path class="f" d="M476.3,194.2l-6.1-.2h-.4a.5.5,0,0,1,0-.6h.4l6.2.2h.3c.1.1.2.2.2.3s-.1.3-.2.3Z"/><path class="f" d="M476.3,198.1h-6.6a.4.4,0,0,1-.1-.3c0-.2,0-.3.1-.3a.5.5,0,0,1,.4-.2h6.6v.3c0,.1-.1.2-.2.3Z"/><path class="f" d="M476.4,201.9l-6.2.3h-.4a.5.5,0,0,1,0-.6l.4-.2,6.1-.2h.4c.1,0,.2.1.2.3l-.2.3Z"/><path class="f" d="M476.7,205.7l-6.1.7h-.4l-.2-.3a.4.4,0,0,1,.1-.3h.4l6.1-.7h.4c.1,0,.1.1.1.2s0,.3-.1.3Z"/><path class="f" d="M477.3,209.5l-6,1.2c-.2.1-.3.1-.4,0s-.2-.1-.2-.3a.4.4,0,0,1,.1-.3l.3-.2,6-1.2h.4l.2.3c.1.1,0,.2,0,.3Z"/><path class="f" d="M478.4,213.1l-5.8,2.1c-.2.1-.3.1-.4,0l-.2-.2a.2.2,0,0,1,0-.3l.3-.3,5.8-2h.4l.2.3a.2.2,0,0,1,0,.3Z"/><path class="f" d="M480.1,216.6l-5.3,3.1h-.4l-.3-.2a.2.2,0,0,1,0-.3c0-.2.1-.3.2-.3l5.3-3.2h.4l.3.2a.3.3,0,0,1,0,.4Z"/><path class="f" d="M482.4,219.5l-4.5,4.2-.4.2h-.3c-.1-.1-.1-.2-.1-.4l.2-.3,4.5-4.2h.7a.4.4,0,0,1,.1.3C482.6,219.3,482.5,219.4,482.4,219.5Z"/><path class="f" d="M485.3,222l-3.7,4.9-.3.3h-.4a.4.4,0,0,1-.1-.3.8.8,0,0,1,.1-.4l3.7-4.9.3-.2h.4c.1,0,.1.1.1.2S485.4,221.9,485.3,222Z"/><path class="f" d="M488.5,224.1l-3.2,5.3-.3.2h-.3l-.2-.3a.8.8,0,0,1,.1-.4l3.2-5.2a.3.3,0,0,1,.3-.3h.3l.2.3A.8.8,0,0,1,488.5,224.1Z"/><path class="f" d="M491.8,226l-3,5.3q-.2.3-.3.3h-.3c-.1-.1-.2-.1-.2-.3a.8.8,0,0,1,.1-.4l3-5.3c.1-.2.1-.3.3-.3s.2,0,.3,0l.2.3A.8.8,0,0,1,491.8,226Z"/><path class="f" d="M495.2,227.8l-3.1,5.4-.3.3h-.3a.2.2,0,0,1-.2-.2c0-.2,0-.3.1-.4l3-5.4.3-.2h.4c.1.1.1.1.1.3S495.2,227.7,495.2,227.8Z"/><path class="f" d="M498.5,229.9l-3.3,5.2-.3.3h-.3l-.2-.3a.4.4,0,0,1,.1-.3l3.3-5.3.3-.2h.4a.4.4,0,0,1,.1.3C498.7,229.6,498.6,229.8,498.5,229.9Z"/><path class="f" d="M501.8,232.1l-3.6,5q-.1.3-.3.3h-.3c-.1,0-.2-.1-.2-.3l.2-.3,3.6-5q.2-.3.3-.3h.3c.1.1.2.2.2.3Z"/><path class="f" d="M505,234.6l-3.9,4.8-.4.2h-.3a.4.4,0,0,1-.1-.3.8.8,0,0,1,.1-.4l4-4.7.3-.2h.3c.1.1.2.1.2.3Z"/><path class="f" d="M508,237.3l-4.3,4.5-.3.2h-.3a.4.4,0,0,1-.1-.3c0-.2,0-.3.1-.4l4.3-4.5.3-.2.3.2c.1,0,.2.1.2.3Z"/><path class="f" d="M510.8,240.2l-4.5,4.2-.4.2-.3-.2a.4.4,0,0,1-.1-.3l.2-.3,4.5-4.2.4-.2h.3c.1.1.1.2.1.4Z"/><path class="f" d="M513.4,243.2l-4.8,3.9-.3.2-.3-.2c-.1,0-.1-.2-.1-.3s.1-.2.2-.3l4.8-3.9.3-.2c.2,0,.3.1.3.2a.4.4,0,0,1,.1.3Z"/><path class="f" d="M515.8,246.4l-5,3.6-.3.2-.3-.2a.4.4,0,0,1-.1-.3q0-.1.3-.3l5-3.6.3-.2.3.2a.4.4,0,0,1,.1.3Q516.1,246.3,515.8,246.4Z"/><path class="f" d="M518.1,249.8l-5.3,3.2c-.1.1-.3.2-.4.1h-.2a.6.6,0,0,1-.1-.4l.3-.3,5.2-3.2h.4l.3.2a.2.2,0,0,1,0,.3Z"/><path class="f" d="M520,253.4l-5.5,2.7h-.4a.2.2,0,0,1-.2-.2.4.4,0,0,1-.1-.3l.3-.3,5.5-2.8h.4l.3.2v.3Q520.3,253.3,520,253.4Z"/><path class="f" d="M521.6,257.2l-5.8,2.1h-.4l-.2-.3v-.3l.3-.3,5.8-2.1h.4c.1.1.2.1.2.2s.1.3,0,.4S521.8,257.2,521.6,257.2Z"/><path class="f" d="M522.7,261.3l-6,1.3h-.4l-.2-.3a.4.4,0,0,1,.1-.3.5.5,0,0,1,.4-.2l6-1.4h.4c.1,0,.1.1.2.2s0,.3-.1.4Z"/><path class="f" d="M523.3,265.5l-6.2.4h-.3c-.1-.1-.2-.2-.2-.3a.4.4,0,0,1,.1-.3h.4l6.1-.4h.4c.1,0,.2.1.2.3v.3Z"/><path class="f" d="M523.1,269.8l-6.1-.6a.5.5,0,0,1-.4-.2c0-.1-.1-.2-.1-.3l.2-.3h.4l6.1.7h.4c.1.1.1.2.1.4a.2.2,0,0,1-.2.2Z"/><path class="f" d="M522.3,274l-5.9-1.8-.4-.2v-.4a.2.2,0,0,1,.2-.2h.4l5.9,1.8c.2,0,.3.1.3.2a.4.4,0,0,1,.1.3c0,.1-.1.2-.2.3Z"/><path class="f" d="M520.7,278l-5.6-2.5-.3-.3v-.3l.3-.3h.4l5.6,2.6.3.2v.4l-.3.2Z"/><path class="f" d="M518.6,281.7l-5.2-3.3-.2-.3c-.1-.1,0-.2,0-.3l.3-.2h.4l5.2,3.3c.1.1.2.2.2.3v.4H519C518.9,281.9,518.7,281.8,518.6,281.7Z"/><path class="f" d="M516.1,285l-4.7-3.9c-.2-.1-.2-.2-.3-.3a1,1,0,0,1,.1-.3l.3-.2.4.2,4.7,3.9.3.3c0,.1-.1.2-.1.3l-.3.2A.5.5,0,0,1,516.1,285Z"/><path class="f" d="M513.3,288l-4.3-4.4c-.2-.1-.2-.2-.2-.3a.4.4,0,0,1,.1-.3h.3c.1,0,.2,0,.4.2l4.3,4.3c.1.2.2.3.2.4l-.2.3h-.3Z"/><path class="f" d="M510.2,290.7l-3.9-4.7a.5.5,0,0,1-.2-.4c0-.1.1-.2.2-.3s.2-.1.3,0,.2,0,.3.2l4,4.7a.6.6,0,0,1,.1.4.4.4,0,0,1-.1.3h-.3Z"/><path class="f" d="M507.1,293.2l-3.7-5a.8.8,0,0,1-.1-.4c0-.1.1-.2.2-.3s.2-.1.3,0l.3.2,3.6,5a.5.5,0,0,1,.2.4c-.1.1-.1.2-.2.2h-.3C507.3,293.4,507.1,293.3,507.1,293.2Z"/><path class="f" d="M503.7,295.4l-3.3-5.2a.6.6,0,0,1-.1-.4.2.2,0,0,1,.2-.2h.3l.3.3,3.3,5.2a.4.4,0,0,1,.1.3c0,.2-.1.3-.2.3H504Z"/><path class="f" d="M500.3,297.4l-3-5.4a.4.4,0,0,1-.1-.3c0-.2.1-.2.2-.3h.3l.3.2,3,5.4a.8.8,0,0,1,.1.4c0,.1-.1.2-.2.3h-.3C500.5,297.6,500.4,297.6,500.3,297.4Z"/><path class="f" d="M496.7,299.3l-2.7-5.6a.4.4,0,0,1-.1-.3l.2-.3c.2-.1.3-.1.4,0s.2.1.3.3l2.7,5.5a.6.6,0,0,1,.1.4l-.3.2a.2.2,0,0,1-.3,0Z"/><path class="f" d="M493.1,300.9l-2.4-5.6a.8.8,0,0,1-.1-.4l.2-.3h.4l.2.3,2.5,5.7a.6.6,0,0,1,.1.4l-.3.2a.2.2,0,0,1-.3,0Q493.3,301.2,493.1,300.9Z"/><path class="f" d="M489.2,302.5l-1.8-5.9c-.1-.2-.1-.3,0-.4a.2.2,0,0,1,.2-.2c.1-.1.2,0,.3,0l.3.3,1.8,5.9c.1.2.1.3,0,.4l-.2.2h-.3Z"/><path class="z" d="M480.4,178.4c0,4.2-2.9,7.5-6.4,7.5s-6.3-3.3-6.3-7.5"/><path class="aa" d="M483.6,295.9s-2.2,7.8,5.3,10.9"/><rect class="p" x="435.1" y="296.3" width="35.7" height="11.03"/><rect class="ab" x="435.1" y="309.1" width="35.7" height="3.16"/><circle class="ab" cx="438.9" cy="300.4" r="1.9"/><circle class="ab" cx="444.3" cy="300.4" r="1.9"/><circle class="ab" cx="449.8" cy="300.4" r="1.9"/><circle class="ab" cx="426.3" cy="301.8" r="5.3"/><rect class="p" x="402.3" y="296.3" width="5.7" height="15.97"/><rect class="ab" x="403.7" y="297.9" width="2.9" height="12.8"/><rect class="p" x="402.3" y="316.8" width="68.4" height="27.81"/><rect class="ab" x="405.1" y="320.4" width="62.5" height="24.22"/><circle class="u" cx="411.6" cy="326.7" r="1.9"/><circle class="u" cx="417.1" cy="326.7" r="1.9"/><circle class="u" cx="422.5" cy="326.7" r="1.9"/><path class="c" d="M294.6,363.6H182L194.7,267c.8-6.2,7.6-11,15.6-11h56.1c8,0,14.7,4.8,15.5,11Z"/><circle cx="208.4" cy="282.3" r="11.2"/><circle cx="253.6" cy="252.4" r="11.6"/><circle cx="253.6" cy="273.1" r="11.6"/><circle cx="221.1" cy="270.7" r="11.6"/><circle cx="221.1" cy="255" r="11.6"/><circle cx="209.6" cy="265.5" r="7.6"/><circle cx="264" cy="261.8" r="7.6"/><path d="M269.1,253.3s7.3,2.7,4.5,10.7C273.6,264,278.8,254,269.1,253.3Z"/><path class="t" d="M288.2,365.8l-105.5-.2s-14.3-67.7,28.8-89.2c16-8,36.4-6.9,50.7-.5C298.6,292,288.2,365.8,288.2,365.8Z"/><path class="q" d="M247,264.4s-2.9,10.9,2,16.1c0,0-10.2,9.2-25.7.6,0,0,4.8-20.4-4.8-37.2Z"/><path class="r" d="M246.7,276.3s-1.3-4.8.6-12.8L229,257.1S228.8,275.3,246.7,276.3Z"/><path class="q" d="M264.8,236.5s-7.9,28.6-20,30.2c-6.3.8-18.2-1.3-27.4-21,0,0-4.9-3.8-5.2-6.8s3-9.6,10.6-3.8c0,0-4.3-24.3,18.9-22.3C267.2,215,264.8,236.5,264.8,236.5Z"/><path class="r" d="M241.6,243.7s-2.3,10.2,2.2,8.2S244.3,241.6,241.6,243.7Z"/><ellipse class="e" cx="234.1" cy="242.6" rx="1.7" ry="1" transform="translate(-30.4 451.6) rotate(-84.3)"/><ellipse class="e" cx="253.7" cy="242.2" rx="1.7" ry="1" transform="translate(-12.4 470.8) rotate(-84.3)"/><path class="s" d="M235.5,259.7a35.6,35.6,0,0,1,10.5,0S242.6,250.7,235.5,259.7Z"/><path class="e" d="M247.5,241.4c2.6-1.5,5.5-1.7,7.8-3.5-.9,2.8-5.2,3.7-7.8,3.5Z"/><path class="e" d="M235.5,240.6c-2.5.2-6.8-.8-7.7-3.5,2.3,1.8,5.2,2,7.7,3.5Z"/><path d="M215,239.3s18.2-5.7,26.8-19.4c0,0,15.1,15.8,23,16.6,0,0,11.3-30.8-18-39-4-1.1-4.8,1.3-5.7.8-10.4-5.5-23.7,4.9-27.9,15.3-2.2,5.7-7.3,23.6,4.2,32.1,0,0-6-6.1-5.1-8.5S215,239.3,215,239.3Z"/><path d="M264.8,205.8s5.7,6.7,4.7,15.7C269.5,221.5,273.8,211.3,264.8,205.8Z"/><path d="M206.2,221.8s-1,3.1.2,8.9C206.4,230.7,202.1,225.3,206.2,221.8Z"/><path d="M249.2,234.2s2.6-9.9-5.2-13.3C244,220.9,249,228.8,249.2,234.2Z"/><path d="M227.8,235.5s17.9-3,14.5-18.3C242.3,217.2,239,226.3,227.8,235.5Z"/><path d="M244.5,235.3s6.9-9.8-.4-16.6C244.1,218.7,246.4,229.4,244.5,235.3Z"/><path d="M238.9,235.2s10.6-9.3,4.2-19.1C243.1,216.1,242.7,229,238.9,235.2Z"/><polygon class="ac" points="199.5 284.8 193.2 292 236.3 334.5 259.3 334.6 199.5 284.8"/><polygon class="ac" points="197.2 334.6 208.4 302.8 213.8 334.6 197.2 334.6"/><polygon class="ac" points="273.2 335.4 264.9 303.3 254.7 327.6 251.4 335.4 273.2 335.4"/><polygon class="m" points="162.7 250.7 258.6 332.6 243.2 332.6 160.7 260.6 162.7 250.7"/><circle class="ad" cx="236.3" cy="335.4" r="31.9"/><path class="c" d="M444.6,339.6H224c-52.2,2.1-78.5,7.3-78.5,15.4H523.2C523.2,346.9,496.8,341.7,444.6,339.6Z"/><path class="c" d="M291.4,334.6a73.2,73.2,0,0,0-17.4-2H202.6a73.2,73.2,0,0,0-17.4,2c-12.2,2.9-18.4,7.8-18.4,14.7h143C309.8,342.4,303.6,337.5,291.4,334.6Z"/><rect class="m" x="154.2" y="534" width="360.1" height="26.02"/><rect class="m" x="486.6" y="514.8" width="83.7" height="88.83" rx="25.3"/><rect class="m" x="98.3" y="514.8" width="83.7" height="88.83" rx="25.3"/><path class="c" d="M570.3,575V553.5A25.3,25.3,0,0,0,545,528.2H511.9a25.4,25.4,0,0,0-25.3,25.3V575Z"/><path class="c" d="M182,575V553.5a25.3,25.3,0,0,0-25.3-25.3H123.6a25.4,25.4,0,0,0-25.3,25.3V575Z"/><path class="ae" d="M529.8,350h-390L79.9,411.2A57.3,57.3,0,0,0,64,458.6l10.9,84.5a7.5,7.5,0,0,0,7.4,6.5h504a7.5,7.5,0,0,0,7.4-6.5l10.9-84.7A56.9,56.9,0,0,0,589,411.3Z"/><polygon class="ae" points="204 547.4 77.2 547.4 89.3 568.6 187.1 568.6 204 547.4"/><polygon class="ae" points="464.6 547.4 591.4 547.4 579.3 568.6 481.5 568.6 464.6 547.4"/><path class="x" d="M333.9,495.2h0C155.1,497.8,68.8,474,68.8,474c22.7,33,264.4,29.4,265.3,29.4S576.6,507,599.4,474c0,0-86.3,23.8-265.2,21.2h0"/><path class="m" d="M334.3,519.2H133.2v2.2c0,11.6,25.7,21,57.4,21H478.1c31.7,0,57.4-9.4,57.4-21v-2.2Z"/><path class="d" d="M334.3,515.8H135.4a2.2,2.2,0,0,0-2.2,2.2h0c0,11.6,25.7,21,57.4,21H478.1c31.7,0,57.4-9.4,57.4-21h0a2.2,2.2,0,0,0-2.2-2.2Z"/><path class="af" d="M585.1,424.6,457.4,443.9s-6,30.6-35.1,35.3-84.4,4-87.9,4h-.2c-3.4,0-59.6.5-87.8-4s-35.2-35.3-35.2-35.3L83.5,424.6S70.2,435.4,73.6,466c0,0,85.7,22.8,260.6,22.8h.2c174.9,0,260.7-22.8,260.7-22.8C598.4,435.4,585.1,424.6,585.1,424.6Z"/><path class="d" d="M231.4,439.8c-6.7,0-10.8,8.2-7,14.1,4.9,7.7,13.2,15.7,26.7,17.9,26.7,4.3,79.9,3.8,83.1,3.8h.2c3.3,0,56.4.5,83.2-3.8,13.4-2.2,21.7-10.2,26.6-17.9,3.8-5.9-.2-14.1-6.9-14.1Z"/><line class="ag" x1="230.7" y1="447.3" x2="437.9" y2="447.3"/><line class="ag" x1="232.3" y1="453.9" x2="436.4" y2="453.9"/><line class="ag" x1="241.4" y1="460.6" x2="427.3" y2="460.6"/><line class="ag" x1="254.9" y1="467.3" x2="413.7" y2="467.3"/><path class="ah" d="M87.2,438.6a59.1,59.1,0,0,0-1.7,12.2c-.5,7.7,4.2,14.6,11.1,16,22.3,4.6,71.4,13.7,84.2,8.8s-6.2-23.6-16-32a19.9,19.9,0,0,0-10.8-5L97.6,431C93,430.4,88.6,433.6,87.2,438.6Z"/><path class="t" d="M109.3,432.5,97.6,431c-4.6-.6-9,2.6-10.4,7.6a59.1,59.1,0,0,0-1.7,12.2c-.5,7.7,4.2,14.6,11.1,16l11.6,2.3Z"/><path class="x" d="M99.8,463.8c-7.1-1.4-12.1-8.3-11.6-16a65.3,65.3,0,0,1,1.9-12.2,9.4,9.4,0,0,1,1.5-3.2,10.6,10.6,0,0,0-4.4,6.2,59.1,59.1,0,0,0-1.7,12.2c-.5,7.7,4.2,14.6,11.1,16,22.3,4.6,71.4,13.7,84.2,8.8a8.6,8.6,0,0,0,3.3-2.2C166.9,476.2,121.4,468,99.8,463.8Z"/><path class="s" d="M119.7,439.3a169.8,169.8,0,0,1,17.5,1.6,130.7,130.7,0,0,1,17.4,3.5,12.3,12.3,0,0,1,2.3,1.1,70.5,70.5,0,0,1,12.5,9.4c4.2,4.1,8.4,8.6,10.6,14.1a44.4,44.4,0,0,0-5.6-6.6,117,117,0,0,0-13.5-10.9c-2.3-1.5-4.7-3.3-7.2-4.2-11-3.2-22.9-5.1-34-8Z"/><path class="ah" d="M581.4,438.6a65.4,65.4,0,0,1,1.8,12.2c.5,7.7-4.3,14.6-11.1,16-22.4,4.6-71.4,13.7-84.3,8.8s6.3-23.6,16-32a19.9,19.9,0,0,1,10.9-5L571,431C575.7,430.4,580,433.6,581.4,438.6Z"/><path class="t" d="M559.4,432.5,571,431c4.7-.6,9,2.6,10.4,7.6a65.4,65.4,0,0,1,1.8,12.2c.5,7.7-4.3,14.6-11.1,16l-11.7,2.3Z"/><path class="x" d="M568.9,463.8c7.1-1.4,12-8.3,11.5-16a52,52,0,0,0-1.9-12.2,11.5,11.5,0,0,0-1.4-3.2,10.5,10.5,0,0,1,4.3,6.2,65.4,65.4,0,0,1,1.8,12.2c.5,7.7-4.3,14.6-11.1,16-22.4,4.6-71.4,13.7-84.3,8.8a8.2,8.2,0,0,1-3.2-2.2C501.7,476.2,547.2,468,568.9,463.8Z"/><path class="s" d="M549,439.3c-11.1,2.9-23.1,4.8-34.1,8-2.5.9-4.9,2.7-7.1,4.2a102.1,102.1,0,0,0-13.5,10.9,39.7,39.7,0,0,0-5.7,6.6,35,35,0,0,1,4.6-7.6,71.2,71.2,0,0,1,12.9-12.2c2.5-1.8,4.9-3.7,7.9-4.8a165.2,165.2,0,0,1,35-5.1Z"/><path class="q" d="M218,313.9s-8.1-8.7-11.7-5.6a2.8,2.8,0,0,0-1.1,3.4,2.9,2.9,0,0,0-2.3.8c-2.4,2.2-.5,4.2-.5,4.2s-5.4.9-3,5.8c-3.1,1.7-2.6,4.9.8,6.2s8.2,2.6,10.5,2,.9-3.8.9-3.8,5.6-.8,1.8-4.8c0,0,5.7.4,2-4.2h-.1C216.9,317.9,220.8,317.6,218,313.9Z"/><line class="ai" x1="214.3" y1="317.2" x2="206.6" y2="313"/><line class="ai" x1="212.7" y1="321.7" x2="203.5" y2="318.3"/><line class="ai" x1="210.9" y1="326.6" x2="201.8" y2="324.1"/><path class="q" d="M254.1,314.7s8.1-8.8,11.8-5.6a2.7,2.7,0,0,1,1,3.3,3.1,3.1,0,0,1,2.3.8,2.9,2.9,0,0,1,.5,4.3s5.4.9,3,5.8c3.2,1.6,2.6,4.9-.8,6.2s-8.2,2.6-10.4,2-.9-3.8-.9-3.8-5.6-.8-1.9-4.8c0,0-5.6.4-2-4.3h.1C255.3,318.6,251.4,318.4,254.1,314.7Z"/><line class="ai" x1="257.8" y1="318" x2="265.6" y2="313.8"/><line class="ai" x1="259.5" y1="322.5" x2="268.6" y2="319.1"/><line class="ai" x1="261.2" y1="327.4" x2="270.3" y2="324.8"/><path class="aj" d="M144.4,355s3.5-124.8,44.4-178.5l6.6-4.3c27.9-17.2,80.2-26,140.1-26,58.2,0,109.3,10.2,137.8,26.6l6.4,5.7C520.6,232.2,524.2,355,524.2,355"/><path class="x" d="M222.7,431.3s-9.4.3-11.8,12.6l-76.4-88.7,5-5.2Z"/><path class="x" d="M446,431.3s9.4.3,11.7,12.6L535,355.2l-5.1-5.2Z"/><path class="s" d="M586.2,347.3c-8.1,0-27.3-1.8-29.9-17.8-3.7-22.8-3.7-22.8-3.5-71.1v-2.6h0a2.2,2.2,0,0,0-.2-1l-.9-.2c-.8,0-2.3.3-5,1.8a6.4,6.4,0,0,1-3.1.9c-3.6,0-6.2-3.4-8.7-6.6s-4.2-5.3-6.3-5.3a3.3,3.3,0,0,0-1.6.5c-6.9,4-17.8,10.9-29,18.4-4.7,3.2-14.3,7.7-19.4,7.7-1.8,0-3.1-.6-3.7-1.7s.2-5.1,3.6-9.8,3.4-6.3,3.3-6.5-.3-.3-1.1-.3-10.7,3.4-15.7,5.6l-4.4,1.9,3.3-3.5c.5-.5,11.8-12.5,20.1-12.5a7.1,7.1,0,0,1,4.1,1.2c4,2.7,1.9,7.8.6,10.8l-.6,1.7a74.7,74.7,0,0,0,8.8-5,127.8,127.8,0,0,0,11.9-9.2c8-6.7,15.6-13,22-13a8.4,8.4,0,0,1,6.3,2.8c1.5,1.6,2.7,3,3.7,4.2,2.5,2.9,3.9,4.6,5.5,4.6s4.9-2.2,10.4-6.8a47.2,47.2,0,0,0,4.5-4.3c5.2-5.3,9.3-9.5,27.8-9.5h5.4c7.6.2,20.8.4,39.1.4,31.1,0,66.8-.4,67.2-.4s20,.1,21.9,14.8-.9,84.3-1,88.1a18.8,18.8,0,0,1-4.9,13.5c-4.8,5.3-12.7,8-23.5,8H589.4A12,12,0,0,1,586.2,347.3Z"/><path class="f" d="M589.1,223.6h5.4c8.6.3,23.3.4,39.1.4,31.4,0,67.2-.4,67.2-.4s19.1,0,20.9,14-1,87.9-1,87.9,2,20.5-27.4,20.5H589.4a23.3,23.3,0,0,1-3.2.2c-7.6,0-26.4-1.6-28.9-17-3.7-23-3.7-22.6-3.4-73.4a2,2,0,0,0-2.1-2.4c-1.1,0-2.9.5-5.5,1.9a5.6,5.6,0,0,1-2.6.8c-6,0-9.7-11.9-15-11.9a3.5,3.5,0,0,0-2.1.7c-7.5,4.3-18.8,11.5-29.1,18.4-4.6,3.1-13.9,7.5-18.8,7.5s-4.7-2.5.7-9.9,4.5-8.4,1.4-8.4-16.1,5.7-16.1,5.7,11.4-12.2,19.4-12.2a6,6,0,0,1,3.5,1c5.4,3.7-2.6,12.8,0,12.8,1.1,0,3.9-1.5,9.9-5.3,11.1-7,24.2-22,33.4-22a7.5,7.5,0,0,1,5.6,2.5c5.2,5.6,7,9.1,9.9,9.1s5.2-2.2,11-7c8.7-7.2,8.7-13.6,31.7-13.6m0-2c-19,0-23.2,4.3-28.5,9.8a47.2,47.2,0,0,1-4.5,4.3c-5,4.2-8,6.5-9.7,6.5s-2.3-1.4-4.7-4.2l-3.7-4.3a9.7,9.7,0,0,0-7.1-3.1c-6.7,0-14.5,6.4-22.7,13.2a101.3,101.3,0,0,1-11.8,9.1c-3,2-5,3.1-6.3,3.9,1.2-3.2,3-8.4-1.4-11.3a7.8,7.8,0,0,0-4.6-1.4c-8.6,0-19.6,11.5-20.8,12.8l-6.6,7,8.8-3.8c6.2-2.6,13.8-5.5,15.3-5.5h.1a23.4,23.4,0,0,1-3.1,5.2c-3.7,5.1-4.8,8.5-3.6,10.8s1.7,2.3,4.5,2.3c5.4,0,15-4.5,19.9-7.8,11.3-7.6,22.1-14.5,29-18.4a2.5,2.5,0,0,1,1.1-.4c1.6,0,3.7,2.6,5.5,4.9s5.4,7,9.5,7a8.1,8.1,0,0,0,3.6-1c2.7-1.5,4-1.7,4.5-1.7h.1v.2h.1v2.5c-.2,48.4-.2,48.4,3.5,71.2h0c1.2,7.2,6,12.7,13.8,15.7a47.5,47.5,0,0,0,17.1,2.9,16.4,16.4,0,0,0,3.2-.2H693.3c11.1,0,19.2-2.8,24.3-8.3a20.1,20.1,0,0,0,5.1-14.2c.2-4.4,2.7-74.3,1-88.2-1.6-12.4-15.7-15.7-22.9-15.7-.4,0-36.1.4-67.2.4-18.3,0-31.4-.2-39-.4Z"/><path class="f" d="M567,239.3v-3.2l1.3,1.2V239l-.8.8Zm1.3,1.7v1.9l-1.3,1.3v-3.5l.5-.4Zm3.7-5.1-1.2,1.2h-2.3l-1.2-1.2Zm-1,3.5.6.6-.6.7h-2.7l-.6-.7.6-.6Zm0-.4v-1.6l1.3-1.3v3.2l-.5.5Zm1.3,1.7v3.5l-1.3-1.3V241l.8-.7Z"/><path class="f" d="M573.7,239.3v-3.2l1.2,1.2V239l-.8.8Zm1.2,1.7v1.9l-1.2,1.3v-3.5l.4-.4Zm3.1-4.5-.6.6h-2.3l-1.2-1.2h3.5Zm-.4,2.9.6.6-.6.7H575l-.7-.7.7-.6Zm-2.2,2.4v-.9h.9l2.4,2.4v.9h-.9Zm3.5-2.5-.5.5-.7-.8v-1.6l.6-.6.6.6Z"/><path class="f" d="M580.3,239.3v-3.2l1.2,1.2V239l-.8.8Zm1.2,1.7v1.7l-1.2,1.2v-3.2l.4-.4Zm4-5.1-1.2,1.2h-2.6l-1.2-1.2Zm0,8.3h-5l1.2-1.3h2.6Zm-1.3-4.8.6.6-.6.7h-2.6l-.6-.7.6-.6Z"/><path class="f" d="M591.2,239l-.8.8-.4-.5v-3.4l1.2,1.2Zm0,3.7-1.2,1.2v-3.2l.4-.4.8.7Zm3.8,1.5h-4.8l1.2-1.3h2.3Zm-1.8-2.2-.6.7-.6-.7v-2.4l.6-.6.6.6Zm2-2.7-.5.5-.7-.8v-1.9l1.2-1.2Zm0,4.6-1.2-1.2V241l.7-.7.5.4Z"/><path class="f" d="M596.6,239.3v-3.2l1.2,1.2V239l-.8.8Zm1.2,1.7v1.7l-1.2,1.2v-3.2l.4-.4Zm4-5.1-1.2,1.2H598l-1.2-1.2Zm0,8.3h-5l1.2-1.3h2.6Zm-1.3-4.8.6.6-.6.7h-2.6l-.6-.7.6-.6Z"/><path class="f" d="M606.3,239.3v-3.4l1.2,1.2V239l-.8.8Zm1.2,1.7v1.9l-1.2,1.3v-3.5l.4-.4Zm-.9-5.1h1.8l1.6,1.7v.9h-.9Zm3.7,3.1v-1.9l1.2-1.2v3.4l-.5.5Zm1.2,1.7v3.5l-1.2-1.3V241l.7-.7Z"/><path class="f" d="M612.9,239.3v-3.2l1.2,1.2V239l-.8.8Zm1.2,1.7v1.7l-1.2,1.2v-3.2l.4-.4Zm4-5.1-1.2,1.2h-2.5l-1.3-1.2Zm0,8.3h-5l1.3-1.3h2.5Zm-1.3-4.8.6.6-.6.7h-2.6l-.6-.7.6-.6Z"/><path class="f" d="M619.5,239.3v-3.2l1.2,1.2V239l-.7.8Zm1.2,1.7v1.9l-1.2,1.3v-3.5l.5-.4Zm3.8-5.1-1.2,1.2H621l-1.3-1.2Zm-1.1,3.5.7.6-.7.7h-2.6l-.6-.7.6-.6Zm.1-.4v-1.6l1.2-1.3v3.2l-.4.5Zm1.2,1.7v3.5l-1.2-1.3V241l.8-.7Z"/><path class="f" d="M626.1,239.3v-3.2l1.3,1.2V239l-.8.8Zm1.3,1.7v1.9l-1.3,1.3v-3.5l.5-.4Zm3.1-4.5-.6.6h-2.3l-1.2-1.2h3.5Zm-.4,2.9.6.6-.6.7h-2.7l-.6-.7.6-.6Zm-2.2,2.4v-.9h.9l2.3,2.4v.9h-.9Zm3.5-2.5-.5.5-.8-.8v-1.6l.6-.6.7.6Z"/><path class="f" d="M632.7,239.3v-3.4l1.3,1.2V239l-.8.8ZM634,241v1.7l-1.3,1.2v-3.2l.5-.4Zm4,3.2h-5l1.2-1.3h2.5Z"/><path class="f" d="M639.4,235.9l1.2,1.2V239l-.8.8-.4-.5Zm3.7,8.3.7-.6-.7-.7h-2.7l-.6.7.6.6Zm-2.4-4.8-.6.6.6.7h2.6l.6-.7-.6-.6Zm3.9-3.5-1.2,1.2V239l.7.8.5-.5Zm0,4.8-.5-.4-.7.7v1.7l.6.6.6-.6Z"/><path class="f" d="M654.6,236.5l-.7.6h-4.5l-.6-.6.6-.6h4.5Zm-2.3,2.8-.5.5-.7-.8v-.9l.6-.6.6.6Zm0,4.3-.6.6-.6-.6V241l.7-.7.5.4Z"/><path class="f" d="M655.7,239.3v-3.4l1.2,1.2V239l-.8.8Zm1.2,1.7v1.9l-1.2,1.3v-3.5l.4-.4Zm2.7-1.6.6.6-.6.7H657l-.6-.7.6-.6Zm.1-.4v-1.9l1.2-1.2v3.4l-.5.5Zm1.2,1.7v3.5l-1.2-1.3V241l.7-.7Z"/><path class="f" d="M662.3,239.3v-3.2l1.2,1.2V239l-.8.8Zm1.2,1.7v1.7l-1.2,1.2v-3.2l.4-.4Zm4-5.1-1.2,1.2h-2.5l-1.3-1.2Zm0,8.3h-5l1.3-1.3h2.5Zm-1.3-4.8.6.6-.6.7h-2.6l-.6-.7.6-.6Z"/><path class="f" d="M668.9,239.3v-3.2l1.2,1.2V239l-.7.8Zm1.2,1.7v1.9l-1.2,1.3v-3.5l.5-.4Zm3.2-4.5-.6.6h-2.3l-1.3-1.2h3.6Zm-.5,2.9.7.6-.7.7h-2.6l-.6-.7.6-.6Zm-2.1,2.4v-.9h.9l2.3,2.4v.9h-.8Zm3.4-2.5-.4.5-.8-.8v-1.6l.6-.6.6.6Z"/><path class="f" d="M675.5,239.3v-3.2l1.3,1.2V239l-.8.8Zm1.3,1.7v1.7l-1.3,1.2v-3.2l.5-.4Zm4-5.1-1.3,1.2H677l-1.2-1.2Zm0,8.3h-5l1.2-1.3h2.5Zm-1.3-4.8.6.6-.6.7h-2.7l-.6-.7.6-.6Z"/><path class="f" d="M685.2,235.9l1.2,1.2V239l-.7.8-.5-.5Zm3.8,8.3.6-.6-.6-.7h-2.7l-.6.7.6.6Zm-2.5-4.8-.6.6.6.7h2.6l.7-.7-.7-.6Zm3.9-3.5-1.2,1.2V239l.8.8.4-.5Zm0,4.8-.4-.4-.8.7v1.7l.6.6.6-.6Z"/><path class="f" d="M691.8,239.3v-3.2l1.3,1.2V239l-.8.8Zm1.3,1.7v1.7l-1.3,1.2v-3.2l.5-.4Zm4-5.1-1.3,1.2h-2.5l-1.2-1.2Zm0,8.3h-5l1.2-1.3h2.5Zm-1.3-4.8.6.6-.6.7h-2.7l-.6-.7.6-.6Z"/><path class="f" d="M704,236.5l-.7.6h-4.5l-.6-.6.6-.6h4.5Zm-2.3,2.8-.5.5-.7-.8v-.9l.6-.6.6.6Zm0,4.3-.6.6-.6-.6V241l.7-.7.5.4Z"/><path class="f" d="M709.5,236.5l-.7.6h-2.5l-1.2-1.2h3.7Zm-3.2,6.4-1.2,1.3v-3.5l.4-.4.8.7Zm0,1.7h-1.2v1.3h1.2Zm2.7-5.2.6.6-.6.7h-2.6l-.6-.7.6-.6Zm1.3-.1-.5.5-.7-.8v-1.6l.6-.6.6.6Z"/><path class="f" d="M567,252.3v-3.2l1.3,1.2V252l-.8.8Zm1.3,1.7v1.9l-1.3,1.3v-3.5l.5-.4Zm3.7-5.1-1.2,1.2h-2.3l-1.2-1.2Zm-1,3.5.6.6-.6.7h-2.7l-.6-.7.6-.6Zm0-.4v-1.6l1.3-1.3v3.2l-.5.5Zm1.3,1.7v3.5l-1.3-1.3V254l.8-.7Z"/><path class="f" d="M573.7,252.3v-3.2l1.2,1.2V252l-.8.8Zm1.2,1.7v1.9l-1.2,1.3v-3.5l.4-.4Zm3.1-4.5-.6.6h-2.3l-1.2-1.2h3.5Zm-.4,2.9.6.6-.6.7H575l-.7-.7.7-.6Zm-2.2,2.4v-.9h.9l2.4,2.4v.9h-.9Zm3.5-2.5-.5.5-.7-.8v-1.6l.6-.6.6.6Z"/><path class="f" d="M580.3,252.3v-3.2l1.2,1.2V252l-.8.8Zm1.2,1.7v1.7l-1.2,1.2v-3.2l.4-.4Zm4-5.1-1.2,1.2h-2.6l-1.2-1.2Zm0,8.3h-5l1.2-1.3h2.6Zm-1.3-4.8.6.6-.6.7h-2.6l-.6-.7.6-.6Z"/><path class="f" d="M591.2,252l-.8.8-.4-.5v-3.4l1.2,1.2Zm0,3.7-1.2,1.2v-3.2l.4-.4.8.7Zm3.8,1.5h-4.8l1.2-1.3h2.3Zm-1.8-2.2-.6.7-.6-.7v-2.4l.6-.6.6.6Zm2-2.7-.5.5-.7-.8v-1.9l1.2-1.2Zm0,4.6-1.2-1.2V254l.7-.7.5.4Z"/><path class="f" d="M596.6,252.3v-3.2l1.2,1.2V252l-.8.8Zm1.2,1.7v1.7l-1.2,1.2v-3.2l.4-.4Zm4-5.1-1.2,1.2H598l-1.2-1.2Zm0,8.3h-5l1.2-1.3h2.6Zm-1.3-4.8.6.6-.6.7h-2.6l-.6-.7.6-.6Z"/><path class="f" d="M606.3,252.3v-3.4l1.2,1.2V252l-.8.8Zm1.2,1.7v1.9l-1.2,1.3v-3.5l.4-.4Zm-.9-5.1h1.8l1.6,1.7v.9h-.9Zm3.7,3.1v-1.9l1.2-1.2v3.4l-.5.5Zm1.2,1.7v3.5l-1.2-1.3V254l.7-.7Z"/><path class="f" d="M612.9,252.3v-3.2l1.2,1.2V252l-.8.8Zm1.2,1.7v1.7l-1.2,1.2v-3.2l.4-.4Zm4-5.1-1.2,1.2h-2.5l-1.3-1.2Zm0,8.3h-5l1.3-1.3h2.5Zm-1.3-4.8.6.6-.6.7h-2.6l-.6-.7.6-.6Z"/><path class="f" d="M619.5,252.3v-3.2l1.2,1.2V252l-.7.8Zm1.2,1.7v1.9l-1.2,1.3v-3.5l.5-.4Zm3.8-5.1-1.2,1.2H621l-1.3-1.2Zm-1.1,3.5.7.6-.7.7h-2.6l-.6-.7.6-.6Zm.1-.4v-1.6l1.2-1.3v3.2l-.4.5Zm1.2,1.7v3.5l-1.2-1.3V254l.8-.7Z"/><path class="f" d="M626.1,252.3v-3.2l1.3,1.2V252l-.8.8Zm1.3,1.7v1.9l-1.3,1.3v-3.5l.5-.4Zm3.1-4.5-.6.6h-2.3l-1.2-1.2h3.5Zm-.4,2.9.6.6-.6.7h-2.7l-.6-.7.6-.6Zm-2.2,2.4v-.9h.9l2.3,2.4v.9h-.9Zm3.5-2.5-.5.5-.8-.8v-1.6l.6-.6.7.6Z"/><path class="f" d="M632.7,252.3v-3.4l1.3,1.2V252l-.8.8ZM634,254v1.7l-1.3,1.2v-3.2l.5-.4Zm4,3.2h-5l1.2-1.3h2.5Z"/><path class="f" d="M639.4,248.9l1.2,1.2V252l-.8.8-.4-.5Zm3.7,8.3.7-.6-.7-.7h-2.7l-.6.7.6.6Zm-2.4-4.8-.6.6.6.7h2.6l.6-.7-.6-.6Zm3.9-3.5-1.2,1.2V252l.7.8.5-.5Zm0,4.8-.5-.4-.7.7v1.7l.6.6.6-.6Z"/><path class="f" d="M654.6,249.5l-.7.6h-4.5l-.6-.6.6-.6h4.5Zm-2.3,2.8-.5.5-.7-.8v-.9l.6-.6.6.6Zm0,4.3-.6.6-.6-.6V254l.7-.7.5.4Z"/><path class="f" d="M655.7,252.3v-3.4l1.2,1.2V252l-.8.8Zm1.2,1.7v1.9l-1.2,1.3v-3.5l.4-.4Zm2.7-1.6.6.6-.6.7H657l-.6-.7.6-.6Zm.1-.4v-1.9l1.2-1.2v3.4l-.5.5Zm1.2,1.7v3.5l-1.2-1.3V254l.7-.7Z"/><path class="f" d="M662.3,252.3v-3.2l1.2,1.2V252l-.8.8Zm1.2,1.7v1.7l-1.2,1.2v-3.2l.4-.4Zm4-5.1-1.2,1.2h-2.5l-1.3-1.2Zm0,8.3h-5l1.3-1.3h2.5Zm-1.3-4.8.6.6-.6.7h-2.6l-.6-.7.6-.6Z"/><path class="f" d="M668.9,252.3v-3.2l1.2,1.2V252l-.7.8Zm1.2,1.7v1.9l-1.2,1.3v-3.5l.5-.4Zm3.2-4.5-.6.6h-2.3l-1.3-1.2h3.6Zm-.5,2.9.7.6-.7.7h-2.6l-.6-.7.6-.6Zm-2.1,2.4v-.9h.9l2.3,2.4v.9h-.8Zm3.4-2.5-.4.5-.8-.8v-1.6l.6-.6.6.6Z"/><path class="f" d="M675.5,252.3v-3.2l1.3,1.2V252l-.8.8Zm1.3,1.7v1.7l-1.3,1.2v-3.2l.5-.4Zm4-5.1-1.3,1.2H677l-1.2-1.2Zm0,8.3h-5l1.2-1.3h2.5Zm-1.3-4.8.6.6-.6.7h-2.7l-.6-.7.6-.6Z"/><path class="f" d="M685.2,248.9l1.2,1.2V252l-.7.8-.5-.5Zm3.8,8.3.6-.6-.6-.7h-2.7l-.6.7.6.6Zm-2.5-4.8-.6.6.6.7h2.6l.7-.7-.7-.6Zm3.9-3.5-1.2,1.2V252l.8.8.4-.5Zm0,4.8-.4-.4-.8.7v1.7l.6.6.6-.6Z"/><path class="f" d="M691.8,252.3v-3.2l1.3,1.2V252l-.8.8Zm1.3,1.7v1.7l-1.3,1.2v-3.2l.5-.4Zm4-5.1-1.3,1.2h-2.5l-1.2-1.2Zm0,8.3h-5l1.2-1.3h2.5Zm-1.3-4.8.6.6-.6.7h-2.7l-.6-.7.6-.6Z"/><path class="f" d="M704,249.5l-.7.6h-4.5l-.6-.6.6-.6h4.5Zm-2.3,2.8-.5.5-.7-.8v-.9l.6-.6.6.6Zm0,4.3-.6.6-.6-.6V254l.7-.7.5.4Z"/><path class="f" d="M709.5,249.5l-.7.6h-2.5l-1.2-1.2h3.7Zm-3.2,6.4-1.2,1.3v-3.5l.4-.4.8.7Zm0,1.7h-1.2v1.3h1.2Zm2.7-5.2.6.6-.6.7h-2.6l-.6-.7.6-.6Zm1.3-.1-.5.5-.7-.8v-1.6l.6-.6.6.6Z"/><path class="f" d="M567,265.3v-3.2l1.3,1.2V265l-.8.8Zm1.3,1.7v1.9l-1.3,1.3v-3.5l.5-.4Zm3.7-5.1-1.2,1.2h-2.3l-1.2-1.2Zm-1,3.5.6.6-.6.7h-2.7l-.6-.7.6-.6Zm0-.4v-1.6l1.3-1.3v3.2l-.5.5Zm1.3,1.7v3.5l-1.3-1.3V267l.8-.7Z"/><path class="f" d="M573.7,265.3v-3.2l1.2,1.2V265l-.8.8Zm1.2,1.7v1.9l-1.2,1.3v-3.5l.4-.4Zm3.1-4.5-.6.6h-2.3l-1.2-1.2h3.5Zm-.4,2.9.6.6-.6.7H575l-.7-.7.7-.6Zm-2.2,2.4v-.9h.9l2.4,2.4v.9h-.9Zm3.5-2.5-.5.5-.7-.8v-1.6l.6-.6.6.6Z"/><path class="f" d="M580.3,265.3v-3.2l1.2,1.2V265l-.8.8Zm1.2,1.7v1.7l-1.2,1.2v-3.2l.4-.4Zm4-5.1-1.2,1.2h-2.6l-1.2-1.2Zm0,8.3h-5l1.2-1.3h2.6Zm-1.3-4.8.6.6-.6.7h-2.6l-.6-.7.6-.6Z"/><path class="f" d="M591.2,265l-.8.8-.4-.5v-3.4l1.2,1.2Zm0,3.7-1.2,1.2v-3.2l.4-.4.8.7Zm3.8,1.5h-4.8l1.2-1.3h2.3Zm-1.8-2.2-.6.7-.6-.7v-2.4l.6-.6.6.6Zm2-2.7-.5.5-.7-.8v-1.9l1.2-1.2Zm0,4.6-1.2-1.2V267l.7-.7.5.4Z"/><path class="f" d="M596.6,265.3v-3.2l1.2,1.2V265l-.8.8Zm1.2,1.7v1.7l-1.2,1.2v-3.2l.4-.4Zm4-5.1-1.2,1.2H598l-1.2-1.2Zm0,8.3h-5l1.2-1.3h2.6Zm-1.3-4.8.6.6-.6.7h-2.6l-.6-.7.6-.6Z"/><path class="f" d="M606.3,265.3v-3.4l1.2,1.2V265l-.8.8Zm1.2,1.7v1.9l-1.2,1.3v-3.5l.4-.4Zm-.9-5.1h1.8l1.6,1.7v.9h-.9Zm3.7,3.1v-1.9l1.2-1.2v3.4l-.5.5Zm1.2,1.7v3.5l-1.2-1.3V267l.7-.7Z"/><path class="f" d="M612.9,265.3v-3.2l1.2,1.2V265l-.8.8Zm1.2,1.7v1.7l-1.2,1.2v-3.2l.4-.4Zm4-5.1-1.2,1.2h-2.5l-1.3-1.2Zm0,8.3h-5l1.3-1.3h2.5Zm-1.3-4.8.6.6-.6.7h-2.6l-.6-.7.6-.6Z"/><path class="f" d="M619.5,265.3v-3.2l1.2,1.2V265l-.7.8Zm1.2,1.7v1.9l-1.2,1.3v-3.5l.5-.4Zm3.8-5.1-1.2,1.2H621l-1.3-1.2Zm-1.1,3.5.7.6-.7.7h-2.6l-.6-.7.6-.6Zm.1-.4v-1.6l1.2-1.3v3.2l-.4.5Zm1.2,1.7v3.5l-1.2-1.3V267l.8-.7Z"/><path class="f" d="M626.1,265.3v-3.2l1.3,1.2V265l-.8.8Zm1.3,1.7v1.9l-1.3,1.3v-3.5l.5-.4Zm3.1-4.5-.6.6h-2.3l-1.2-1.2h3.5Zm-.4,2.9.6.6-.6.7h-2.7l-.6-.7.6-.6Zm-2.2,2.4v-.9h.9l2.3,2.4v.9h-.9Zm3.5-2.5-.5.5-.8-.8v-1.6l.6-.6.7.6Z"/><path class="f" d="M632.7,265.3v-3.4l1.3,1.2V265l-.8.8ZM634,267v1.7l-1.3,1.2v-3.2l.5-.4Zm4,3.2h-5l1.2-1.3h2.5Z"/><path class="f" d="M639.4,261.9l1.2,1.2V265l-.8.8-.4-.5Zm3.7,8.3.7-.6-.7-.7h-2.7l-.6.7.6.6Zm-2.4-4.8-.6.6.6.7h2.6l.6-.7-.6-.6Zm3.9-3.5-1.2,1.2V265l.7.8.5-.5Zm0,4.8-.5-.4-.7.7v1.7l.6.6.6-.6Z"/><path class="f" d="M654.6,262.5l-.7.6h-4.5l-.6-.6.6-.6h4.5Zm-2.3,2.8-.5.5-.7-.8v-.9l.6-.6.6.6Zm0,4.3-.6.6-.6-.6V267l.7-.7.5.4Z"/><path class="f" d="M655.7,265.3v-3.4l1.2,1.2V265l-.8.8Zm1.2,1.7v1.9l-1.2,1.3v-3.5l.4-.4Zm2.7-1.6.6.6-.6.7H657l-.6-.7.6-.6Zm.1-.4v-1.9l1.2-1.2v3.4l-.5.5Zm1.2,1.7v3.5l-1.2-1.3V267l.7-.7Z"/><path class="f" d="M662.3,265.3v-3.2l1.2,1.2V265l-.8.8Zm1.2,1.7v1.7l-1.2,1.2v-3.2l.4-.4Zm4-5.1-1.2,1.2h-2.5l-1.3-1.2Zm0,8.3h-5l1.3-1.3h2.5Zm-1.3-4.8.6.6-.6.7h-2.6l-.6-.7.6-.6Z"/><path class="f" d="M668.9,265.3v-3.2l1.2,1.2V265l-.7.8Zm1.2,1.7v1.9l-1.2,1.3v-3.5l.5-.4Zm3.2-4.5-.6.6h-2.3l-1.3-1.2h3.6Zm-.5,2.9.7.6-.7.7h-2.6l-.6-.7.6-.6Zm-2.1,2.4v-.9h.9l2.3,2.4v.9h-.8Zm3.4-2.5-.4.5-.8-.8v-1.6l.6-.6.6.6Z"/><path class="f" d="M675.5,265.3v-3.2l1.3,1.2V265l-.8.8Zm1.3,1.7v1.7l-1.3,1.2v-3.2l.5-.4Zm4-5.1-1.3,1.2H677l-1.2-1.2Zm0,8.3h-5l1.2-1.3h2.5Zm-1.3-4.8.6.6-.6.7h-2.7l-.6-.7.6-.6Z"/><path class="f" d="M685.2,261.9l1.2,1.2V265l-.7.8-.5-.5Zm3.8,8.3.6-.6-.6-.7h-2.7l-.6.7.6.6Zm-2.5-4.8-.6.6.6.7h2.6l.7-.7-.7-.6Zm3.9-3.5-1.2,1.2V265l.8.8.4-.5Zm0,4.8-.4-.4-.8.7v1.7l.6.6.6-.6Z"/><path class="f" d="M691.8,265.3v-3.2l1.3,1.2V265l-.8.8Zm1.3,1.7v1.7l-1.3,1.2v-3.2l.5-.4Zm4-5.1-1.3,1.2h-2.5l-1.2-1.2Zm0,8.3h-5l1.2-1.3h2.5Zm-1.3-4.8.6.6-.6.7h-2.7l-.6-.7.6-.6Z"/><path class="f" d="M704,262.5l-.7.6h-4.5l-.6-.6.6-.6h4.5Zm-2.3,2.8-.5.5-.7-.8v-.9l.6-.6.6.6Zm0,4.3-.6.6-.6-.6V267l.7-.7.5.4Z"/><path class="f" d="M709.5,262.5l-.7.6h-2.5l-1.2-1.2h3.7Zm-3.2,6.4-1.2,1.3v-3.5l.4-.4.8.7Zm0,1.7h-1.2v1.3h1.2Zm2.7-5.2.6.6-.6.7h-2.6l-.6-.7.6-.6Zm1.3-.1-.5.5-.7-.8v-1.6l.6-.6.6.6Z"/><path class="f" d="M567,278.3v-3.2l1.3,1.2V278l-.8.8Zm1.3,1.7v1.9l-1.3,1.3v-3.5l.5-.4Zm3.7-5.1-1.2,1.2h-2.3l-1.2-1.2Zm-1,3.5.6.6-.6.7h-2.7l-.6-.7.6-.6Zm0-.4v-1.6l1.3-1.3v3.2l-.5.5Zm1.3,1.7v3.5l-1.3-1.3V280l.8-.7Z"/><path class="f" d="M573.7,278.3v-3.2l1.2,1.2V278l-.8.8Zm1.2,1.7v1.9l-1.2,1.3v-3.5l.4-.4Zm3.1-4.5-.6.6h-2.3l-1.2-1.2h3.5Zm-.4,2.9.6.6-.6.7H575l-.7-.7.7-.6Zm-2.2,2.4v-.9h.9l2.4,2.4v.9h-.9Zm3.5-2.5-.5.5-.7-.8v-1.6l.6-.6.6.6Z"/><path class="f" d="M580.3,278.3v-3.2l1.2,1.2V278l-.8.8Zm1.2,1.7v1.7l-1.2,1.2v-3.2l.4-.4Zm4-5.1-1.2,1.2h-2.6l-1.2-1.2Zm0,8.3h-5l1.2-1.3h2.6Zm-1.3-4.8.6.6-.6.7h-2.6l-.6-.7.6-.6Z"/><path class="f" d="M591.2,278l-.8.8-.4-.5v-3.4l1.2,1.2Zm0,3.7-1.2,1.2v-3.2l.4-.4.8.7Zm3.8,1.5h-4.8l1.2-1.3h2.3Zm-1.8-2.2-.6.7-.6-.7v-2.4l.6-.6.6.6Zm2-2.7-.5.5-.7-.8v-1.9l1.2-1.2Zm0,4.6-1.2-1.2V280l.7-.7.5.4Z"/><path class="f" d="M596.6,278.3v-3.2l1.2,1.2V278l-.8.8Zm1.2,1.7v1.7l-1.2,1.2v-3.2l.4-.4Zm4-5.1-1.2,1.2H598l-1.2-1.2Zm0,8.3h-5l1.2-1.3h2.6Zm-1.3-4.8.6.6-.6.7h-2.6l-.6-.7.6-.6Z"/><path class="f" d="M606.3,278.3v-3.4l1.2,1.2V278l-.8.8Zm1.2,1.7v1.9l-1.2,1.3v-3.5l.4-.4Zm-.9-5.1h1.8l1.6,1.7v.9h-.9Zm3.7,3.1v-1.9l1.2-1.2v3.4l-.5.5Zm1.2,1.7v3.5l-1.2-1.3V280l.7-.7Z"/><path class="f" d="M612.9,278.3v-3.2l1.2,1.2V278l-.8.8Zm1.2,1.7v1.7l-1.2,1.2v-3.2l.4-.4Zm4-5.1-1.2,1.2h-2.5l-1.3-1.2Zm0,8.3h-5l1.3-1.3h2.5Zm-1.3-4.8.6.6-.6.7h-2.6l-.6-.7.6-.6Z"/><path class="f" d="M619.5,278.3v-3.2l1.2,1.2V278l-.7.8Zm1.2,1.7v1.9l-1.2,1.3v-3.5l.5-.4Zm3.8-5.1-1.2,1.2H621l-1.3-1.2Zm-1.1,3.5.7.6-.7.7h-2.6l-.6-.7.6-.6Zm.1-.4v-1.6l1.2-1.3v3.2l-.4.5Zm1.2,1.7v3.5l-1.2-1.3V280l.8-.7Z"/><path class="f" d="M626.1,278.3v-3.2l1.3,1.2V278l-.8.8Zm1.3,1.7v1.9l-1.3,1.3v-3.5l.5-.4Zm3.1-4.5-.6.6h-2.3l-1.2-1.2h3.5Zm-.4,2.9.6.6-.6.7h-2.7l-.6-.7.6-.6Zm-2.2,2.4v-.9h.9l2.3,2.4v.9h-.9Zm3.5-2.5-.5.5-.8-.8v-1.6l.6-.6.7.6Z"/><path class="f" d="M632.7,278.3v-3.4l1.3,1.2V278l-.8.8ZM634,280v1.7l-1.3,1.2v-3.2l.5-.4Zm4,3.2h-5l1.2-1.3h2.5Z"/><path class="f" d="M639.4,274.9l1.2,1.2V278l-.8.8-.4-.5Zm3.7,8.3.7-.6-.7-.7h-2.7l-.6.7.6.6Zm-2.4-4.8-.6.6.6.7h2.6l.6-.7-.6-.6Zm3.9-3.5-1.2,1.2V278l.7.8.5-.5Zm0,4.8-.5-.4-.7.7v1.7l.6.6.6-.6Z"/><path class="f" d="M654.6,275.5l-.7.6h-4.5l-.6-.6.6-.6h4.5Zm-2.3,2.8-.5.5-.7-.8v-.9l.6-.6.6.6Zm0,4.3-.6.6-.6-.6V280l.7-.7.5.4Z"/><path class="f" d="M655.7,278.3v-3.4l1.2,1.2V278l-.8.8Zm1.2,1.7v1.9l-1.2,1.3v-3.5l.4-.4Zm2.7-1.6.6.6-.6.7H657l-.6-.7.6-.6Zm.1-.4v-1.9l1.2-1.2v3.4l-.5.5Zm1.2,1.7v3.5l-1.2-1.3V280l.7-.7Z"/><path class="f" d="M662.3,278.3v-3.2l1.2,1.2V278l-.8.8Zm1.2,1.7v1.7l-1.2,1.2v-3.2l.4-.4Zm4-5.1-1.2,1.2h-2.5l-1.3-1.2Zm0,8.3h-5l1.3-1.3h2.5Zm-1.3-4.8.6.6-.6.7h-2.6l-.6-.7.6-.6Z"/><path class="f" d="M668.9,278.3v-3.2l1.2,1.2V278l-.7.8Zm1.2,1.7v1.9l-1.2,1.3v-3.5l.5-.4Zm3.2-4.5-.6.6h-2.3l-1.3-1.2h3.6Zm-.5,2.9.7.6-.7.7h-2.6l-.6-.7.6-.6Zm-2.1,2.4v-.9h.9l2.3,2.4v.9h-.8Zm3.4-2.5-.4.5-.8-.8v-1.6l.6-.6.6.6Z"/><path class="f" d="M675.5,278.3v-3.2l1.3,1.2V278l-.8.8Zm1.3,1.7v1.7l-1.3,1.2v-3.2l.5-.4Zm4-5.1-1.3,1.2H677l-1.2-1.2Zm0,8.3h-5l1.2-1.3h2.5Zm-1.3-4.8.6.6-.6.7h-2.7l-.6-.7.6-.6Z"/><path class="f" d="M685.2,274.9l1.2,1.2V278l-.7.8-.5-.5Zm3.8,8.3.6-.6-.6-.7h-2.7l-.6.7.6.6Zm-2.5-4.8-.6.6.6.7h2.6l.7-.7-.7-.6Zm3.9-3.5-1.2,1.2V278l.8.8.4-.5Zm0,4.8-.4-.4-.8.7v1.7l.6.6.6-.6Z"/><path class="f" d="M691.8,278.3v-3.2l1.3,1.2V278l-.8.8Zm1.3,1.7v1.7l-1.3,1.2v-3.2l.5-.4Zm4-5.1-1.3,1.2h-2.5l-1.2-1.2Zm0,8.3h-5l1.2-1.3h2.5Zm-1.3-4.8.6.6-.6.7h-2.7l-.6-.7.6-.6Z"/><path class="f" d="M704,275.5l-.7.6h-4.5l-.6-.6.6-.6h4.5Zm-2.3,2.8-.5.5-.7-.8v-.9l.6-.6.6.6Zm0,4.3-.6.6-.6-.6V280l.7-.7.5.4Z"/><path class="f" d="M709.5,275.5l-.7.6h-2.5l-1.2-1.2h3.7Zm-3.2,6.4-1.2,1.3v-3.5l.4-.4.8.7Zm0,1.7h-1.2v1.3h1.2Zm2.7-5.2.6.6-.6.7h-2.6l-.6-.7.6-.6Zm1.3-.1-.5.5-.7-.8v-1.6l.6-.6.6.6Z"/><path class="f" d="M567,291.3v-3.2l1.3,1.2V291l-.8.8Zm1.3,1.7v1.9l-1.3,1.3v-3.5l.5-.4Zm3.7-5.1-1.2,1.2h-2.3l-1.2-1.2Zm-1,3.5.6.6-.6.7h-2.7l-.6-.7.6-.6Zm0-.4v-1.6l1.3-1.3v3.2l-.5.5Zm1.3,1.7v3.5l-1.3-1.3V293l.8-.7Z"/><path class="f" d="M573.7,291.3v-3.2l1.2,1.2V291l-.8.8Zm1.2,1.7v1.9l-1.2,1.3v-3.5l.4-.4Zm3.1-4.5-.6.6h-2.3l-1.2-1.2h3.5Zm-.4,2.9.6.6-.6.7H575l-.7-.7.7-.6Zm-2.2,2.4v-.9h.9l2.4,2.4v.9h-.9Zm3.5-2.5-.5.5-.7-.8v-1.6l.6-.6.6.6Z"/><path class="f" d="M580.3,291.3v-3.2l1.2,1.2V291l-.8.8Zm1.2,1.7v1.7l-1.2,1.2v-3.2l.4-.4Zm4-5.1-1.2,1.2h-2.6l-1.2-1.2Zm0,8.3h-5l1.2-1.3h2.6Zm-1.3-4.8.6.6-.6.7h-2.6l-.6-.7.6-.6Z"/><path class="f" d="M591.2,291l-.8.8-.4-.5v-3.4l1.2,1.2Zm0,3.7-1.2,1.2v-3.2l.4-.4.8.7Zm3.8,1.5h-4.8l1.2-1.3h2.3Zm-1.8-2.2-.6.7-.6-.7v-2.4l.6-.6.6.6Zm2-2.7-.5.5-.7-.8v-1.9l1.2-1.2Zm0,4.6-1.2-1.2V293l.7-.7.5.4Z"/><path class="f" d="M596.6,291.3v-3.2l1.2,1.2V291l-.8.8Zm1.2,1.7v1.7l-1.2,1.2v-3.2l.4-.4Zm4-5.1-1.2,1.2H598l-1.2-1.2Zm0,8.3h-5l1.2-1.3h2.6Zm-1.3-4.8.6.6-.6.7h-2.6l-.6-.7.6-.6Z"/><path class="f" d="M606.3,291.3v-3.4l1.2,1.2V291l-.8.8Zm1.2,1.7v1.9l-1.2,1.3v-3.5l.4-.4Zm-.9-5.1h1.8l1.6,1.7v.9h-.9Zm3.7,3.1v-1.9l1.2-1.2v3.4l-.5.5Zm1.2,1.7v3.5l-1.2-1.3V293l.7-.7Z"/><path class="f" d="M612.9,291.3v-3.2l1.2,1.2V291l-.8.8Zm1.2,1.7v1.7l-1.2,1.2v-3.2l.4-.4Zm4-5.1-1.2,1.2h-2.5l-1.3-1.2Zm0,8.3h-5l1.3-1.3h2.5Zm-1.3-4.8.6.6-.6.7h-2.6l-.6-.7.6-.6Z"/><path class="f" d="M619.5,291.3v-3.2l1.2,1.2V291l-.7.8Zm1.2,1.7v1.9l-1.2,1.3v-3.5l.5-.4Zm3.8-5.1-1.2,1.2H621l-1.3-1.2Zm-1.1,3.5.7.6-.7.7h-2.6l-.6-.7.6-.6Zm.1-.4v-1.6l1.2-1.3v3.2l-.4.5Zm1.2,1.7v3.5l-1.2-1.3V293l.8-.7Z"/><path class="f" d="M626.1,291.3v-3.2l1.3,1.2V291l-.8.8Zm1.3,1.7v1.9l-1.3,1.3v-3.5l.5-.4Zm3.1-4.5-.6.6h-2.3l-1.2-1.2h3.5Zm-.4,2.9.6.6-.6.7h-2.7l-.6-.7.6-.6Zm-2.2,2.4v-.9h.9l2.3,2.4v.9h-.9Zm3.5-2.5-.5.5-.8-.8v-1.6l.6-.6.7.6Z"/><path class="f" d="M632.7,291.3v-3.4l1.3,1.2V291l-.8.8ZM634,293v1.7l-1.3,1.2v-3.2l.5-.4Zm4,3.2h-5l1.2-1.3h2.5Z"/><path class="f" d="M639.4,287.9l1.2,1.2V291l-.8.8-.4-.5Zm3.7,8.3.7-.6-.7-.7h-2.7l-.6.7.6.6Zm-2.4-4.8-.6.6.6.7h2.6l.6-.7-.6-.6Zm3.9-3.5-1.2,1.2V291l.7.8.5-.5Zm0,4.8-.5-.4-.7.7v1.7l.6.6.6-.6Z"/><path class="f" d="M654.6,288.5l-.7.6h-4.5l-.6-.6.6-.6h4.5Zm-2.3,2.8-.5.5-.7-.8v-.9l.6-.6.6.6Zm0,4.3-.6.6-.6-.6V293l.7-.7.5.4Z"/><path class="f" d="M655.7,291.3v-3.4l1.2,1.2V291l-.8.8Zm1.2,1.7v1.9l-1.2,1.3v-3.5l.4-.4Zm2.7-1.6.6.6-.6.7H657l-.6-.7.6-.6Zm.1-.4v-1.9l1.2-1.2v3.4l-.5.5Zm1.2,1.7v3.5l-1.2-1.3V293l.7-.7Z"/><path class="f" d="M662.3,291.3v-3.2l1.2,1.2V291l-.8.8Zm1.2,1.7v1.7l-1.2,1.2v-3.2l.4-.4Zm4-5.1-1.2,1.2h-2.5l-1.3-1.2Zm0,8.3h-5l1.3-1.3h2.5Zm-1.3-4.8.6.6-.6.7h-2.6l-.6-.7.6-.6Z"/><path class="f" d="M668.9,291.3v-3.2l1.2,1.2V291l-.7.8Zm1.2,1.7v1.9l-1.2,1.3v-3.5l.5-.4Zm3.2-4.5-.6.6h-2.3l-1.3-1.2h3.6Zm-.5,2.9.7.6-.7.7h-2.6l-.6-.7.6-.6Zm-2.1,2.4v-.9h.9l2.3,2.4v.9h-.8Zm3.4-2.5-.4.5-.8-.8v-1.6l.6-.6.6.6Z"/><path class="f" d="M675.5,291.3v-3.2l1.3,1.2V291l-.8.8Zm1.3,1.7v1.7l-1.3,1.2v-3.2l.5-.4Zm4-5.1-1.3,1.2H677l-1.2-1.2Zm0,8.3h-5l1.2-1.3h2.5Zm-1.3-4.8.6.6-.6.7h-2.7l-.6-.7.6-.6Z"/><path class="f" d="M685.2,287.9l1.2,1.2V291l-.7.8-.5-.5Zm3.8,8.3.6-.6-.6-.7h-2.7l-.6.7.6.6Zm-2.5-4.8-.6.6.6.7h2.6l.7-.7-.7-.6Zm3.9-3.5-1.2,1.2V291l.8.8.4-.5Zm0,4.8-.4-.4-.8.7v1.7l.6.6.6-.6Z"/><path class="f" d="M691.8,291.3v-3.2l1.3,1.2V291l-.8.8Zm1.3,1.7v1.7l-1.3,1.2v-3.2l.5-.4Zm4-5.1-1.3,1.2h-2.5l-1.2-1.2Zm0,8.3h-5l1.2-1.3h2.5Zm-1.3-4.8.6.6-.6.7h-2.7l-.6-.7.6-.6Z"/><path class="f" d="M704,288.5l-.7.6h-4.5l-.6-.6.6-.6h4.5Zm-2.3,2.8-.5.5-.7-.8v-.9l.6-.6.6.6Zm0,4.3-.6.6-.6-.6V293l.7-.7.5.4Z"/><path class="f" d="M709.5,288.5l-.7.6h-2.5l-1.2-1.2h3.7Zm-3.2,6.4-1.2,1.3v-3.5l.4-.4.8.7Zm0,1.7h-1.2v1.3h1.2Zm2.7-5.2.6.6-.6.7h-2.6l-.6-.7.6-.6Zm1.3-.1-.5.5-.7-.8v-1.6l.6-.6.6.6Z"/><path class="f" d="M567,304.3v-3.2l1.3,1.2V304l-.8.8Zm1.3,1.7v1.9l-1.3,1.3v-3.5l.5-.4Zm3.7-5.1-1.2,1.2h-2.3l-1.2-1.2Zm-1,3.5.6.6-.6.7h-2.7l-.6-.7.6-.6Zm0-.4v-1.6l1.3-1.3v3.2l-.5.5Zm1.3,1.7v3.5l-1.3-1.3V306l.8-.7Z"/><path class="f" d="M573.7,304.3v-3.2l1.2,1.2V304l-.8.8Zm1.2,1.7v1.9l-1.2,1.3v-3.5l.4-.4Zm3.1-4.5-.6.6h-2.3l-1.2-1.2h3.5Zm-.4,2.9.6.6-.6.7H575l-.7-.7.7-.6Zm-2.2,2.4v-.9h.9l2.4,2.4v.9h-.9Zm3.5-2.5-.5.5-.7-.8v-1.6l.6-.6.6.6Z"/><path class="f" d="M580.3,304.3v-3.2l1.2,1.2V304l-.8.8Zm1.2,1.7v1.7l-1.2,1.2v-3.2l.4-.4Zm4-5.1-1.2,1.2h-2.6l-1.2-1.2Zm0,8.3h-5l1.2-1.3h2.6Zm-1.3-4.8.6.6-.6.7h-2.6l-.6-.7.6-.6Z"/><path class="f" d="M591.2,304l-.8.8-.4-.5v-3.4l1.2,1.2Zm0,3.7-1.2,1.2v-3.2l.4-.4.8.7Zm3.8,1.5h-4.8l1.2-1.3h2.3Zm-1.8-2.2-.6.7-.6-.7v-2.4l.6-.6.6.6Zm2-2.7-.5.5-.7-.8v-1.9l1.2-1.2Zm0,4.6-1.2-1.2V306l.7-.7.5.4Z"/><path class="f" d="M596.6,304.3v-3.2l1.2,1.2V304l-.8.8Zm1.2,1.7v1.7l-1.2,1.2v-3.2l.4-.4Zm4-5.1-1.2,1.2H598l-1.2-1.2Zm0,8.3h-5l1.2-1.3h2.6Zm-1.3-4.8.6.6-.6.7h-2.6l-.6-.7.6-.6Z"/><path class="f" d="M606.3,304.3v-3.4l1.2,1.2V304l-.8.8Zm1.2,1.7v1.9l-1.2,1.3v-3.5l.4-.4Zm-.9-5.1h1.8l1.6,1.7v.9h-.9Zm3.7,3.1v-1.9l1.2-1.2v3.4l-.5.5Zm1.2,1.7v3.5l-1.2-1.3V306l.7-.7Z"/><path class="f" d="M612.9,304.3v-3.2l1.2,1.2V304l-.8.8Zm1.2,1.7v1.7l-1.2,1.2v-3.2l.4-.4Zm4-5.1-1.2,1.2h-2.5l-1.3-1.2Zm0,8.3h-5l1.3-1.3h2.5Zm-1.3-4.8.6.6-.6.7h-2.6l-.6-.7.6-.6Z"/><path class="f" d="M619.5,304.3v-3.2l1.2,1.2V304l-.7.8Zm1.2,1.7v1.9l-1.2,1.3v-3.5l.5-.4Zm3.8-5.1-1.2,1.2H621l-1.3-1.2Zm-1.1,3.5.7.6-.7.7h-2.6l-.6-.7.6-.6Zm.1-.4v-1.6l1.2-1.3v3.2l-.4.5Zm1.2,1.7v3.5l-1.2-1.3V306l.8-.7Z"/><path class="f" d="M626.1,304.3v-3.2l1.3,1.2V304l-.8.8Zm1.3,1.7v1.9l-1.3,1.3v-3.5l.5-.4Zm3.1-4.5-.6.6h-2.3l-1.2-1.2h3.5Zm-.4,2.9.6.6-.6.7h-2.7l-.6-.7.6-.6Zm-2.2,2.4v-.9h.9l2.3,2.4v.9h-.9Zm3.5-2.5-.5.5-.8-.8v-1.6l.6-.6.7.6Z"/><path class="f" d="M632.7,304.3v-3.4l1.3,1.2V304l-.8.8ZM634,306v1.7l-1.3,1.2v-3.2l.5-.4Zm4,3.2h-5l1.2-1.3h2.5Z"/><path class="f" d="M639.4,300.9l1.2,1.2V304l-.8.8-.4-.5Zm3.7,8.3.7-.6-.7-.7h-2.7l-.6.7.6.6Zm-2.4-4.8-.6.6.6.7h2.6l.6-.7-.6-.6Zm3.9-3.5-1.2,1.2V304l.7.8.5-.5Zm0,4.8-.5-.4-.7.7v1.7l.6.6.6-.6Z"/><path class="f" d="M654.6,301.5l-.7.6h-4.5l-.6-.6.6-.6h4.5Zm-2.3,2.8-.5.5-.7-.8v-.9l.6-.6.6.6Zm0,4.3-.6.6-.6-.6V306l.7-.7.5.4Z"/><path class="f" d="M655.7,304.3v-3.4l1.2,1.2V304l-.8.8Zm1.2,1.7v1.9l-1.2,1.3v-3.5l.4-.4Zm2.7-1.6.6.6-.6.7H657l-.6-.7.6-.6Zm.1-.4v-1.9l1.2-1.2v3.4l-.5.5Zm1.2,1.7v3.5l-1.2-1.3V306l.7-.7Z"/><path class="f" d="M662.3,304.3v-3.2l1.2,1.2V304l-.8.8Zm1.2,1.7v1.7l-1.2,1.2v-3.2l.4-.4Zm4-5.1-1.2,1.2h-2.5l-1.3-1.2Zm0,8.3h-5l1.3-1.3h2.5Zm-1.3-4.8.6.6-.6.7h-2.6l-.6-.7.6-.6Z"/><path class="f" d="M668.9,304.3v-3.2l1.2,1.2V304l-.7.8Zm1.2,1.7v1.9l-1.2,1.3v-3.5l.5-.4Zm3.2-4.5-.6.6h-2.3l-1.3-1.2h3.6Zm-.5,2.9.7.6-.7.7h-2.6l-.6-.7.6-.6Zm-2.1,2.4v-.9h.9l2.3,2.4v.9h-.8Zm3.4-2.5-.4.5-.8-.8v-1.6l.6-.6.6.6Z"/><path class="f" d="M675.5,304.3v-3.2l1.3,1.2V304l-.8.8Zm1.3,1.7v1.7l-1.3,1.2v-3.2l.5-.4Zm4-5.1-1.3,1.2H677l-1.2-1.2Zm0,8.3h-5l1.2-1.3h2.5Zm-1.3-4.8.6.6-.6.7h-2.7l-.6-.7.6-.6Z"/><path class="f" d="M685.2,300.9l1.2,1.2V304l-.7.8-.5-.5Zm3.8,8.3.6-.6-.6-.7h-2.7l-.6.7.6.6Zm-2.5-4.8-.6.6.6.7h2.6l.7-.7-.7-.6Zm3.9-3.5-1.2,1.2V304l.8.8.4-.5Zm0,4.8-.4-.4-.8.7v1.7l.6.6.6-.6Z"/><path class="f" d="M691.8,304.3v-3.2l1.3,1.2V304l-.8.8Zm1.3,1.7v1.7l-1.3,1.2v-3.2l.5-.4Zm4-5.1-1.3,1.2h-2.5l-1.2-1.2Zm0,8.3h-5l1.2-1.3h2.5Zm-1.3-4.8.6.6-.6.7h-2.7l-.6-.7.6-.6Z"/><path class="f" d="M704,301.5l-.7.6h-4.5l-.6-.6.6-.6h4.5Zm-2.3,2.8-.5.5-.7-.8v-.9l.6-.6.6.6Zm0,4.3-.6.6-.6-.6V306l.7-.7.5.4Z"/><path class="f" d="M709.5,301.5l-.7.6h-2.5l-1.2-1.2h3.7Zm-3.2,6.4-1.2,1.3v-3.5l.4-.4.8.7Zm0,1.7h-1.2v1.3h1.2Zm2.7-5.2.6.6-.6.7h-2.6l-.6-.7.6-.6Zm1.3-.1-.5.5-.7-.8v-1.6l.6-.6.6.6Z"/><path class="f" d="M567,317.3v-3.2l1.3,1.2V317l-.8.8Zm1.3,1.7v1.9l-1.3,1.3v-3.5l.5-.4Zm3.7-5.1-1.2,1.2h-2.3l-1.2-1.2Zm-1,3.5.6.6-.6.7h-2.7l-.6-.7.6-.6Zm0-.4v-1.6l1.3-1.3v3.2l-.5.5Zm1.3,1.7v3.5l-1.3-1.3V319l.8-.7Z"/><path class="f" d="M573.7,317.3v-3.2l1.2,1.2V317l-.8.8Zm1.2,1.7v1.9l-1.2,1.3v-3.5l.4-.4Zm3.1-4.5-.6.6h-2.3l-1.2-1.2h3.5Zm-.4,2.9.6.6-.6.7H575l-.7-.7.7-.6Zm-2.2,2.4v-.9h.9l2.4,2.4v.9h-.9Zm3.5-2.5-.5.5-.7-.8v-1.6l.6-.6.6.6Z"/><path class="f" d="M580.3,317.3v-3.2l1.2,1.2V317l-.8.8Zm1.2,1.7v1.7l-1.2,1.2v-3.2l.4-.4Zm4-5.1-1.2,1.2h-2.6l-1.2-1.2Zm0,8.3h-5l1.2-1.3h2.6Zm-1.3-4.8.6.6-.6.7h-2.6l-.6-.7.6-.6Z"/><path class="f" d="M591.2,317l-.8.8-.4-.5v-3.4l1.2,1.2Zm0,3.7-1.2,1.2v-3.2l.4-.4.8.7Zm3.8,1.5h-4.8l1.2-1.3h2.3Zm-1.8-2.2-.6.7-.6-.7v-2.4l.6-.6.6.6Zm2-2.7-.5.5-.7-.8v-1.9l1.2-1.2Zm0,4.6-1.2-1.2V319l.7-.7.5.4Z"/><path class="f" d="M596.6,317.3v-3.2l1.2,1.2V317l-.8.8Zm1.2,1.7v1.7l-1.2,1.2v-3.2l.4-.4Zm4-5.1-1.2,1.2H598l-1.2-1.2Zm0,8.3h-5l1.2-1.3h2.6Zm-1.3-4.8.6.6-.6.7h-2.6l-.6-.7.6-.6Z"/><path class="f" d="M606.3,317.3v-3.4l1.2,1.2V317l-.8.8Zm1.2,1.7v1.9l-1.2,1.3v-3.5l.4-.4Zm-.9-5.1h1.8l1.6,1.7v.9h-.9Zm3.7,3.1v-1.9l1.2-1.2v3.4l-.5.5Zm1.2,1.7v3.5l-1.2-1.3V319l.7-.7Z"/><path class="f" d="M612.9,317.3v-3.2l1.2,1.2V317l-.8.8Zm1.2,1.7v1.7l-1.2,1.2v-3.2l.4-.4Zm4-5.1-1.2,1.2h-2.5l-1.3-1.2Zm0,8.3h-5l1.3-1.3h2.5Zm-1.3-4.8.6.6-.6.7h-2.6l-.6-.7.6-.6Z"/><path class="f" d="M619.5,317.3v-3.2l1.2,1.2V317l-.7.8Zm1.2,1.7v1.9l-1.2,1.3v-3.5l.5-.4Zm3.8-5.1-1.2,1.2H621l-1.3-1.2Zm-1.1,3.5.7.6-.7.7h-2.6l-.6-.7.6-.6Zm.1-.4v-1.6l1.2-1.3v3.2l-.4.5Zm1.2,1.7v3.5l-1.2-1.3V319l.8-.7Z"/><path class="f" d="M626.1,317.3v-3.2l1.3,1.2V317l-.8.8Zm1.3,1.7v1.9l-1.3,1.3v-3.5l.5-.4Zm3.1-4.5-.6.6h-2.3l-1.2-1.2h3.5Zm-.4,2.9.6.6-.6.7h-2.7l-.6-.7.6-.6Zm-2.2,2.4v-.9h.9l2.3,2.4v.9h-.9Zm3.5-2.5-.5.5-.8-.8v-1.6l.6-.6.7.6Z"/><path class="f" d="M632.7,317.3v-3.4l1.3,1.2V317l-.8.8ZM634,319v1.7l-1.3,1.2v-3.2l.5-.4Zm4,3.2h-5l1.2-1.3h2.5Z"/><path class="f" d="M639.4,313.9l1.2,1.2V317l-.8.8-.4-.5Zm3.7,8.3.7-.6-.7-.7h-2.7l-.6.7.6.6Zm-2.4-4.8-.6.6.6.7h2.6l.6-.7-.6-.6Zm3.9-3.5-1.2,1.2V317l.7.8.5-.5Zm0,4.8-.5-.4-.7.7v1.7l.6.6.6-.6Z"/><path class="f" d="M654.6,314.5l-.7.6h-4.5l-.6-.6.6-.6h4.5Zm-2.3,2.8-.5.5-.7-.8v-.9l.6-.6.6.6Zm0,4.3-.6.6-.6-.6V319l.7-.7.5.4Z"/><path class="f" d="M655.7,317.3v-3.4l1.2,1.2V317l-.8.8Zm1.2,1.7v1.9l-1.2,1.3v-3.5l.4-.4Zm2.7-1.6.6.6-.6.7H657l-.6-.7.6-.6Zm.1-.4v-1.9l1.2-1.2v3.4l-.5.5Zm1.2,1.7v3.5l-1.2-1.3V319l.7-.7Z"/><path class="f" d="M662.3,317.3v-3.2l1.2,1.2V317l-.8.8Zm1.2,1.7v1.7l-1.2,1.2v-3.2l.4-.4Zm4-5.1-1.2,1.2h-2.5l-1.3-1.2Zm0,8.3h-5l1.3-1.3h2.5Zm-1.3-4.8.6.6-.6.7h-2.6l-.6-.7.6-.6Z"/><path class="f" d="M668.9,317.3v-3.2l1.2,1.2V317l-.7.8Zm1.2,1.7v1.9l-1.2,1.3v-3.5l.5-.4Zm3.2-4.5-.6.6h-2.3l-1.3-1.2h3.6Zm-.5,2.9.7.6-.7.7h-2.6l-.6-.7.6-.6Zm-2.1,2.4v-.9h.9l2.3,2.4v.9h-.8Zm3.4-2.5-.4.5-.8-.8v-1.6l.6-.6.6.6Z"/><path class="f" d="M675.5,317.3v-3.2l1.3,1.2V317l-.8.8Zm1.3,1.7v1.7l-1.3,1.2v-3.2l.5-.4Zm4-5.1-1.3,1.2H677l-1.2-1.2Zm0,8.3h-5l1.2-1.3h2.5Zm-1.3-4.8.6.6-.6.7h-2.7l-.6-.7.6-.6Z"/><path class="f" d="M685.2,313.9l1.2,1.2V317l-.7.8-.5-.5Zm3.8,8.3.6-.6-.6-.7h-2.7l-.6.7.6.6Zm-2.5-4.8-.6.6.6.7h2.6l.7-.7-.7-.6Zm3.9-3.5-1.2,1.2V317l.8.8.4-.5Zm0,4.8-.4-.4-.8.7v1.7l.6.6.6-.6Z"/><path class="f" d="M691.8,317.3v-3.2l1.3,1.2V317l-.8.8Zm1.3,1.7v1.7l-1.3,1.2v-3.2l.5-.4Zm4-5.1-1.3,1.2h-2.5l-1.2-1.2Zm0,8.3h-5l1.2-1.3h2.5Zm-1.3-4.8.6.6-.6.7h-2.7l-.6-.7.6-.6Z"/><path class="f" d="M704,314.5l-.7.6h-4.5l-.6-.6.6-.6h4.5Zm-2.3,2.8-.5.5-.7-.8v-.9l.6-.6.6.6Zm0,4.3-.6.6-.6-.6V319l.7-.7.5.4Z"/><path class="f" d="M709.5,314.5l-.7.6h-2.5l-1.2-1.2h3.7Zm-3.2,6.4-1.2,1.3v-3.5l.4-.4.8.7Zm0,1.7h-1.2v1.3h1.2Zm2.7-5.2.6.6-.6.7h-2.6l-.6-.7.6-.6Zm1.3-.1-.5.5-.7-.8v-1.6l.6-.6.6.6Z"/><path class="f" d="M567,330.3v-3.2l1.3,1.2V330l-.8.8Zm1.3,1.7v1.9l-1.3,1.3v-3.5l.5-.4Zm3.7-5.1-1.2,1.2h-2.3l-1.2-1.2Zm-1,3.5.6.6-.6.7h-2.7l-.6-.7.6-.6Zm0-.4v-1.6l1.3-1.3v3.2l-.5.5Zm1.3,1.7v3.5l-1.3-1.3V332l.8-.7Z"/><path class="f" d="M573.7,330.3v-3.2l1.2,1.2V330l-.8.8Zm1.2,1.7v1.9l-1.2,1.3v-3.5l.4-.4Zm3.1-4.5-.6.6h-2.3l-1.2-1.2h3.5Zm-.4,2.9.6.6-.6.7H575l-.7-.7.7-.6Zm-2.2,2.4v-.9h.9l2.4,2.4v.9h-.9Zm3.5-2.5-.5.5-.7-.8v-1.6l.6-.6.6.6Z"/><path class="f" d="M580.3,330.3v-3.2l1.2,1.2V330l-.8.8Zm1.2,1.7v1.7l-1.2,1.2v-3.2l.4-.4Zm4-5.1-1.2,1.2h-2.6l-1.2-1.2Zm0,8.3h-5l1.2-1.3h2.6Zm-1.3-4.8.6.6-.6.7h-2.6l-.6-.7.6-.6Z"/><path class="f" d="M591.2,330l-.8.8-.4-.5v-3.4l1.2,1.2Zm0,3.7-1.2,1.2v-3.2l.4-.4.8.7Zm3.8,1.5h-4.8l1.2-1.3h2.3Zm-1.8-2.2-.6.7-.6-.7v-2.4l.6-.6.6.6Zm2-2.7-.5.5-.7-.8v-1.9l1.2-1.2Zm0,4.6-1.2-1.2V332l.7-.7.5.4Z"/><path class="f" d="M596.6,330.3v-3.2l1.2,1.2V330l-.8.8Zm1.2,1.7v1.7l-1.2,1.2v-3.2l.4-.4Zm4-5.1-1.2,1.2H598l-1.2-1.2Zm0,8.3h-5l1.2-1.3h2.6Zm-1.3-4.8.6.6-.6.7h-2.6l-.6-.7.6-.6Z"/><path class="f" d="M606.3,330.3v-3.4l1.2,1.2V330l-.8.8Zm1.2,1.7v1.9l-1.2,1.3v-3.5l.4-.4Zm-.9-5.1h1.8l1.6,1.7v.9h-.9Zm3.7,3.1v-1.9l1.2-1.2v3.4l-.5.5Zm1.2,1.7v3.5l-1.2-1.3V332l.7-.7Z"/><path class="f" d="M612.9,330.3v-3.2l1.2,1.2V330l-.8.8Zm1.2,1.7v1.7l-1.2,1.2v-3.2l.4-.4Zm4-5.1-1.2,1.2h-2.5l-1.3-1.2Zm0,8.3h-5l1.3-1.3h2.5Zm-1.3-4.8.6.6-.6.7h-2.6l-.6-.7.6-.6Z"/><path class="f" d="M619.5,330.3v-3.2l1.2,1.2V330l-.7.8Zm1.2,1.7v1.9l-1.2,1.3v-3.5l.5-.4Zm3.8-5.1-1.2,1.2H621l-1.3-1.2Zm-1.1,3.5.7.6-.7.7h-2.6l-.6-.7.6-.6Zm.1-.4v-1.6l1.2-1.3v3.2l-.4.5Zm1.2,1.7v3.5l-1.2-1.3V332l.8-.7Z"/><path class="f" d="M626.1,330.3v-3.2l1.3,1.2V330l-.8.8Zm1.3,1.7v1.9l-1.3,1.3v-3.5l.5-.4Zm3.1-4.5-.6.6h-2.3l-1.2-1.2h3.5Zm-.4,2.9.6.6-.6.7h-2.7l-.6-.7.6-.6Zm-2.2,2.4v-.9h.9l2.3,2.4v.9h-.9Zm3.5-2.5-.5.5-.8-.8v-1.6l.6-.6.7.6Z"/><path class="f" d="M632.7,330.3v-3.4l1.3,1.2V330l-.8.8ZM634,332v1.7l-1.3,1.2v-3.2l.5-.4Zm4,3.2h-5l1.2-1.3h2.5Z"/><path class="f" d="M639.4,326.9l1.2,1.2V330l-.8.8-.4-.5Zm3.7,8.3.7-.6-.7-.7h-2.7l-.6.7.6.6Zm-2.4-4.8-.6.6.6.7h2.6l.6-.7-.6-.6Zm3.9-3.5-1.2,1.2V330l.7.8.5-.5Zm0,4.8-.5-.4-.7.7v1.7l.6.6.6-.6Z"/><path class="f" d="M654.6,327.5l-.7.6h-4.5l-.6-.6.6-.6h4.5Zm-2.3,2.8-.5.5-.7-.8v-.9l.6-.6.6.6Zm0,4.3-.6.6-.6-.6V332l.7-.7.5.4Z"/><path class="f" d="M655.7,330.3v-3.4l1.2,1.2V330l-.8.8Zm1.2,1.7v1.9l-1.2,1.3v-3.5l.4-.4Zm2.7-1.6.6.6-.6.7H657l-.6-.7.6-.6Zm.1-.4v-1.9l1.2-1.2v3.4l-.5.5Zm1.2,1.7v3.5l-1.2-1.3V332l.7-.7Z"/><path class="f" d="M662.3,330.3v-3.2l1.2,1.2V330l-.8.8Zm1.2,1.7v1.7l-1.2,1.2v-3.2l.4-.4Zm4-5.1-1.2,1.2h-2.5l-1.3-1.2Zm0,8.3h-5l1.3-1.3h2.5Zm-1.3-4.8.6.6-.6.7h-2.6l-.6-.7.6-.6Z"/><path class="f" d="M668.9,330.3v-3.2l1.2,1.2V330l-.7.8Zm1.2,1.7v1.9l-1.2,1.3v-3.5l.5-.4Zm3.2-4.5-.6.6h-2.3l-1.3-1.2h3.6Zm-.5,2.9.7.6-.7.7h-2.6l-.6-.7.6-.6Zm-2.1,2.4v-.9h.9l2.3,2.4v.9h-.8Zm3.4-2.5-.4.5-.8-.8v-1.6l.6-.6.6.6Z"/><path class="f" d="M675.5,330.3v-3.2l1.3,1.2V330l-.8.8Zm1.3,1.7v1.7l-1.3,1.2v-3.2l.5-.4Zm4-5.1-1.3,1.2H677l-1.2-1.2Zm0,8.3h-5l1.2-1.3h2.5Zm-1.3-4.8.6.6-.6.7h-2.7l-.6-.7.6-.6Z"/><path class="f" d="M685.2,326.9l1.2,1.2V330l-.7.8-.5-.5Zm3.8,8.3.6-.6-.6-.7h-2.7l-.6.7.6.6Zm-2.5-4.8-.6.6.6.7h2.6l.7-.7-.7-.6Zm3.9-3.5-1.2,1.2V330l.8.8.4-.5Zm0,4.8-.4-.4-.8.7v1.7l.6.6.6-.6Z"/><path class="f" d="M691.8,330.3v-3.2l1.3,1.2V330l-.8.8Zm1.3,1.7v1.7l-1.3,1.2v-3.2l.5-.4Zm4-5.1-1.3,1.2h-2.5l-1.2-1.2Zm0,8.3h-5l1.2-1.3h2.5Zm-1.3-4.8.6.6-.6.7h-2.7l-.6-.7.6-.6Z"/><path class="f" d="M704,327.5l-.7.6h-4.5l-.6-.6.6-.6h4.5Zm-2.3,2.8-.5.5-.7-.8v-.9l.6-.6.6.6Zm0,4.3-.6.6-.6-.6V332l.7-.7.5.4Z"/><path class="f" d="M709.5,327.5l-.7.6h-2.5l-1.2-1.2h3.7Zm-3.2,6.4-1.2,1.3v-3.5l.4-.4.8.7Zm0,1.7h-1.2v1.3h1.2Zm2.7-5.2.6.6-.6.7h-2.6l-.6-.7.6-.6Zm1.3-.1-.5.5-.7-.8v-1.6l.6-.6.6.6Z"/></svg>